{"glyphs":{"0":{"ha":667,"x_min":25,"x_max":642,"o":"m 25 458 q 40 237 25 328 q 90 89 54 146 q 185 8 125 32 q 333 -15 244 -15 q 505 26 443 -15 q 597 141 567 68 q 635 308 628 214 q 642 506 642 403 q 627 727 642 636 q 577 875 613 818 q 483 958 542 932 q 333 983 424 983 q 162 940 224 983 q 69 823 100 896 q 32 656 39 750 q 25 458 25 561 m 225 415 l 225 522 q 230 681 225 617 q 247 783 235 744 q 279 837 258 821 q 333 853 300 853 q 386 840 365 853 q 419 794 407 828 q 437 701 432 760 q 442 549 442 642 l 442 442 q 437 283 442 347 q 420 181 432 219 q 388 127 408 143 q 333 111 367 111 q 281 124 301 111 q 247 170 260 136 q 230 263 235 204 q 225 415 225 322 z "},"1":{"ha":667,"x_min":57,"x_max":453,"o":"m 253 0 l 453 0 l 453 983 l 306 983 q 233 863 290 900 q 75 825 175 825 l 57 825 l 57 694 l 253 694 l 253 0 z "},"2":{"ha":667,"x_min":25,"x_max":631,"o":"m 631 0 l 631 156 l 260 156 q 292 222 267 183 q 361 300 317 260 l 472 403 q 543 476 514 440 q 590 549 572 511 q 617 627 608 586 q 625 715 625 668 q 553 914 625 844 q 331 983 481 983 q 99 910 172 983 q 25 699 25 836 l 25 661 l 217 661 q 220 735 217 700 q 235 796 224 769 q 269 838 247 822 q 328 853 290 853 q 425 731 425 853 q 422 664 425 693 q 407 610 418 635 q 376 560 396 585 q 322 506 356 535 l 242 431 q 147 331 188 381 q 78 231 106 282 q 38 122 51 179 q 25 0 25 65 l 631 0 z "},"3":{"ha":667,"x_min":28,"x_max":639,"o":"m 219 288 l 28 288 l 28 283 q 99 63 28 140 q 313 -15 169 -15 q 478 11 415 -15 q 578 81 542 38 q 626 176 614 124 q 639 279 639 229 q 599 434 639 372 q 464 511 560 496 l 464 514 q 574 585 535 529 q 614 731 614 642 q 540 922 614 861 q 331 983 465 983 q 115 912 189 983 q 42 693 42 840 l 225 693 q 228 757 225 728 q 243 808 232 786 q 274 841 254 829 q 326 853 294 853 q 399 824 375 853 q 422 724 422 794 q 416 665 422 693 q 397 616 410 638 q 362 581 383 594 q 308 568 340 568 l 243 568 l 243 438 l 310 438 q 376 424 351 438 q 415 386 401 410 q 434 333 429 363 q 439 269 439 303 q 435 208 439 238 q 420 158 432 179 q 387 124 408 136 q 329 111 365 111 q 242 156 264 111 q 219 288 221 201 z "},"4":{"ha":667,"x_min":19,"x_max":647,"o":"m 19 368 l 19 204 l 369 204 l 369 0 l 553 0 l 553 204 l 647 204 l 647 360 l 553 360 l 553 983 l 346 983 l 19 368 m 369 733 l 369 360 l 175 360 l 367 733 l 369 733 z "},"5":{"ha":667,"x_min":25,"x_max":631,"o":"m 590 808 l 590 964 l 78 964 l 42 429 l 221 429 q 249 495 226 471 q 315 519 272 519 q 371 510 349 519 q 406 476 393 500 q 425 413 419 453 q 431 311 431 372 q 403 167 431 215 q 314 119 376 119 q 263 135 282 119 q 233 176 243 151 q 219 228 222 200 q 217 281 217 256 l 25 281 l 25 254 q 35 165 25 213 q 76 76 46 117 q 165 10 107 35 q 315 -15 222 -15 q 471 9 410 -15 q 567 81 532 33 q 617 196 603 129 q 631 344 631 263 q 619 459 631 403 q 581 560 608 515 q 508 631 554 604 q 390 658 461 658 q 282 641 326 658 q 210 585 238 624 l 207 585 l 228 808 l 590 808 z "},"6":{"ha":667,"x_min":19,"x_max":647,"o":"m 229 306 q 254 449 229 406 q 339 492 279 492 q 422 449 397 492 q 447 306 447 406 q 444 228 447 264 q 429 167 440 193 q 397 126 418 140 q 339 111 375 111 q 283 126 304 111 q 249 166 261 140 q 233 228 238 192 q 229 306 229 264 m 432 733 l 624 733 q 599 852 622 804 q 539 929 576 900 q 452 971 501 958 q 350 983 403 983 q 161 938 228 983 q 63 816 94 892 q 26 642 32 740 q 19 440 19 544 q 29 267 19 350 q 72 120 39 183 q 165 21 104 57 q 329 -15 226 -15 q 572 73 496 -15 q 647 332 647 161 q 634 455 647 399 q 592 552 621 511 q 518 616 564 593 q 407 639 472 639 q 294 616 340 639 q 222 554 247 593 l 219 554 l 219 603 q 224 703 219 657 q 241 782 228 749 q 278 834 254 815 q 342 853 303 853 q 412 822 392 853 q 432 733 432 792 z "},"7":{"ha":667,"x_min":31,"x_max":636,"o":"m 636 964 l 31 964 l 31 792 l 444 792 q 319 590 372 693 q 230 386 267 488 q 171 187 193 285 q 138 0 149 89 l 347 0 q 383 212 360 104 q 443 424 407 319 q 527 626 479 528 q 636 811 575 725 l 636 964 z "},"8":{"ha":667,"x_min":19,"x_max":647,"o":"m 219 281 q 224 347 219 317 q 242 401 229 378 q 278 437 256 424 q 333 450 300 450 q 389 437 367 450 q 424 401 411 424 q 442 347 438 378 q 447 281 447 317 q 442 215 447 246 q 424 160 438 183 q 389 124 411 138 q 333 111 367 111 q 278 124 300 111 q 242 160 256 138 q 224 215 229 183 q 219 281 219 246 m 236 718 q 333 853 236 853 q 431 718 431 853 q 404 614 431 647 q 333 581 378 581 q 263 614 289 581 q 236 718 236 647 m 19 278 q 30 183 19 235 q 74 88 40 132 q 169 14 107 43 q 333 -15 231 -15 q 498 14 436 -15 q 593 88 560 43 q 637 183 626 132 q 647 278 647 235 q 606 438 647 371 q 481 521 564 504 l 481 524 q 547 554 519 533 q 590 601 574 575 q 615 657 607 628 q 622 713 622 686 q 545 920 622 857 q 333 983 468 983 q 122 920 199 983 q 44 713 44 857 q 51 657 44 686 q 75 601 58 628 q 119 554 92 575 q 186 524 146 533 l 186 521 q 61 438 103 504 q 19 278 19 371 z "},"9":{"ha":667,"x_min":19,"x_max":647,"o":"m 219 658 q 223 735 219 700 q 238 797 226 771 q 270 838 249 824 q 328 853 292 853 q 384 838 363 853 q 417 798 406 824 q 433 736 429 772 q 438 658 438 700 q 413 515 438 558 q 328 472 388 472 q 244 515 269 472 q 219 658 219 558 m 235 229 l 43 229 q 67 110 44 158 q 128 34 90 63 q 215 -5 165 6 q 317 -15 264 -15 q 505 28 438 -15 q 603 147 572 72 q 641 320 635 222 q 647 524 647 418 q 638 697 647 614 q 595 844 628 781 q 501 945 563 907 q 338 983 440 983 q 95 893 171 983 q 19 632 19 803 q 33 509 19 565 q 74 412 46 453 q 149 348 103 371 q 260 325 194 325 q 373 348 326 325 q 444 408 419 371 l 447 408 l 447 361 q 443 261 447 307 q 426 182 439 215 q 389 130 413 149 q 325 111 365 111 q 255 142 275 111 q 235 229 235 174 z "}," ":{"ha":333,"x_min":0,"x_max":0,"o":""},"\b":{"ha":0,"x_min":0,"x_max":0,"o":""},"\t":{"ha":333,"x_min":0,"x_max":0,"o":""},"\r":{"ha":333,"x_min":0,"x_max":0,"o":""},"\u001d":{"ha":0,"x_min":0,"x_max":0,"o":""},"!":{"ha":411,"x_min":110,"x_max":301,"o":"m 301 183 l 110 183 l 110 0 l 301 0 l 301 183 m 136 276 l 275 276 l 301 669 l 301 992 l 110 992 l 110 669 l 136 276 z "},"\"":{"ha":643,"x_min":100,"x_max":543,"o":"m 100 992 l 100 546 l 272 546 l 272 992 l 100 992 m 371 992 l 371 546 l 543 546 l 543 992 l 371 992 z "},"#":{"ha":667,"x_min":0,"x_max":667,"o":"m 256 397 l 276 567 l 413 567 l 390 397 l 256 397 m 0 397 l 0 242 l 103 242 l 72 0 l 207 0 l 236 242 l 372 242 l 342 0 l 476 0 l 507 242 l 626 242 l 626 397 l 525 397 l 547 567 l 667 567 l 667 722 l 565 722 l 596 964 l 461 964 l 431 722 l 296 722 l 325 964 l 192 964 l 161 722 l 42 722 l 42 567 l 143 567 l 121 397 l 0 397 z "},"$":{"ha":667,"x_min":13,"x_max":654,"o":"m 285 -15 l 285 -136 l 374 -136 l 374 -15 q 583 61 511 -6 q 654 278 654 128 q 642 376 654 336 q 607 445 629 417 q 553 493 585 474 q 483 529 522 513 l 374 574 l 374 836 q 424 790 410 825 q 439 701 438 754 l 631 701 l 631 721 q 619 811 631 767 q 579 892 608 856 q 501 952 550 928 q 374 983 451 976 l 374 1079 l 285 1079 l 285 983 q 92 899 160 969 q 25 700 25 829 q 69 537 25 604 q 215 433 114 469 l 285 408 l 285 128 q 241 151 257 135 q 217 189 225 167 q 206 238 208 211 q 204 294 204 265 l 13 294 l 13 265 q 23 163 13 211 q 63 76 33 114 q 145 15 92 38 q 285 -15 199 -8 m 285 836 l 285 614 q 217 731 217 653 q 285 836 217 817 m 374 128 l 374 374 q 434 322 414 353 q 454 239 454 292 q 435 169 454 200 q 374 128 417 138 z "},"%":{"ha":1081,"x_min":38,"x_max":1043,"o":"m 758 1007 l 194 -39 l 318 -39 l 882 1007 l 758 1007 m 185 724 q 194 838 185 799 q 246 878 204 878 q 297 838 288 878 q 307 724 307 799 q 297 599 307 640 q 246 558 288 558 q 194 599 204 558 q 185 724 185 640 m 38 718 q 46 601 38 651 q 77 518 54 551 q 141 469 100 485 q 246 453 182 453 q 351 469 311 453 q 415 518 392 485 q 446 601 438 551 q 454 718 454 651 q 446 835 454 785 q 415 918 438 885 q 351 967 392 951 q 246 983 311 983 q 141 967 182 983 q 77 918 100 951 q 46 835 54 885 q 38 718 38 785 m 626 246 q 635 128 626 178 q 666 47 643 79 q 730 -1 689 14 q 835 -15 771 -15 q 940 -1 900 -15 q 1003 47 981 14 q 1035 128 1026 79 q 1043 246 1043 178 q 1035 363 1043 313 q 1003 446 1026 413 q 940 495 981 479 q 835 511 900 511 q 730 495 771 511 q 666 446 689 479 q 635 363 643 413 q 626 246 626 313 m 774 251 q 783 366 774 326 q 835 406 793 406 q 886 366 876 406 q 896 251 896 326 q 886 127 896 168 q 835 86 876 86 q 783 127 793 86 q 774 251 774 168 z "},"&":{"ha":824,"x_min":17,"x_max":828,"o":"m 592 326 l 443 528 q 573 650 531 590 q 615 785 615 710 q 601 865 615 828 q 556 931 586 903 q 478 976 525 960 q 368 992 432 992 q 266 977 313 992 q 186 935 219 963 q 134 870 153 908 q 115 783 115 832 q 118 743 115 763 q 128 703 121 724 q 148 658 135 682 q 182 604 161 635 l 217 553 q 70 424 124 494 q 17 267 17 354 q 29 175 17 225 q 75 82 42 125 q 168 12 108 39 q 321 -15 228 -15 q 459 8 396 -15 q 560 76 522 32 l 615 0 l 828 0 l 697 183 q 770 322 742 247 q 799 476 799 396 l 626 476 q 617 401 626 444 q 592 326 607 358 m 310 435 l 476 199 q 347 136 426 136 q 288 148 314 136 q 244 178 261 160 q 217 221 226 197 q 208 267 208 244 q 230 351 208 313 q 310 435 251 390 m 279 789 q 303 849 279 828 q 364 869 328 869 q 427 848 403 869 q 451 786 451 826 q 437 733 451 760 q 389 678 422 706 l 353 647 l 329 681 q 279 789 279 747 z "},"'":{"ha":361,"x_min":94,"x_max":267,"o":"m 94 992 l 94 546 l 267 546 l 267 992 l 94 992 z "},"(":{"ha":411,"x_min":69,"x_max":411,"o":"m 411 992 l 264 992 q 115 672 160 828 q 69 368 69 515 q 115 67 69 221 q 264 -251 160 -87 l 411 -251 q 338 -98 368 -172 q 288 49 307 -24 q 261 201 269 122 q 253 368 253 279 q 261 535 253 457 q 288 689 269 614 q 338 838 307 764 q 411 992 368 913 z "},")":{"ha":411,"x_min":0,"x_max":342,"o":"m 147 992 l 0 992 q 74 838 43 913 q 123 689 104 764 q 150 535 142 614 q 158 368 158 457 q 150 201 158 279 q 123 49 142 122 q 74 -98 104 -24 q 0 -251 43 -172 l 147 -251 q 297 67 251 -87 q 342 368 342 221 q 297 672 342 515 q 147 992 251 828 z "},"*":{"ha":542,"x_min":10,"x_max":532,"o":"m 328 992 l 214 992 l 214 814 l 44 869 l 10 761 l 179 706 l 74 561 l 167 494 l 271 639 l 375 494 l 468 561 l 363 706 l 532 761 l 497 869 l 328 814 l 328 992 z "},"+":{"ha":833,"x_min":65,"x_max":768,"o":"m 331 265 l 331 0 l 503 0 l 503 265 l 768 265 l 768 438 l 503 438 l 503 703 l 331 703 l 331 438 l 65 438 l 65 265 l 331 265 z "},",":{"ha":333,"x_min":75,"x_max":258,"o":"m 258 217 l 75 217 l 75 0 l 147 0 l 147 -18 q 129 -89 147 -57 q 75 -128 111 -121 l 75 -225 q 166 -198 131 -219 q 222 -142 201 -176 q 251 -62 243 -108 q 258 36 258 -15 l 258 217 z "},"-":{"ha":514,"x_min":61,"x_max":453,"o":"m 453 483 l 61 483 l 61 319 l 453 319 l 453 483 z "},".":{"ha":333,"x_min":75,"x_max":258,"o":"m 258 217 l 75 217 l 75 0 l 258 0 l 258 217 z "},"/":{"ha":461,"x_min":0,"x_max":465,"o":"m 310 1011 l 0 -15 l 151 -15 l 465 1011 l 310 1011 z "},":":{"ha":333,"x_min":75,"x_max":258,"o":"m 75 724 l 75 507 l 258 507 l 258 724 l 75 724 m 75 217 l 75 0 l 258 0 l 258 217 l 75 217 z "},";":{"ha":333,"x_min":75,"x_max":258,"o":"m 258 724 l 75 724 l 75 507 l 258 507 l 258 724 m 258 217 l 75 217 l 75 0 l 147 0 l 147 -18 q 129 -89 147 -57 q 75 -128 111 -121 l 75 -225 q 166 -198 131 -219 q 222 -142 201 -176 q 251 -62 243 -108 q 258 36 258 -15 l 258 217 z "},"<":{"ha":833,"x_min":65,"x_max":768,"o":"m 65 425 l 65 278 l 768 -7 l 768 161 l 299 351 l 768 542 l 768 714 l 65 425 z "},"=":{"ha":833,"x_min":65,"x_max":768,"o":"m 65 286 l 65 114 l 768 114 l 768 286 l 65 286 m 65 589 l 65 417 l 768 417 l 768 589 l 65 589 z "},">":{"ha":833,"x_min":65,"x_max":768,"o":"m 65 161 l 65 -7 l 768 278 l 768 425 l 65 714 l 65 542 l 535 351 l 65 161 z "},"?":{"ha":668,"x_min":50,"x_max":618,"o":"m 417 183 l 225 183 l 225 0 l 417 0 l 417 183 m 50 685 l 233 685 l 233 719 q 256 830 233 788 q 332 872 279 872 q 403 840 379 872 q 426 754 426 807 q 415 676 426 713 q 374 607 403 639 l 321 547 q 254 447 274 494 q 235 329 235 399 l 235 275 l 407 275 l 407 296 q 423 382 407 349 q 475 456 439 415 l 531 518 q 599 626 581 576 q 618 735 618 676 q 545 930 618 857 q 325 1003 472 1003 q 205 981 257 1003 q 119 922 153 960 q 67 832 85 885 q 50 717 50 779 l 50 685 z "},"@":{"ha":1111,"x_min":40,"x_max":1071,"o":"m 743 751 l 725 678 q 652 749 694 726 q 557 771 610 771 q 434 741 489 771 q 340 663 379 711 q 281 554 301 615 q 260 429 260 493 q 278 330 260 374 q 324 256 296 286 q 389 209 353 225 q 463 193 425 193 q 560 215 518 193 q 629 267 601 238 l 632 267 q 722 193 639 193 q 779 202 744 193 q 853 231 814 211 q 931 281 892 250 q 1001 357 969 313 q 1051 459 1032 401 q 1071 590 1071 517 q 1029 763 1071 686 q 917 896 988 840 q 753 981 847 951 q 556 1011 660 1011 q 355 971 449 1011 q 191 860 261 931 q 81 697 121 790 q 40 496 40 603 q 81 295 40 389 q 191 132 121 201 q 355 24 261 63 q 556 -15 449 -15 q 826 40 714 -15 q 1014 200 939 96 l 890 200 q 758 138 832 165 q 589 111 685 111 q 438 141 510 111 q 313 223 367 171 q 228 345 260 275 q 196 494 196 415 q 225 639 196 569 q 306 763 254 708 q 427 849 357 817 q 579 881 497 881 q 718 857 651 881 q 836 790 785 833 q 918 689 888 747 q 949 561 949 631 q 933 462 949 507 q 897 385 918 417 q 850 337 875 354 q 804 319 825 319 q 776 347 776 319 q 785 404 776 365 l 865 751 l 743 751 m 415 453 q 427 512 415 482 q 460 567 439 542 q 509 608 481 592 q 571 624 538 624 q 644 593 614 624 q 675 518 675 563 q 663 456 675 488 q 630 398 651 424 q 579 356 608 372 q 514 340 550 340 q 442 374 469 340 q 415 453 415 407 z "},"A":{"ha":772,"x_min":0,"x_max":772,"o":"m 483 374 l 388 819 l 385 819 l 289 374 l 483 374 m 510 992 l 772 0 l 564 0 l 518 210 l 254 210 l 208 0 l 0 0 l 263 992 l 510 992 z "},"B":{"ha":772,"x_min":69,"x_max":717,"o":"m 269 147 l 269 446 l 356 446 q 417 439 389 446 q 465 415 444 432 q 497 369 485 397 q 508 297 508 340 q 464 179 508 211 q 347 147 419 147 l 269 147 m 269 585 l 269 844 l 342 844 q 451 815 417 844 q 486 715 486 786 q 448 615 486 644 q 326 585 410 585 l 269 585 m 69 992 l 69 0 l 407 0 q 553 24 494 0 q 649 87 613 47 q 701 179 686 126 q 717 290 717 232 q 668 450 717 390 q 536 521 619 510 l 536 524 q 649 602 611 544 q 686 740 686 660 q 665 860 686 811 q 607 938 644 908 q 517 979 569 967 q 404 992 465 992 l 69 992 z "},"C":{"ha":746,"x_min":49,"x_max":701,"o":"m 493 657 l 693 657 q 685 773 693 711 q 647 888 678 835 q 555 976 617 942 q 386 1011 493 1011 q 207 973 274 1011 q 105 867 140 935 q 59 703 69 799 q 49 496 49 608 q 59 288 49 382 q 105 125 69 193 q 207 21 140 57 q 386 -15 274 -15 q 547 15 485 -15 q 642 100 608 46 q 689 226 676 154 q 701 379 701 299 l 501 379 q 492 249 501 299 q 465 173 482 200 q 426 137 449 146 q 376 128 403 128 q 320 141 344 128 q 280 192 296 154 q 256 300 264 231 q 249 482 249 369 q 254 660 249 588 q 274 778 260 733 q 312 844 288 824 q 374 864 336 864 q 467 815 442 864 q 493 657 493 765 z "},"D":{"ha":797,"x_min":79,"x_max":735,"o":"m 279 147 l 279 844 l 364 844 q 455 823 421 844 q 506 759 489 801 q 529 653 524 717 q 535 504 535 589 q 528 335 535 403 q 503 225 522 267 q 453 165 485 183 q 368 147 421 147 l 279 147 m 79 992 l 79 0 l 394 0 q 560 31 494 0 q 664 124 625 61 q 719 283 703 186 q 735 510 735 379 q 722 708 735 619 q 674 860 710 797 q 575 958 639 924 q 407 992 511 992 l 79 992 z "},"E":{"ha":668,"x_min":69,"x_max":638,"o":"m 624 992 l 69 992 l 69 0 l 638 0 l 638 164 l 269 164 l 269 431 l 603 431 l 603 594 l 269 594 l 269 828 l 624 828 l 624 992 z "},"F":{"ha":643,"x_min":69,"x_max":624,"o":"m 69 992 l 69 0 l 269 0 l 269 431 l 603 431 l 603 594 l 269 594 l 269 828 l 624 828 l 624 992 l 69 992 z "},"G":{"ha":772,"x_min":60,"x_max":713,"o":"m 510 697 l 701 697 q 629 930 701 849 q 393 1011 557 1011 q 233 979 297 1011 q 131 884 169 947 q 76 726 92 821 q 60 507 60 632 q 71 280 60 378 q 115 115 82 182 q 205 17 147 49 q 354 -15 263 -15 q 476 9 425 -15 q 563 92 526 33 l 565 92 l 565 0 l 713 0 l 713 535 l 389 535 l 389 388 l 521 388 l 521 286 q 508 216 521 246 q 477 167 496 186 q 437 138 458 147 q 397 128 415 128 q 327 155 354 128 q 285 233 300 182 q 265 356 271 283 q 260 517 260 428 q 292 783 260 703 q 396 864 324 864 q 448 848 426 864 q 483 808 469 832 q 503 754 497 783 q 510 697 510 725 z "},"H":{"ha":772,"x_min":69,"x_max":703,"o":"m 69 992 l 69 0 l 269 0 l 269 440 l 503 440 l 503 0 l 703 0 l 703 992 l 503 992 l 503 613 l 269 613 l 269 992 l 69 992 z "},"I":{"ha":358,"x_min":79,"x_max":279,"o":"m 79 0 l 279 0 l 279 992 l 79 992 l 79 0 z "},"J":{"ha":643,"x_min":21,"x_max":582,"o":"m 582 992 l 382 992 l 382 283 q 365 166 382 204 q 293 128 347 128 q 222 166 239 128 q 204 283 204 204 l 204 314 l 21 314 l 21 271 q 32 160 21 213 q 73 67 43 107 q 153 6 103 28 q 283 -15 204 -15 q 508 52 435 -15 q 582 278 582 119 l 582 992 z "},"K":{"ha":746,"x_min":69,"x_max":772,"o":"m 269 992 l 69 992 l 69 0 l 269 0 l 269 294 l 343 407 l 547 0 l 772 0 l 472 567 l 742 992 l 525 992 l 272 594 l 269 594 l 269 992 z "},"L":{"ha":643,"x_min":69,"x_max":624,"o":"m 69 0 l 624 0 l 624 164 l 269 164 l 269 992 l 69 992 l 69 0 z "},"M":{"ha":1028,"x_min":74,"x_max":954,"o":"m 74 992 l 74 0 l 257 0 l 257 792 l 260 792 l 436 0 l 592 0 l 768 792 l 771 792 l 771 0 l 954 0 l 954 992 l 658 992 l 515 292 l 513 292 l 371 992 l 74 992 z "},"N":{"ha":797,"x_min":69,"x_max":728,"o":"m 300 992 l 69 992 l 69 0 l 253 0 l 253 694 l 256 694 l 500 0 l 728 0 l 728 992 l 544 992 l 544 313 l 542 313 l 300 992 z "},"O":{"ha":772,"x_min":49,"x_max":724,"o":"m 249 496 q 253 665 249 596 q 273 779 258 735 q 315 844 288 824 q 386 864 342 864 q 458 844 431 864 q 499 779 485 824 q 519 665 514 735 q 524 496 524 596 q 519 326 524 396 q 499 212 514 256 q 458 148 485 168 q 386 128 431 128 q 315 148 342 128 q 273 212 288 168 q 253 326 258 256 q 249 496 249 396 m 49 496 q 59 288 49 382 q 105 125 69 193 q 207 21 140 57 q 386 -15 274 -15 q 565 21 499 -15 q 667 125 632 57 q 713 288 703 193 q 724 496 724 382 q 713 703 724 608 q 667 867 703 799 q 565 973 632 935 q 386 1011 499 1011 q 207 973 274 1011 q 105 867 140 935 q 59 703 69 799 q 49 496 49 608 z "},"P":{"ha":721,"x_min":69,"x_max":692,"o":"m 269 543 l 269 844 l 353 844 q 460 806 428 844 q 492 692 492 767 q 455 579 492 615 q 358 543 418 543 l 269 543 m 69 992 l 69 0 l 269 0 l 269 396 l 376 396 q 506 414 447 396 q 605 468 564 432 q 669 561 646 504 q 692 694 692 618 q 678 803 692 750 q 632 899 664 857 q 548 966 600 940 q 419 992 496 992 l 69 992 z "},"Q":{"ha":772,"x_min":49,"x_max":754,"o":"m 249 496 q 253 665 249 596 q 273 779 258 735 q 315 844 288 824 q 386 864 342 864 q 458 844 431 864 q 499 779 485 824 q 519 665 514 735 q 524 496 524 596 q 519 326 524 396 q 499 212 514 256 q 458 148 485 168 q 386 128 431 128 q 315 148 342 128 q 273 212 288 168 q 253 326 258 256 q 249 496 249 396 m 636 -118 l 754 -11 l 647 93 q 710 267 696 164 q 724 496 724 369 q 713 703 724 608 q 667 867 703 799 q 565 973 632 935 q 386 1011 499 1011 q 207 973 274 1011 q 105 867 140 935 q 59 703 69 799 q 49 496 49 608 q 59 288 49 382 q 105 125 69 193 q 207 21 140 57 q 386 -15 274 -15 q 518 0 463 -15 l 636 -118 z "},"R":{"ha":772,"x_min":69,"x_max":742,"o":"m 69 992 l 69 0 l 269 0 l 269 419 l 376 419 q 465 386 439 419 q 494 294 492 353 l 500 104 q 506 48 501 75 q 525 0 510 21 l 742 0 l 742 8 q 706 65 714 24 q 697 186 700 107 q 694 259 696 226 q 690 319 693 292 q 647 440 682 403 q 538 489 613 478 l 538 492 q 663 573 622 510 q 703 736 703 636 q 633 928 703 865 q 439 992 564 992 l 69 992 m 269 558 l 269 844 l 364 844 q 503 707 503 844 q 464 592 503 626 q 353 558 425 558 l 269 558 z "},"S":{"ha":721,"x_min":31,"x_max":690,"o":"m 231 310 l 31 310 l 31 269 q 103 58 31 132 q 346 -15 176 -15 q 599 56 508 -15 q 690 285 690 128 q 682 368 690 331 q 652 437 674 406 q 594 495 631 468 q 501 547 558 522 l 347 614 q 264 672 283 640 q 244 749 244 703 q 249 792 244 771 q 267 828 254 813 q 303 854 281 844 q 358 864 325 864 q 442 826 417 864 q 467 717 467 788 l 658 717 l 658 744 q 635 866 658 815 q 572 949 613 917 q 474 997 531 982 q 351 1011 418 1011 q 126 939 208 1011 q 44 719 44 867 q 60 612 44 658 q 108 530 75 565 q 189 468 140 494 q 304 419 238 442 q 388 387 354 403 q 443 351 422 371 q 473 308 464 332 q 482 250 482 283 q 445 158 482 188 q 363 128 408 128 q 298 139 324 128 q 257 169 272 150 q 236 217 242 189 q 231 281 231 246 l 231 310 z "},"T":{"ha":667,"x_min":17,"x_max":650,"o":"m 650 992 l 17 992 l 17 828 l 233 828 l 233 0 l 433 0 l 433 828 l 650 828 l 650 992 z "},"U":{"ha":747,"x_min":57,"x_max":690,"o":"m 257 992 l 57 992 l 57 300 q 83 138 57 200 q 154 41 110 75 q 256 -4 199 7 q 374 -15 313 -15 q 492 -3 435 -15 q 593 46 549 10 q 664 144 638 82 q 690 300 690 206 l 690 992 l 490 992 l 490 300 q 485 231 490 263 q 467 177 481 200 q 432 141 454 154 q 374 128 410 128 q 316 141 339 128 q 280 177 293 154 q 262 231 267 200 q 257 300 257 263 l 257 992 z "},"V":{"ha":721,"x_min":4,"x_max":717,"o":"m 218 992 l 4 992 l 232 0 l 489 0 l 717 992 l 510 992 l 363 258 l 358 258 l 218 992 z "},"W":{"ha":1056,"x_min":11,"x_max":1044,"o":"m 11 992 l 192 0 l 415 0 l 526 719 l 529 719 l 640 0 l 864 0 l 1044 992 l 853 992 l 743 258 l 740 258 l 624 992 l 432 992 l 315 258 l 313 258 l 203 992 l 11 992 z "},"X":{"ha":746,"x_min":8,"x_max":738,"o":"m 28 992 l 256 501 l 8 0 l 228 0 l 369 336 l 513 0 l 738 0 l 490 501 l 721 992 l 503 992 l 376 671 l 249 992 l 28 992 z "},"Y":{"ha":722,"x_min":4,"x_max":718,"o":"m 229 992 l 4 992 l 261 390 l 261 0 l 461 0 l 461 390 l 718 992 l 501 992 l 363 608 l 360 608 l 229 992 z "},"Z":{"ha":668,"x_min":33,"x_max":635,"o":"m 33 146 l 33 0 l 635 0 l 635 164 l 258 164 l 629 840 l 629 992 l 58 992 l 58 828 l 399 828 l 33 146 z "},"[":{"ha":438,"x_min":111,"x_max":429,"o":"m 111 992 l 111 -251 l 429 -251 l 429 -112 l 283 -112 l 283 853 l 429 853 l 429 992 l 111 992 z "},"\\":{"ha":461,"x_min":0,"x_max":465,"o":"m 0 1011 l 310 -15 l 465 -15 l 151 1011 l 0 1011 z "},"]":{"ha":438,"x_min":8,"x_max":326,"o":"m 8 -112 l 8 -251 l 326 -251 l 326 992 l 8 992 l 8 853 l 154 853 l 154 -112 l 8 -112 z "},"^":{"ha":833,"x_min":78,"x_max":756,"o":"m 78 429 l 250 429 l 417 772 l 583 429 l 756 429 l 494 964 l 339 964 l 78 429 z "},"_":{"ha":694,"x_min":0,"x_max":694,"o":"m 0 -169 l 694 -169 l 694 -100 l 0 -100 l 0 -169 z "},"`":{"ha":308,"x_min":-18,"x_max":244,"o":"m 114 835 l 244 835 l 169 1035 l -18 1035 l 114 835 z "},"a":{"ha":668,"x_min":39,"x_max":619,"o":"m 413 374 l 413 226 q 401 174 413 196 q 373 138 390 151 q 335 117 356 124 q 294 111 314 111 q 239 142 256 111 q 222 215 222 172 q 247 294 222 265 q 331 336 272 324 q 371 349 349 340 q 413 374 393 358 m 63 518 l 235 518 l 235 539 q 257 610 235 583 q 324 636 279 636 q 392 612 372 636 q 413 544 413 588 q 396 488 413 507 q 336 457 379 468 l 228 428 q 142 396 178 414 q 84 351 107 378 q 50 285 61 324 q 39 194 39 247 q 49 119 39 157 q 79 50 58 81 q 135 2 100 19 q 219 -15 169 -15 q 333 2 289 -15 q 410 78 376 19 l 413 78 q 422 38 417 58 q 436 0 426 18 l 619 0 q 601 63 606 33 q 596 144 596 92 l 596 538 q 585 630 596 588 q 546 703 575 672 q 464 750 517 733 q 325 767 411 767 q 223 755 271 767 q 140 716 175 743 q 83 645 104 689 q 63 536 63 601 l 63 518 z "},"b":{"ha":694,"x_min":64,"x_max":649,"o":"m 64 992 l 64 0 l 247 0 l 247 79 l 250 79 q 322 6 282 26 q 419 -15 361 -15 q 593 75 538 -15 q 649 374 649 165 q 593 674 649 582 q 419 767 538 767 q 327 744 365 767 q 258 678 289 722 l 256 678 l 256 992 l 64 992 m 256 374 q 274 558 256 496 q 357 619 293 619 q 438 558 419 619 q 457 374 457 496 q 438 190 457 251 q 357 128 419 128 q 274 190 293 128 q 256 374 256 251 z "},"c":{"ha":643,"x_min":36,"x_max":607,"o":"m 424 478 l 607 478 q 540 689 607 611 q 339 767 472 767 q 217 749 272 767 q 121 685 161 731 q 58 565 81 640 q 36 374 36 489 q 54 185 36 261 q 108 65 72 110 q 197 2 143 19 q 322 -15 250 -15 q 541 62 475 -15 q 607 286 607 139 l 424 286 q 401 153 424 194 q 331 111 379 111 q 278 126 299 111 q 247 172 258 140 q 232 253 236 204 q 228 372 228 303 q 232 485 228 438 q 247 565 236 533 q 281 612 258 596 q 338 628 303 628 q 382 615 365 628 q 408 580 399 601 q 420 532 417 558 q 424 478 424 506 z "},"d":{"ha":694,"x_min":46,"x_max":631,"o":"m 447 79 l 447 0 l 631 0 l 631 992 l 439 992 l 439 678 l 436 678 q 367 744 406 722 q 275 767 329 767 q 101 674 157 767 q 46 374 46 582 q 101 75 46 165 q 275 -15 157 -15 q 373 6 333 -15 q 444 79 413 26 l 447 79 m 238 374 q 256 558 238 496 q 338 619 275 619 q 420 558 401 619 q 439 374 439 496 q 420 190 439 251 q 338 128 401 128 q 256 190 275 128 q 238 374 238 251 z "},"e":{"ha":643,"x_min":36,"x_max":607,"o":"m 424 458 l 228 458 l 228 488 q 233 540 228 514 q 249 588 238 567 q 278 623 260 610 q 326 636 297 636 q 374 624 356 636 q 403 590 393 613 q 418 534 414 567 q 424 458 422 501 m 228 344 l 607 344 l 607 388 q 596 544 607 474 q 554 663 585 614 q 470 740 524 713 q 333 767 417 767 q 178 735 236 767 q 88 649 119 703 q 47 525 57 594 q 36 381 36 456 q 42 239 36 310 q 76 111 49 168 q 163 19 104 54 q 325 -15 221 -15 q 526 53 463 -15 q 596 251 590 121 l 424 251 q 393 146 415 181 q 322 111 371 111 q 278 126 296 111 q 249 165 260 140 q 233 220 238 189 q 228 285 228 251 l 228 344 z "},"f":{"ha":411,"x_min":8,"x_max":408,"o":"m 106 617 l 106 0 l 297 0 l 297 617 l 408 617 l 408 747 l 297 747 l 297 813 q 314 858 297 844 q 371 872 331 872 l 389 872 q 408 871 401 872 l 408 1007 q 306 1011 357 1011 q 222 1002 260 1011 q 159 972 185 993 q 119 917 133 951 q 106 832 106 882 l 106 747 l 8 747 l 8 617 l 106 617 z "},"g":{"ha":694,"x_min":49,"x_max":624,"o":"m 240 350 q 244 477 240 425 q 258 560 247 529 q 289 606 269 592 q 340 619 308 619 q 419 563 397 619 q 440 369 440 506 q 435 283 440 322 q 419 215 431 243 q 387 172 407 188 q 336 156 367 156 q 287 172 306 156 q 258 215 268 188 q 244 276 247 242 q 240 350 240 311 m 624 747 l 440 747 l 440 664 l 438 664 q 367 744 410 722 q 283 767 324 767 q 159 732 206 767 q 88 642 113 697 q 56 519 64 588 q 49 386 49 451 q 106 95 49 182 q 278 8 164 8 q 366 33 324 8 q 438 100 408 58 l 440 100 l 440 1 q 417 -92 440 -54 q 335 -129 393 -129 q 301 -124 317 -129 q 271 -108 285 -118 q 242 -51 242 -87 l 58 -51 q 124 -199 58 -147 q 313 -251 190 -251 q 552 -179 481 -251 q 624 38 624 -107 l 624 747 z "},"h":{"ha":694,"x_min":64,"x_max":631,"o":"m 64 992 l 64 0 l 256 0 l 256 496 q 357 619 256 619 q 419 597 400 619 q 439 515 439 574 l 439 0 l 631 0 l 631 554 q 581 717 631 667 q 440 767 532 767 q 258 671 314 767 l 256 671 l 256 992 l 64 992 z "},"i":{"ha":333,"x_min":71,"x_max":263,"o":"m 71 1003 l 71 839 l 263 839 l 263 1003 l 71 1003 m 71 747 l 71 0 l 263 0 l 263 747 l 71 747 z "},"j":{"ha":333,"x_min":-31,"x_max":263,"o":"m 71 1003 l 71 839 l 263 839 l 263 1003 l 71 1003 m 71 747 l 71 14 q 59 -73 71 -44 q 0 -101 47 -101 l -15 -101 q -31 -99 -22 -101 l -31 -237 q 8 -240 -10 -239 q 43 -240 26 -240 q 149 -228 107 -240 q 217 -191 192 -215 q 252 -131 242 -167 q 263 -47 263 -94 l 263 747 l 71 747 z "},"k":{"ha":694,"x_min":71,"x_max":701,"o":"m 263 992 l 71 992 l 71 0 l 263 0 l 263 218 l 331 307 l 490 0 l 701 0 l 454 453 l 669 747 l 458 747 l 265 468 l 263 468 l 263 992 z "},"l":{"ha":333,"x_min":71,"x_max":263,"o":"m 71 992 l 71 0 l 263 0 l 263 992 l 71 992 z "},"m":{"ha":1053,"x_min":64,"x_max":989,"o":"m 64 747 l 64 0 l 256 0 l 256 492 q 283 589 256 558 q 356 619 310 619 q 413 594 396 619 q 431 522 431 569 l 431 0 l 622 0 l 622 492 q 649 589 622 558 q 722 619 676 619 q 780 594 763 619 q 797 522 797 569 l 797 0 l 989 0 l 989 543 q 944 709 989 651 q 803 767 899 767 q 685 737 735 767 q 614 647 636 707 l 611 647 q 551 736 596 706 q 439 767 506 767 q 331 744 376 767 q 250 671 286 722 l 247 671 l 247 747 l 64 747 z "},"n":{"ha":694,"x_min":64,"x_max":631,"o":"m 64 747 l 64 0 l 256 0 l 256 496 q 357 619 256 619 q 419 597 400 619 q 439 515 439 574 l 439 0 l 631 0 l 631 554 q 581 717 631 667 q 440 767 532 767 q 329 741 378 767 q 250 660 281 715 l 247 660 l 247 747 l 64 747 z "},"o":{"ha":667,"x_min":39,"x_max":628,"o":"m 231 374 q 233 479 231 431 q 247 563 236 528 q 278 617 257 597 q 333 636 299 636 q 414 575 392 636 q 436 374 436 514 q 414 172 436 233 q 333 111 392 111 q 278 131 299 111 q 247 185 257 150 q 233 268 236 219 q 231 374 231 317 m 39 374 q 53 202 39 276 q 100 78 67 128 q 190 6 133 29 q 333 -15 247 -17 q 472 8 415 -15 q 563 81 528 32 q 613 204 597 131 q 628 374 628 278 q 614 546 628 472 q 567 669 600 619 q 476 744 533 719 q 333 767 419 768 q 195 741 251 767 q 104 666 139 715 q 54 543 69 617 q 39 374 39 469 z "},"p":{"ha":694,"x_min":64,"x_max":649,"o":"m 64 747 l 64 -240 l 256 -240 l 256 69 l 258 69 q 327 5 289 25 q 419 -15 365 -15 q 593 75 538 -15 q 649 374 649 165 q 593 674 649 582 q 419 767 538 767 q 322 744 361 767 q 250 668 282 721 l 247 668 l 247 747 l 64 747 m 256 374 q 274 558 256 496 q 357 619 293 619 q 438 558 419 619 q 457 374 457 496 q 438 190 457 251 q 357 128 419 128 q 274 190 293 128 q 256 374 256 251 z "},"q":{"ha":694,"x_min":46,"x_max":631,"o":"m 439 69 l 439 -240 l 631 -240 l 631 747 l 447 747 l 447 668 l 444 668 q 373 744 413 721 q 275 767 333 767 q 101 674 157 767 q 46 374 46 582 q 101 75 46 165 q 275 -15 157 -15 q 367 5 329 -15 q 436 69 406 25 l 439 69 m 439 374 q 420 190 439 251 q 338 128 401 128 q 256 190 275 128 q 238 374 238 251 q 256 558 238 496 q 338 619 275 619 q 420 558 401 619 q 439 374 439 496 z "},"r":{"ha":463,"x_min":64,"x_max":457,"o":"m 64 747 l 64 0 l 256 0 l 256 449 q 268 512 256 486 q 301 553 281 538 q 347 576 322 569 q 397 583 372 583 q 427 583 413 583 q 457 581 442 582 l 457 764 q 440 766 449 765 q 422 767 431 767 q 321 734 363 767 q 250 647 279 701 l 247 647 l 247 747 l 64 747 z "},"s":{"ha":617,"x_min":32,"x_max":585,"o":"m 204 244 l 32 244 l 32 218 q 44 120 32 164 q 88 46 57 76 q 173 0 119 15 q 307 -15 226 -15 q 419 -3 368 -15 q 506 39 469 10 q 564 112 543 68 q 585 215 585 156 q 547 349 585 300 q 419 429 510 399 l 304 468 q 238 506 256 483 q 221 556 221 528 q 248 616 221 596 q 311 636 275 636 q 377 609 358 636 q 396 524 396 582 l 568 524 l 568 554 q 506 711 568 656 q 313 767 443 767 q 187 749 239 767 q 101 700 135 731 q 53 628 68 669 q 38 542 38 588 q 78 412 38 463 q 197 333 118 361 l 332 285 q 381 255 360 274 q 401 200 401 236 q 375 133 401 156 q 304 111 349 111 q 230 141 256 111 q 204 219 204 171 l 204 244 z "},"t":{"ha":411,"x_min":8,"x_max":408,"o":"m 106 961 l 106 747 l 8 747 l 8 617 l 106 617 l 106 189 q 113 94 106 132 q 138 34 119 57 q 192 3 157 11 q 283 -4 228 -4 q 347 -2 317 -4 q 408 0 376 0 l 408 133 q 388 131 399 132 q 365 131 376 131 q 310 149 324 131 q 297 213 297 168 l 297 617 l 408 617 l 408 747 l 297 747 l 297 961 l 106 961 z "},"u":{"ha":694,"x_min":64,"x_max":631,"o":"m 447 88 l 447 0 l 631 0 l 631 747 l 439 747 l 439 251 q 338 128 439 128 q 275 151 294 128 q 256 232 256 174 l 256 747 l 64 747 l 64 193 q 113 33 64 81 q 254 -15 163 -15 q 365 8 317 -15 q 444 88 414 32 l 447 88 z "},"v":{"ha":617,"x_min":7,"x_max":610,"o":"m 418 747 l 317 213 l 314 213 l 207 747 l 7 747 l 200 0 l 422 0 l 610 747 l 418 747 z "},"w":{"ha":978,"x_min":10,"x_max":968,"o":"m 10 747 l 172 0 l 394 0 l 488 531 l 490 531 l 589 0 l 807 0 l 968 747 l 785 747 l 694 217 l 692 217 l 593 747 l 385 747 l 292 217 l 289 217 l 201 747 l 10 747 z "},"x":{"ha":642,"x_min":10,"x_max":632,"o":"m 424 747 l 321 522 l 218 747 l 18 747 l 213 385 l 10 0 l 210 0 l 321 244 l 432 0 l 632 0 l 429 385 l 624 747 l 424 747 z "},"y":{"ha":617,"x_min":7,"x_max":610,"o":"m 64 -97 l 64 -240 l 142 -240 q 252 -231 208 -240 q 327 -190 296 -221 q 381 -101 358 -158 q 429 50 404 -43 l 610 747 l 418 747 l 321 231 l 318 231 l 207 747 l 7 747 l 217 0 q 190 -74 213 -46 q 114 -101 167 -101 q 64 -97 89 -101 z "},"z":{"ha":592,"x_min":33,"x_max":558,"o":"m 33 147 l 33 0 l 558 0 l 558 156 l 260 156 l 558 600 l 558 747 l 47 747 l 47 592 l 332 592 l 33 147 z "},"{":{"ha":438,"x_min":42,"x_max":401,"o":"m 42 425 l 42 311 q 105 279 76 311 q 133 199 133 247 l 133 -65 q 170 -203 133 -154 q 278 -251 207 -251 l 401 -251 l 401 -112 l 360 -112 q 316 -83 326 -112 q 306 -12 306 -53 l 306 214 q 278 317 306 276 q 206 367 250 358 l 206 369 q 278 419 250 378 q 306 522 306 460 l 306 753 q 316 823 306 793 q 360 853 326 853 l 401 853 l 401 992 l 278 992 q 170 943 207 992 q 133 806 133 894 l 133 538 q 105 457 133 489 q 42 425 76 425 z "},"|":{"ha":308,"x_min":68,"x_max":240,"o":"m 68 1011 l 68 -15 l 240 -15 l 240 1011 l 68 1011 z "},"}":{"ha":438,"x_min":36,"x_max":396,"o":"m 36 -112 l 36 -251 l 160 -251 q 267 -203 231 -251 q 304 -65 304 -154 l 304 199 q 333 279 304 247 q 396 311 361 311 l 396 425 q 333 457 361 425 q 304 538 304 489 l 304 806 q 267 943 304 894 q 160 992 231 992 l 36 992 l 36 853 l 78 853 q 122 823 111 853 q 132 753 132 793 l 132 522 q 160 419 132 460 q 232 369 188 378 l 232 367 q 160 317 188 358 q 132 214 132 276 l 132 -12 q 122 -83 132 -53 q 78 -112 111 -112 l 36 -112 z "},"~":{"ha":833,"x_min":96,"x_max":738,"o":"m 738 338 l 688 485 q 669 456 682 472 q 640 424 657 439 q 603 400 622 410 q 563 390 583 390 q 504 402 533 390 q 418 444 475 414 q 267 485 340 485 q 164 451 204 485 q 96 365 124 418 l 146 218 q 164 247 151 231 q 194 278 176 264 q 231 303 211 293 q 271 313 250 313 q 293 311 282 313 q 319 304 304 310 q 353 290 333 299 q 403 265 374 281 q 481 231 443 244 q 567 218 519 218 q 669 251 629 218 q 738 338 710 285 z "},"Ä":{"ha":772,"x_min":0,"x_max":772,"o":"m 428 1226 l 428 1063 l 583 1063 l 583 1226 l 428 1226 m 189 1226 l 189 1063 l 344 1063 l 344 1226 l 189 1226 m 289 374 l 385 819 l 388 819 l 483 374 l 289 374 m 263 992 l 0 0 l 208 0 l 254 210 l 518 210 l 564 0 l 772 0 l 510 992 l 263 992 z "},"Å":{"ha":772,"x_min":0,"x_max":772,"o":"m 306 1176 q 329 1233 306 1210 q 386 1257 353 1257 q 443 1233 419 1257 q 467 1176 467 1210 q 443 1119 467 1143 q 386 1096 419 1096 q 329 1119 353 1096 q 306 1176 306 1143 m 228 1176 q 240 1115 228 1143 q 274 1065 253 1086 q 324 1031 296 1043 q 386 1018 353 1018 q 448 1031 419 1018 q 498 1065 476 1043 q 532 1115 519 1086 q 544 1176 544 1143 q 532 1238 544 1210 q 498 1288 519 1267 q 448 1322 476 1310 q 386 1335 419 1335 q 324 1322 353 1335 q 274 1288 296 1310 q 240 1238 253 1267 q 228 1176 228 1210 m 289 374 l 385 819 l 388 819 l 483 374 l 289 374 m 263 992 l 0 0 l 208 0 l 254 210 l 518 210 l 564 0 l 772 0 l 510 992 l 263 992 z "},"Ç":{"ha":746,"x_min":49,"x_max":701,"o":"m 363 -15 l 297 -124 l 328 -151 q 349 -145 339 -147 q 375 -143 360 -143 q 419 -156 403 -143 q 436 -190 436 -169 q 416 -224 436 -210 q 367 -237 396 -237 q 313 -231 340 -237 q 271 -217 286 -225 l 244 -281 q 299 -299 261 -290 q 383 -307 338 -307 q 513 -273 468 -307 q 558 -176 558 -239 q 548 -133 558 -151 q 521 -101 538 -114 q 483 -81 504 -87 q 442 -74 463 -74 q 419 -76 429 -74 q 396 -81 408 -78 l 438 -14 q 571 28 519 -6 q 651 115 622 61 q 691 236 681 168 q 701 379 701 304 l 501 379 q 492 249 501 299 q 465 173 482 200 q 426 137 449 146 q 376 128 403 128 q 320 141 344 128 q 280 192 296 154 q 256 300 264 231 q 249 482 249 369 q 254 660 249 588 q 274 778 260 733 q 312 844 288 824 q 374 864 336 864 q 467 815 442 864 q 493 657 493 765 l 693 657 q 685 773 693 711 q 647 888 678 835 q 555 976 617 942 q 386 1011 493 1011 q 207 973 274 1011 q 105 867 140 935 q 59 703 69 799 q 49 496 49 608 q 58 294 49 386 q 101 133 68 201 q 196 27 133 65 q 363 -15 258 -11 z "},"É":{"ha":668,"x_min":69,"x_max":638,"o":"m 336 1250 l 261 1050 l 392 1050 l 528 1250 l 336 1250 m 624 992 l 69 992 l 69 0 l 638 0 l 638 164 l 269 164 l 269 431 l 603 431 l 603 594 l 269 594 l 269 828 l 624 828 l 624 992 z "},"Ñ":{"ha":797,"x_min":69,"x_max":728,"o":"m 181 1063 l 278 1063 q 322 1113 289 1113 q 358 1105 339 1113 q 399 1089 378 1097 q 443 1073 421 1081 q 488 1065 465 1065 q 575 1114 540 1065 q 617 1238 610 1163 l 517 1238 q 507 1206 517 1224 q 478 1188 497 1188 q 436 1196 457 1188 l 369 1225 q 310 1235 349 1235 q 224 1190 257 1235 q 181 1063 192 1146 m 300 992 l 69 992 l 69 0 l 253 0 l 253 694 l 256 694 l 500 0 l 728 0 l 728 992 l 544 992 l 544 313 l 542 313 l 300 992 z "},"Ö":{"ha":772,"x_min":49,"x_max":724,"o":"m 428 1226 l 428 1063 l 583 1063 l 583 1226 l 428 1226 m 189 1226 l 189 1063 l 344 1063 l 344 1226 l 189 1226 m 249 496 q 253 665 249 596 q 273 779 258 735 q 315 844 288 824 q 386 864 342 864 q 458 844 431 864 q 499 779 485 824 q 519 665 514 735 q 524 496 524 596 q 519 326 524 396 q 499 212 514 256 q 458 148 485 168 q 386 128 431 128 q 315 148 342 128 q 273 212 288 168 q 253 326 258 256 q 249 496 249 396 m 49 496 q 59 288 49 382 q 105 125 69 193 q 207 21 140 57 q 386 -15 274 -15 q 565 21 499 -15 q 667 125 632 57 q 713 288 703 193 q 724 496 724 382 q 713 703 724 608 q 667 867 703 799 q 565 973 632 935 q 386 1011 499 1011 q 207 973 274 1011 q 105 867 140 935 q 59 703 69 799 q 49 496 49 608 z "},"Ü":{"ha":747,"x_min":57,"x_max":690,"o":"m 415 1226 l 415 1063 l 571 1063 l 571 1226 l 415 1226 m 176 1226 l 176 1063 l 332 1063 l 332 1226 l 176 1226 m 257 992 l 57 992 l 57 300 q 83 138 57 200 q 154 41 110 75 q 256 -4 199 7 q 374 -15 313 -15 q 492 -3 435 -15 q 593 46 549 10 q 664 144 638 82 q 690 300 690 206 l 690 992 l 490 992 l 490 300 q 485 231 490 263 q 467 177 481 200 q 432 141 454 154 q 374 128 410 128 q 316 141 339 128 q 280 177 293 154 q 262 231 267 200 q 257 300 257 263 l 257 992 z "},"á":{"ha":668,"x_min":39,"x_max":619,"o":"m 319 1035 l 244 835 l 375 835 l 511 1035 l 319 1035 m 413 374 l 413 226 q 401 174 413 196 q 373 138 390 151 q 335 117 356 124 q 294 111 314 111 q 239 142 256 111 q 222 215 222 172 q 247 294 222 265 q 331 336 272 324 q 371 349 349 340 q 413 374 393 358 m 63 518 l 235 518 l 235 539 q 257 610 235 583 q 324 636 279 636 q 392 612 372 636 q 413 544 413 588 q 396 488 413 507 q 336 457 379 468 l 228 428 q 142 396 178 414 q 84 351 107 378 q 50 285 61 324 q 39 194 39 247 q 49 119 39 157 q 79 50 58 81 q 135 2 100 19 q 219 -15 169 -15 q 333 2 289 -15 q 410 78 376 19 l 413 78 q 422 38 417 58 q 436 0 426 18 l 619 0 q 601 63 606 33 q 596 144 596 92 l 596 538 q 585 630 596 588 q 546 703 575 672 q 464 750 517 733 q 325 767 411 767 q 223 755 271 767 q 140 716 175 743 q 83 645 104 689 q 63 536 63 601 l 63 518 z "},"à":{"ha":668,"x_min":39,"x_max":619,"o":"m 294 835 l 425 835 l 350 1035 l 158 1035 l 294 835 m 413 374 l 413 226 q 401 174 413 196 q 373 138 390 151 q 335 117 356 124 q 294 111 314 111 q 239 142 256 111 q 222 215 222 172 q 247 294 222 265 q 331 336 272 324 q 371 349 349 340 q 413 374 393 358 m 63 518 l 235 518 l 235 539 q 257 610 235 583 q 324 636 279 636 q 392 612 372 636 q 413 544 413 588 q 396 488 413 507 q 336 457 379 468 l 228 428 q 142 396 178 414 q 84 351 107 378 q 50 285 61 324 q 39 194 39 247 q 49 119 39 157 q 79 50 58 81 q 135 2 100 19 q 219 -15 169 -15 q 333 2 289 -15 q 410 78 376 19 l 413 78 q 422 38 417 58 q 436 0 426 18 l 619 0 q 601 63 606 33 q 596 144 596 92 l 596 538 q 585 630 596 588 q 546 703 575 672 q 464 750 517 733 q 325 767 411 767 q 223 755 271 767 q 140 716 175 743 q 83 645 104 689 q 63 536 63 601 l 63 518 z "},"â":{"ha":668,"x_min":39,"x_max":619,"o":"m 235 1035 l 126 835 l 265 835 l 332 953 l 396 835 l 543 835 l 435 1035 l 235 1035 m 413 374 l 413 226 q 401 174 413 196 q 373 138 390 151 q 335 117 356 124 q 294 111 314 111 q 239 142 256 111 q 222 215 222 172 q 247 294 222 265 q 331 336 272 324 q 371 349 349 340 q 413 374 393 358 m 63 518 l 235 518 l 235 539 q 257 610 235 583 q 324 636 279 636 q 392 612 372 636 q 413 544 413 588 q 396 488 413 507 q 336 457 379 468 l 228 428 q 142 396 178 414 q 84 351 107 378 q 50 285 61 324 q 39 194 39 247 q 49 119 39 157 q 79 50 58 81 q 135 2 100 19 q 219 -15 169 -15 q 333 2 289 -15 q 410 78 376 19 l 413 78 q 422 38 417 58 q 436 0 426 18 l 619 0 q 601 63 606 33 q 596 144 596 92 l 596 538 q 585 630 596 588 q 546 703 575 672 q 464 750 517 733 q 325 767 411 767 q 223 755 271 767 q 140 716 175 743 q 83 645 104 689 q 63 536 63 601 l 63 518 z "},"ä":{"ha":668,"x_min":39,"x_max":619,"o":"m 376 1011 l 376 847 l 532 847 l 532 1011 l 376 1011 m 138 1011 l 138 847 l 293 847 l 293 1011 l 138 1011 m 413 374 l 413 226 q 401 174 413 196 q 373 138 390 151 q 335 117 356 124 q 294 111 314 111 q 239 142 256 111 q 222 215 222 172 q 247 294 222 265 q 331 336 272 324 q 371 349 349 340 q 413 374 393 358 m 63 518 l 235 518 l 235 539 q 257 610 235 583 q 324 636 279 636 q 392 612 372 636 q 413 544 413 588 q 396 488 413 507 q 336 457 379 468 l 228 428 q 142 396 178 414 q 84 351 107 378 q 50 285 61 324 q 39 194 39 247 q 49 119 39 157 q 79 50 58 81 q 135 2 100 19 q 219 -15 169 -15 q 333 2 289 -15 q 410 78 376 19 l 413 78 q 422 38 417 58 q 436 0 426 18 l 619 0 q 601 63 606 33 q 596 144 596 92 l 596 538 q 585 630 596 588 q 546 703 575 672 q 464 750 517 733 q 325 767 411 767 q 223 755 271 767 q 140 716 175 743 q 83 645 104 689 q 63 536 63 601 l 63 518 z "},"ã":{"ha":668,"x_min":39,"x_max":619,"o":"m 117 847 l 214 847 q 258 897 225 897 q 294 890 275 897 q 335 874 314 882 q 379 858 357 865 q 424 850 401 850 q 511 899 476 850 q 553 1022 546 947 l 453 1022 q 443 990 453 1008 q 414 972 433 972 q 372 981 393 972 l 306 1010 q 246 1019 285 1019 q 160 975 193 1019 q 117 847 128 931 m 413 374 l 413 226 q 401 174 413 196 q 373 138 390 151 q 335 117 356 124 q 294 111 314 111 q 239 142 256 111 q 222 215 222 172 q 247 294 222 265 q 331 336 272 324 q 371 349 349 340 q 413 374 393 358 m 63 518 l 235 518 l 235 539 q 257 610 235 583 q 324 636 279 636 q 392 612 372 636 q 413 544 413 588 q 396 488 413 507 q 336 457 379 468 l 228 428 q 142 396 178 414 q 84 351 107 378 q 50 285 61 324 q 39 194 39 247 q 49 119 39 157 q 79 50 58 81 q 135 2 100 19 q 219 -15 169 -15 q 333 2 289 -15 q 410 78 376 19 l 413 78 q 422 38 417 58 q 436 0 426 18 l 619 0 q 601 63 606 33 q 596 144 596 92 l 596 538 q 585 630 596 588 q 546 703 575 672 q 464 750 517 733 q 325 767 411 767 q 223 755 271 767 q 140 716 175 743 q 83 645 104 689 q 63 536 63 601 l 63 518 z "},"å":{"ha":668,"x_min":39,"x_max":619,"o":"m 254 969 q 278 1026 254 1003 q 335 1050 301 1050 q 392 1026 368 1050 q 415 969 415 1003 q 392 913 415 936 q 335 889 368 889 q 278 913 301 889 q 254 969 254 936 m 176 969 q 189 908 176 936 q 223 858 201 879 q 273 824 244 836 q 335 811 301 811 q 397 824 368 811 q 447 858 425 836 q 481 908 468 879 q 493 969 493 936 q 481 1031 493 1003 q 447 1081 468 1060 q 397 1115 425 1103 q 335 1128 368 1128 q 273 1115 301 1128 q 223 1081 244 1103 q 189 1031 201 1060 q 176 969 176 1003 m 413 374 l 413 226 q 401 174 413 196 q 373 138 390 151 q 335 117 356 124 q 294 111 314 111 q 239 142 256 111 q 222 215 222 172 q 247 294 222 265 q 331 336 272 324 q 371 349 349 340 q 413 374 393 358 m 63 518 l 235 518 l 235 539 q 257 610 235 583 q 324 636 279 636 q 392 612 372 636 q 413 544 413 588 q 396 488 413 507 q 336 457 379 468 l 228 428 q 142 396 178 414 q 84 351 107 378 q 50 285 61 324 q 39 194 39 247 q 49 119 39 157 q 79 50 58 81 q 135 2 100 19 q 219 -15 169 -15 q 333 2 289 -15 q 410 78 376 19 l 413 78 q 422 38 417 58 q 436 0 426 18 l 619 0 q 601 63 606 33 q 596 144 596 92 l 596 538 q 585 630 596 588 q 546 703 575 672 q 464 750 517 733 q 325 767 411 767 q 223 755 271 767 q 140 716 175 743 q 83 645 104 689 q 63 536 63 601 l 63 518 z "},"ç":{"ha":643,"x_min":36,"x_max":607,"o":"m 303 -15 l 238 -124 l 268 -151 q 290 -145 279 -147 q 315 -143 300 -143 q 360 -156 343 -143 q 376 -190 376 -169 q 356 -224 376 -210 q 307 -237 336 -237 q 253 -231 281 -237 q 211 -217 226 -225 l 185 -281 q 240 -299 201 -290 q 324 -307 278 -307 q 453 -273 408 -307 q 499 -176 499 -239 q 488 -133 499 -151 q 461 -101 478 -114 q 424 -81 444 -87 q 382 -74 403 -74 q 359 -76 369 -74 q 336 -81 349 -78 l 379 -12 q 554 76 501 0 q 607 286 607 151 l 424 286 q 401 153 424 194 q 331 111 379 111 q 278 126 299 111 q 247 172 258 140 q 232 253 236 204 q 228 372 228 303 q 232 485 228 438 q 247 565 236 533 q 281 612 258 596 q 338 628 303 628 q 382 615 365 628 q 408 580 399 601 q 420 532 417 558 q 424 478 424 506 l 607 478 q 540 689 607 611 q 339 767 472 767 q 217 749 272 767 q 121 685 161 731 q 58 565 81 640 q 36 374 36 489 q 53 190 36 264 q 103 71 69 117 q 186 6 136 25 q 303 -15 236 -12 z "},"é":{"ha":643,"x_min":36,"x_max":607,"o":"m 307 1035 l 232 835 l 363 835 l 499 1035 l 307 1035 m 424 458 l 228 458 l 228 488 q 233 540 228 514 q 249 588 238 567 q 278 623 260 610 q 326 636 297 636 q 374 624 356 636 q 403 590 393 613 q 418 534 414 567 q 424 458 422 501 m 228 344 l 607 344 l 607 388 q 596 544 607 474 q 554 663 585 614 q 470 740 524 713 q 333 767 417 767 q 178 735 236 767 q 88 649 119 703 q 47 525 57 594 q 36 381 36 456 q 42 239 36 310 q 76 111 49 168 q 163 19 104 54 q 325 -15 221 -15 q 526 53 463 -15 q 596 251 590 121 l 424 251 q 393 146 415 181 q 322 111 371 111 q 278 126 296 111 q 249 165 260 140 q 233 220 238 189 q 228 285 228 251 l 228 344 z "},"è":{"ha":643,"x_min":36,"x_max":607,"o":"m 282 835 l 413 835 l 338 1035 l 146 1035 l 282 835 m 424 458 l 228 458 l 228 488 q 233 540 228 514 q 249 588 238 567 q 278 623 260 610 q 326 636 297 636 q 374 624 356 636 q 403 590 393 613 q 418 534 414 567 q 424 458 422 501 m 228 344 l 607 344 l 607 388 q 596 544 607 474 q 554 663 585 614 q 470 740 524 713 q 333 767 417 767 q 178 735 236 767 q 88 649 119 703 q 47 525 57 594 q 36 381 36 456 q 42 239 36 310 q 76 111 49 168 q 163 19 104 54 q 325 -15 221 -15 q 526 53 463 -15 q 596 251 590 121 l 424 251 q 393 146 415 181 q 322 111 371 111 q 278 126 296 111 q 249 165 260 140 q 233 220 238 189 q 228 285 228 251 l 228 344 z "},"ê":{"ha":643,"x_min":36,"x_max":607,"o":"m 222 1035 l 114 835 l 253 835 l 319 953 l 383 835 l 531 835 l 422 1035 l 222 1035 m 424 458 l 228 458 l 228 488 q 233 540 228 514 q 249 588 238 567 q 278 623 260 610 q 326 636 297 636 q 374 624 356 636 q 403 590 393 613 q 418 534 414 567 q 424 458 422 501 m 228 344 l 607 344 l 607 388 q 596 544 607 474 q 554 663 585 614 q 470 740 524 713 q 333 767 417 767 q 178 735 236 767 q 88 649 119 703 q 47 525 57 594 q 36 381 36 456 q 42 239 36 310 q 76 111 49 168 q 163 19 104 54 q 325 -15 221 -15 q 526 53 463 -15 q 596 251 590 121 l 424 251 q 393 146 415 181 q 322 111 371 111 q 278 126 296 111 q 249 165 260 140 q 233 220 238 189 q 228 285 228 251 l 228 344 z "},"ë":{"ha":643,"x_min":36,"x_max":607,"o":"m 364 1011 l 364 847 l 519 847 l 519 1011 l 364 1011 m 125 1011 l 125 847 l 281 847 l 281 1011 l 125 1011 m 424 458 l 228 458 l 228 488 q 233 540 228 514 q 249 588 238 567 q 278 623 260 610 q 326 636 297 636 q 374 624 356 636 q 403 590 393 613 q 418 534 414 567 q 424 458 422 501 m 228 344 l 607 344 l 607 388 q 596 544 607 474 q 554 663 585 614 q 470 740 524 713 q 333 767 417 767 q 178 735 236 767 q 88 649 119 703 q 47 525 57 594 q 36 381 36 456 q 42 239 36 310 q 76 111 49 168 q 163 19 104 54 q 325 -15 221 -15 q 526 53 463 -15 q 596 251 590 121 l 424 251 q 393 146 415 181 q 322 111 371 111 q 278 126 296 111 q 249 165 260 140 q 233 220 238 189 q 228 285 228 251 l 228 344 z "},"í":{"ha":333,"x_min":71,"x_max":343,"o":"m 151 1035 l 76 835 l 207 835 l 343 1035 l 151 1035 m 71 747 l 71 0 l 263 0 l 263 747 l 71 747 z "},"ì":{"ha":333,"x_min":-6,"x_max":263,"o":"m 126 835 l 257 835 l 182 1035 l -6 1035 l 126 835 m 71 747 l 71 0 l 263 0 l 263 747 l 71 747 z "},"î":{"ha":333,"x_min":-37,"x_max":375,"o":"m 67 1035 l -37 835 l 97 835 l 164 953 l 228 835 l 375 835 l 267 1035 l 67 1035 m 71 747 l 71 0 l 263 0 l 263 747 l 71 747 z "},"ï":{"ha":333,"x_min":-26,"x_max":364,"o":"m 208 1011 l 208 847 l 364 847 l 364 1011 l 208 1011 m -26 1011 l -26 847 l 125 847 l 125 1011 l -26 1011 m 71 747 l 71 0 l 263 0 l 263 747 l 71 747 z "},"ñ":{"ha":694,"x_min":64,"x_max":631,"o":"m 129 847 l 226 847 q 271 897 238 897 q 307 890 288 897 q 348 874 326 882 q 392 858 369 865 q 436 850 414 850 q 524 899 489 850 q 565 1022 558 947 l 465 1022 q 456 990 465 1008 q 426 972 446 972 q 385 981 406 972 l 318 1010 q 258 1019 297 1019 q 173 975 206 1019 q 129 847 140 931 m 64 747 l 64 0 l 256 0 l 256 496 q 357 619 256 619 q 419 597 400 619 q 439 515 439 574 l 439 0 l 631 0 l 631 554 q 581 717 631 667 q 440 767 532 767 q 329 741 378 767 q 250 660 281 715 l 247 660 l 247 747 l 64 747 z "},"ó":{"ha":667,"x_min":39,"x_max":628,"o":"m 318 1035 l 243 835 l 374 835 l 510 1035 l 318 1035 m 231 374 q 233 479 231 431 q 247 563 236 528 q 278 617 257 597 q 333 636 299 636 q 414 575 392 636 q 436 374 436 514 q 414 172 436 233 q 333 111 392 111 q 278 131 299 111 q 247 185 257 150 q 233 268 236 219 q 231 374 231 317 m 39 374 q 53 202 39 276 q 100 78 67 128 q 190 6 133 29 q 333 -15 247 -17 q 472 8 415 -15 q 563 81 528 32 q 613 204 597 131 q 628 374 628 278 q 614 546 628 472 q 567 669 600 619 q 476 744 533 719 q 333 767 419 768 q 195 741 251 767 q 104 666 139 715 q 54 543 69 617 q 39 374 39 469 z "},"ò":{"ha":667,"x_min":39,"x_max":628,"o":"m 293 835 l 424 835 l 349 1035 l 157 1035 l 293 835 m 231 374 q 233 479 231 431 q 247 563 236 528 q 278 617 257 597 q 333 636 299 636 q 414 575 392 636 q 436 374 436 514 q 414 172 436 233 q 333 111 392 111 q 278 131 299 111 q 247 185 257 150 q 233 268 236 219 q 231 374 231 317 m 39 374 q 53 202 39 276 q 100 78 67 128 q 190 6 133 29 q 333 -15 247 -17 q 472 8 415 -15 q 563 81 528 32 q 613 204 597 131 q 628 374 628 278 q 614 546 628 472 q 567 669 600 619 q 476 744 533 719 q 333 767 419 768 q 195 741 251 767 q 104 666 139 715 q 54 543 69 617 q 39 374 39 469 z "},"ô":{"ha":667,"x_min":39,"x_max":628,"o":"m 233 1035 l 125 835 l 264 835 l 331 953 l 394 835 l 542 835 l 433 1035 l 233 1035 m 231 374 q 233 479 231 431 q 247 563 236 528 q 278 617 257 597 q 333 636 299 636 q 414 575 392 636 q 436 374 436 514 q 414 172 436 233 q 333 111 392 111 q 278 131 299 111 q 247 185 257 150 q 233 268 236 219 q 231 374 231 317 m 39 374 q 53 202 39 276 q 100 78 67 128 q 190 6 133 29 q 333 -15 247 -17 q 472 8 415 -15 q 563 81 528 32 q 613 204 597 131 q 628 374 628 278 q 614 546 628 472 q 567 669 600 619 q 476 744 533 719 q 333 767 419 768 q 195 741 251 767 q 104 666 139 715 q 54 543 69 617 q 39 374 39 469 z "},"ö":{"ha":667,"x_min":39,"x_max":628,"o":"m 375 1011 l 375 847 l 531 847 l 531 1011 l 375 1011 m 136 1011 l 136 847 l 292 847 l 292 1011 l 136 1011 m 231 374 q 233 479 231 431 q 247 563 236 528 q 278 617 257 597 q 333 636 299 636 q 414 575 392 636 q 436 374 436 514 q 414 172 436 233 q 333 111 392 111 q 278 131 299 111 q 247 185 257 150 q 233 268 236 219 q 231 374 231 317 m 39 374 q 53 202 39 276 q 100 78 67 128 q 190 6 133 29 q 333 -15 247 -17 q 472 8 415 -15 q 563 81 528 32 q 613 204 597 131 q 628 374 628 278 q 614 546 628 472 q 567 669 600 619 q 476 744 533 719 q 333 767 419 768 q 195 741 251 767 q 104 666 139 715 q 54 543 69 617 q 39 374 39 469 z "},"õ":{"ha":667,"x_min":39,"x_max":628,"o":"m 115 847 l 213 847 q 257 897 224 897 q 293 890 274 897 q 334 874 313 882 q 378 858 356 865 q 422 850 400 850 q 510 899 475 850 q 551 1022 544 947 l 451 1022 q 442 990 451 1008 q 413 972 432 972 q 371 981 392 972 l 304 1010 q 244 1019 283 1019 q 159 975 192 1019 q 115 847 126 931 m 231 374 q 233 479 231 431 q 247 563 236 528 q 278 617 257 597 q 333 636 299 636 q 414 575 392 636 q 436 374 436 514 q 414 172 436 233 q 333 111 392 111 q 278 131 299 111 q 247 185 257 150 q 233 268 236 219 q 231 374 231 317 m 39 374 q 53 202 39 276 q 100 78 67 128 q 190 6 133 29 q 333 -15 247 -17 q 472 8 415 -15 q 563 81 528 32 q 613 204 597 131 q 628 374 628 278 q 614 546 628 472 q 567 669 600 619 q 476 744 533 719 q 333 767 419 768 q 195 741 251 767 q 104 666 139 715 q 54 543 69 617 q 39 374 39 469 z "},"ú":{"ha":694,"x_min":64,"x_max":631,"o":"m 332 1035 l 257 835 l 388 835 l 524 1035 l 332 1035 m 447 88 l 447 0 l 631 0 l 631 747 l 439 747 l 439 251 q 338 128 439 128 q 275 151 294 128 q 256 232 256 174 l 256 747 l 64 747 l 64 193 q 113 33 64 81 q 254 -15 163 -15 q 365 8 317 -15 q 444 88 414 32 l 447 88 z "},"ù":{"ha":694,"x_min":64,"x_max":631,"o":"m 307 835 l 438 835 l 363 1035 l 171 1035 l 307 835 m 447 88 l 447 0 l 631 0 l 631 747 l 439 747 l 439 251 q 338 128 439 128 q 275 151 294 128 q 256 232 256 174 l 256 747 l 64 747 l 64 193 q 113 33 64 81 q 254 -15 163 -15 q 365 8 317 -15 q 444 88 414 32 l 447 88 z "},"û":{"ha":694,"x_min":64,"x_max":631,"o":"m 247 1035 l 139 835 l 278 835 l 344 953 l 408 835 l 556 835 l 447 1035 l 247 1035 m 447 88 l 447 0 l 631 0 l 631 747 l 439 747 l 439 251 q 338 128 439 128 q 275 151 294 128 q 256 232 256 174 l 256 747 l 64 747 l 64 193 q 113 33 64 81 q 254 -15 163 -15 q 365 8 317 -15 q 444 88 414 32 l 447 88 z "},"ü":{"ha":694,"x_min":64,"x_max":631,"o":"m 389 1011 l 389 847 l 544 847 l 544 1011 l 389 1011 m 150 1011 l 150 847 l 306 847 l 306 1011 l 150 1011 m 447 88 l 447 0 l 631 0 l 631 747 l 439 747 l 439 251 q 338 128 439 128 q 275 151 294 128 q 256 232 256 174 l 256 747 l 64 747 l 64 193 q 113 33 64 81 q 254 -15 163 -15 q 365 8 317 -15 q 444 88 414 32 l 447 88 z "},"†":{"ha":667,"x_min":4,"x_max":663,"o":"m 238 992 l 238 717 l 4 717 l 4 561 l 238 561 l 238 -187 l 429 -187 l 429 561 l 663 561 l 663 717 l 429 717 l 429 992 l 238 992 z "},"°":{"ha":556,"x_min":72,"x_max":483,"o":"m 178 778 q 207 849 178 819 q 278 878 236 878 q 349 849 319 878 q 378 778 378 819 q 349 707 378 736 q 278 678 319 678 q 207 707 236 678 q 178 778 178 736 m 72 778 q 88 697 72 735 q 132 632 104 660 q 197 588 160 604 q 278 572 235 572 q 358 588 321 572 q 424 632 396 604 q 467 697 451 660 q 483 778 483 735 q 467 858 483 821 q 424 924 451 896 q 358 967 396 951 q 278 983 321 983 q 197 967 235 983 q 132 924 160 951 q 88 858 104 896 q 72 778 72 821 z "},"¢":{"ha":667,"x_min":46,"x_max":621,"o":"m 308 -15 l 308 -137 l 381 -137 l 381 -15 q 565 76 510 0 q 621 290 621 151 l 438 290 q 436 244 438 269 q 429 196 435 219 q 413 152 424 172 q 381 119 401 132 l 381 628 q 411 605 400 621 q 428 569 422 589 q 435 527 433 550 q 438 483 438 504 l 621 483 q 600 622 621 568 q 545 706 579 675 q 468 751 511 738 q 381 767 425 764 l 381 872 l 308 872 l 308 767 q 174 726 225 760 q 94 640 122 693 q 56 517 65 586 q 46 368 46 447 q 66 178 46 251 q 122 62 86 104 q 205 3 157 19 q 308 -15 253 -12 m 308 628 l 308 119 q 267 153 282 128 q 247 215 253 179 q 239 292 240 250 q 238 376 238 335 q 250 548 238 485 q 308 628 263 611 z "},"£":{"ha":667,"x_min":7,"x_max":660,"o":"m 13 539 l 13 425 l 154 425 q 169 357 169 386 q 124 222 169 286 q 7 111 79 157 l 64 -4 q 135 22 106 13 q 200 31 165 31 q 266 23 232 31 q 333 8 300 15 q 397 -8 367 0 q 453 -15 428 -15 q 660 47 557 -15 l 599 178 q 515 133 553 147 q 454 119 476 119 q 415 126 436 119 q 372 140 393 132 q 330 155 350 149 q 296 161 310 161 q 260 158 281 161 q 233 151 240 154 l 228 154 q 325 261 297 213 q 353 371 353 310 q 346 425 353 404 l 542 425 l 542 539 l 310 539 l 271 618 q 243 693 251 658 q 235 743 235 728 q 260 819 235 785 q 351 853 286 853 q 403 840 382 853 q 436 806 424 828 q 454 756 449 785 q 460 696 460 728 l 643 696 q 562 915 640 847 q 340 983 483 983 q 210 964 265 983 q 117 911 154 944 q 61 833 79 878 q 43 736 43 788 q 106 539 43 660 l 13 539 z "},"§":{"ha":668,"x_min":18,"x_max":650,"o":"m 367 303 l 229 378 q 194 412 206 390 q 182 453 182 433 q 200 506 182 479 q 258 557 218 533 l 392 486 q 465 433 444 458 q 486 372 486 408 q 472 324 486 350 q 421 268 457 299 q 395 286 408 278 q 367 303 382 294 m 236 51 l 53 51 l 53 31 q 122 -142 53 -76 q 333 -207 190 -207 q 542 -149 468 -207 q 617 32 617 -90 q 597 135 617 94 q 542 204 576 176 q 586 241 567 218 q 620 291 606 264 q 642 347 635 318 q 650 401 650 376 q 606 544 650 492 q 497 628 561 597 l 332 706 q 263 753 283 729 q 243 801 243 778 q 266 858 243 835 q 329 881 289 881 q 406 854 385 881 q 425 786 425 828 l 608 786 q 594 876 608 835 q 547 948 579 918 q 465 994 515 978 q 344 1011 415 1011 q 233 999 285 1011 q 142 958 181 986 q 82 888 104 931 q 60 782 60 844 q 143 624 60 686 q 51 543 85 594 q 18 425 18 492 q 52 303 18 358 q 165 211 86 249 l 336 129 q 405 78 385 106 q 425 13 425 51 q 403 -47 425 -18 q 333 -76 382 -76 q 264 -47 292 -76 q 236 31 236 -18 l 236 51 z "},"•":{"ha":694,"x_min":100,"x_max":594,"o":"m 100 496 q 119 399 100 444 q 172 321 139 354 q 251 268 206 288 q 347 249 296 249 q 444 268 399 249 q 522 321 489 288 q 575 399 556 354 q 594 496 594 444 q 575 592 594 547 q 522 671 556 638 q 444 724 489 704 q 347 743 399 743 q 251 724 296 743 q 172 671 206 704 q 119 592 139 638 q 100 496 100 547 z "},"¶":{"ha":667,"x_min":1,"x_max":649,"o":"m 253 465 l 253 -187 l 400 -187 l 400 861 l 501 861 l 501 -187 l 649 -187 l 649 992 l 276 992 q 165 980 215 992 q 78 938 114 968 q 22 855 42 907 q 1 724 1 803 q 65 531 1 597 q 253 465 128 465 z "},"ß":{"ha":694,"x_min":57,"x_max":656,"o":"m 57 0 l 249 0 l 249 728 q 267 838 249 794 q 342 881 285 881 q 387 870 369 881 q 415 842 404 860 q 429 803 425 825 q 433 756 433 781 q 413 660 433 697 q 342 624 392 624 l 318 624 l 318 493 l 353 493 q 440 447 417 493 q 464 325 464 401 q 460 240 464 278 q 442 176 456 203 q 406 136 429 150 q 344 122 382 122 q 315 128 328 122 l 315 0 q 357 -3 331 -1 q 407 -4 383 -4 q 535 23 486 -4 q 610 95 583 50 q 647 194 638 140 q 656 300 656 249 q 620 483 656 413 q 501 567 585 553 l 501 569 q 562 604 538 585 q 600 649 586 624 q 619 704 614 674 q 625 774 625 735 q 555 951 625 892 q 351 1011 485 1011 q 128 945 200 1011 q 57 732 57 879 l 57 0 z "},"®":{"ha":1111,"x_min":40,"x_max":1071,"o":"m 196 496 q 223 638 196 571 q 298 756 250 706 q 412 835 346 806 q 556 864 478 864 q 699 835 633 864 q 813 756 765 806 q 888 638 861 706 q 915 496 915 571 q 888 353 915 421 q 813 236 861 286 q 699 157 765 186 q 556 128 633 128 q 412 157 478 128 q 298 236 346 186 q 223 353 250 286 q 196 496 196 421 m 40 496 q 81 295 40 389 q 191 132 121 201 q 355 24 261 63 q 556 -15 449 -15 q 756 24 663 -15 q 920 132 850 63 q 1031 295 990 201 q 1071 496 1071 389 q 1031 697 1071 603 q 920 860 990 790 q 756 971 850 931 q 556 1011 663 1011 q 355 971 449 1011 q 191 860 261 931 q 81 697 121 790 q 40 496 40 603 m 476 539 l 476 676 l 557 676 q 592 674 574 676 q 627 665 611 672 q 653 645 643 658 q 663 608 663 632 q 636 551 663 564 q 569 539 610 539 l 476 539 m 354 774 l 354 218 l 476 218 l 476 442 l 521 442 l 651 218 l 785 218 l 647 447 q 745 492 706 454 q 785 601 785 531 q 732 729 785 685 q 571 774 679 774 l 354 774 z "},"©":{"ha":1111,"x_min":40,"x_max":1071,"o":"m 40 496 q 81 295 40 389 q 191 132 121 201 q 355 24 261 63 q 556 -15 449 -15 q 756 24 663 -15 q 920 132 850 63 q 1031 295 990 201 q 1071 496 1071 389 q 1031 697 1071 603 q 920 860 990 790 q 756 971 850 931 q 556 1011 663 1011 q 355 971 449 1011 q 191 860 261 931 q 81 697 121 790 q 40 496 40 603 m 196 496 q 223 638 196 571 q 298 756 250 706 q 412 835 346 806 q 556 864 478 864 q 699 835 633 864 q 813 756 765 806 q 888 638 861 706 q 915 496 915 571 q 888 353 915 421 q 813 236 861 286 q 699 157 765 186 q 556 128 633 128 q 412 157 478 128 q 298 236 346 186 q 223 353 250 286 q 196 496 196 421 m 826 414 l 688 414 q 648 343 681 369 q 564 317 615 317 q 503 331 531 317 q 458 371 476 346 q 429 429 439 396 q 419 500 419 463 q 456 631 419 579 q 565 683 493 683 q 647 657 618 683 q 688 590 676 631 l 821 590 q 792 683 814 643 q 736 749 769 722 q 660 789 703 775 q 572 803 618 803 q 453 779 506 803 q 364 715 400 756 q 308 619 328 675 q 289 500 289 564 q 309 382 289 438 q 367 285 329 326 q 457 221 404 244 q 576 197 510 197 q 663 212 621 197 q 738 253 704 226 q 794 322 771 281 q 826 414 818 363 z "},"™":{"ha":1375,"x_min":43,"x_max":1317,"o":"m 199 861 l 199 417 l 354 417 l 354 861 l 510 861 l 510 992 l 43 992 l 43 861 l 199 861 m 1169 811 l 1169 417 l 1317 417 l 1317 992 l 1082 992 l 967 644 l 964 644 l 849 992 l 614 992 l 614 417 l 761 417 l 761 811 l 764 811 l 896 417 l 1035 417 l 1167 811 l 1169 811 z "},"´":{"ha":308,"x_min":64,"x_max":331,"o":"m 139 1035 l 64 835 l 194 835 l 331 1035 l 139 1035 z "},"¨":{"ha":308,"x_min":-39,"x_max":351,"o":"m 196 1011 l 196 847 l 351 847 l 351 1011 l 196 1011 m -39 1011 l -39 847 l 113 847 l 113 1011 l -39 1011 z "},"≠":{"ha":763,"x_min":17,"x_max":719,"o":"m 81 -32 l 154 114 l 17 114 l 17 286 l 240 286 l 307 417 l 17 417 l 17 589 l 393 589 l 503 807 l 646 735 l 572 589 l 719 589 l 719 417 l 486 417 l 419 286 l 719 286 l 719 114 l 333 114 l 224 -104 l 81 -32 z "},"Æ":{"ha":1054,"x_min":-3,"x_max":1024,"o":"m 492 374 l 325 374 l 479 836 l 492 836 l 492 374 m 367 992 l -3 0 l 201 0 l 271 210 l 492 210 l 492 0 l 1024 0 l 1024 164 l 683 164 l 683 431 l 989 431 l 989 594 l 683 594 l 683 828 l 1010 828 l 1010 992 l 367 992 z "},"Ø":{"ha":772,"x_min":49,"x_max":724,"o":"m 157 56 l 115 -37 l 182 -67 l 218 14 q 386 -15 285 -15 q 565 21 499 -15 q 667 125 632 57 q 713 288 703 193 q 724 496 724 382 q 719 635 724 569 q 704 758 715 701 q 672 859 693 814 q 615 936 650 904 l 657 1033 l 590 1063 l 554 978 q 386 1011 488 1011 q 207 973 274 1011 q 105 867 140 935 q 59 703 69 799 q 49 496 49 608 q 53 356 49 422 q 68 234 57 290 q 101 133 79 178 q 157 56 122 88 m 289 179 l 513 701 l 515 701 q 522 610 521 661 q 524 496 524 560 q 519 326 524 396 q 499 212 514 256 q 458 148 485 168 q 386 128 431 128 q 289 179 315 128 m 483 814 l 260 290 l 257 290 q 250 379 251 329 q 249 496 249 429 q 253 665 249 596 q 273 779 258 735 q 315 844 288 824 q 386 864 342 864 q 483 814 453 864 z "},"∞":{"ha":1114,"x_min":42,"x_max":1072,"o":"m 290 104 q 187 124 233 104 q 108 180 140 144 q 59 264 76 215 q 42 368 42 313 q 58 470 42 422 q 106 553 75 518 q 183 609 138 589 q 285 629 228 629 q 370 615 332 629 q 440 578 408 601 q 501 525 472 556 q 557 461 529 494 q 613 524 583 494 q 674 578 642 554 q 744 615 706 601 q 828 629 782 629 q 931 609 885 629 q 1008 554 976 589 q 1056 472 1039 519 q 1072 369 1072 425 q 1056 265 1072 314 q 1007 181 1039 217 q 930 125 975 146 q 826 104 885 104 q 744 117 782 104 q 674 152 707 131 q 613 202 642 174 q 557 263 583 231 q 501 202 531 231 q 440 152 472 174 q 371 117 408 131 q 290 104 333 104 m 289 253 q 341 263 315 253 q 390 290 367 274 q 434 325 414 306 q 471 364 454 344 q 433 403 454 382 q 388 442 411 424 q 338 471 364 460 q 285 482 311 482 q 208 447 236 482 q 179 365 179 411 q 209 285 179 317 q 289 253 239 253 m 828 253 q 906 285 879 253 q 933 365 933 317 q 904 448 933 414 q 824 482 875 482 q 772 470 797 482 q 723 441 746 458 q 680 402 700 424 q 643 363 660 381 q 681 322 661 342 q 724 288 701 303 q 773 263 747 272 q 828 253 799 253 z "},"±":{"ha":833,"x_min":65,"x_max":768,"o":"m 65 172 l 65 0 l 768 0 l 768 172 l 65 172 m 331 703 l 331 553 l 65 553 l 65 381 l 331 381 l 331 231 l 503 231 l 503 381 l 768 381 l 768 553 l 503 553 l 503 703 l 331 703 z "},"≤":{"ha":763,"x_min":17,"x_max":719,"o":"m 17 110 l 719 110 l 719 -56 l 17 -56 l 17 110 m 17 386 l 17 550 l 719 788 l 719 617 l 243 468 l 719 322 l 719 151 l 17 386 z "},"≥":{"ha":763,"x_min":17,"x_max":719,"o":"m 17 -56 l 17 110 l 719 110 l 719 -56 l 17 -56 m 17 151 l 17 322 l 493 468 l 17 617 l 17 788 l 719 550 l 719 386 l 17 151 z "},"¥":{"ha":667,"x_min":-19,"x_max":690,"o":"m 247 221 l 247 0 l 419 0 l 419 221 l 617 221 l 617 335 l 419 335 l 419 394 l 435 426 l 617 426 l 617 540 l 489 540 l 690 964 l 490 964 l 335 590 l 332 590 l 183 964 l -19 964 l 178 540 l 50 540 l 50 426 l 232 426 l 247 394 l 247 335 l 50 335 l 50 221 l 247 221 z "},"µ":{"ha":694,"x_min":64,"x_max":631,"o":"m 439 747 l 439 251 q 338 128 439 128 q 275 151 294 128 q 256 232 256 174 l 256 747 l 64 747 l 64 -240 l 256 -240 l 256 -4 q 272 -12 263 -8 q 297 -15 282 -15 q 373 8 332 -15 q 444 88 414 32 l 447 88 l 447 0 l 631 0 l 631 747 l 439 747 z "},"∂":{"ha":767,"x_min":35,"x_max":711,"o":"m 353 -15 q 224 8 282 -15 q 123 75 165 32 q 58 177 81 118 q 35 307 35 236 q 57 431 35 374 q 120 529 79 488 q 217 594 161 571 q 340 618 274 618 q 438 601 393 618 q 526 551 483 583 l 526 572 q 518 669 526 618 q 488 763 510 719 q 428 835 465 807 q 336 864 392 864 q 245 843 285 864 q 168 790 206 822 l 71 901 q 193 977 129 950 q 336 1004 257 1004 q 517 960 444 1004 q 632 846 589 917 q 693 685 675 775 q 711 501 711 594 q 697 319 711 411 q 642 153 682 228 q 533 32 603 79 q 353 -15 463 -15 m 356 119 q 435 144 403 119 q 487 208 467 168 q 516 299 507 247 q 525 407 525 351 q 455 462 494 440 q 369 483 415 483 q 300 468 329 483 q 251 427 271 453 q 221 367 231 401 q 211 297 211 333 q 219 232 211 264 q 246 175 228 200 q 291 135 264 150 q 356 119 318 119 z "},"∑":{"ha":886,"x_min":28,"x_max":872,"o":"m 28 -158 l 443 406 l 46 954 l 46 1092 l 857 1092 l 857 919 l 297 919 l 661 407 l 272 -126 l 872 -126 l 872 -297 l 28 -297 l 28 -158 z "},"∏":{"ha":1011,"x_min":69,"x_max":942,"o":"m 69 1092 l 942 1092 l 942 -297 l 742 -297 l 742 919 l 268 919 l 268 -297 l 69 -297 l 69 1092 z "},"π":{"ha":913,"x_min":56,"x_max":857,"o":"m 717 -11 q 637 3 668 -11 q 587 42 606 17 q 560 101 568 67 q 553 176 553 136 l 553 603 l 344 603 l 344 0 l 153 0 l 153 603 l 56 603 l 56 747 l 854 747 l 854 603 l 744 603 l 744 221 q 745 190 744 206 q 751 163 746 175 q 766 142 756 150 q 796 135 776 135 q 826 140 811 135 q 857 151 842 144 l 857 21 q 717 -11 790 -11 z "},"∫":{"ha":656,"x_min":28,"x_max":628,"o":"m 628 982 q 606 924 628 949 q 550 900 585 900 q 501 917 517 900 q 478 955 486 935 q 465 992 471 975 q 444 1010 458 1010 q 424 995 428 1010 q 419 968 419 981 q 422 863 419 915 q 425 758 425 811 l 425 132 q 424 44 425 92 q 416 -52 422 -4 q 396 -144 410 -100 q 356 -222 382 -187 q 289 -276 329 -256 q 190 -296 249 -296 q 137 -289 165 -296 q 84 -268 108 -282 q 44 -233 60 -254 q 28 -182 28 -211 q 51 -128 28 -149 q 107 -107 74 -107 q 155 -124 140 -107 q 177 -162 169 -142 q 190 -201 185 -183 q 210 -218 194 -218 q 232 -202 228 -218 q 236 -172 236 -186 q 233 -84 236 -128 q 229 4 229 -40 l 229 710 q 235 839 229 772 q 266 962 242 906 q 339 1054 290 1018 q 472 1090 388 1090 q 523 1084 496 1090 q 574 1065 550 1078 q 613 1031 597 1051 q 628 982 628 1011 z "},"ª":{"ha":436,"x_min":14,"x_max":422,"o":"m 268 746 l 268 664 q 244 613 268 628 q 197 599 221 599 q 163 616 174 599 q 153 657 153 633 q 168 701 153 685 q 219 725 183 718 q 244 733 231 728 q 268 746 257 738 m 407 607 l 407 846 q 400 901 407 876 q 373 944 393 926 q 316 973 353 963 q 219 983 279 983 q 82 953 135 983 q 29 846 29 922 l 29 828 l 160 828 l 160 840 q 174 879 160 864 q 217 894 189 894 q 268 843 268 894 q 257 814 268 825 q 218 796 246 803 l 138 779 q 42 735 71 765 q 14 638 14 704 q 20 592 14 615 q 41 551 26 569 q 79 522 56 533 q 138 510 103 510 q 215 521 186 510 q 268 568 244 532 q 274 544 271 557 q 283 519 276 531 l 422 519 q 410 558 413 540 q 407 607 407 575 z "},"º":{"ha":436,"x_min":17,"x_max":419,"o":"m 156 746 q 166 852 156 810 q 218 894 176 894 q 267 860 253 894 q 281 746 281 825 q 267 633 281 667 q 218 599 253 599 q 166 640 176 599 q 156 746 156 682 m 17 746 q 26 642 17 688 q 58 567 35 597 q 119 523 81 538 q 218 510 158 508 q 314 525 275 510 q 376 570 353 540 q 410 644 400 600 q 419 746 419 688 q 410 851 419 806 q 378 926 401 896 q 317 970 356 956 q 218 983 278 985 q 60 923 104 983 q 17 746 17 863 z "},"æ":{"ha":1003,"x_min":38,"x_max":965,"o":"m 61 518 l 233 518 l 233 539 q 256 610 233 583 q 322 636 278 636 q 391 612 371 636 q 411 544 411 588 q 394 488 411 507 q 335 457 378 468 l 226 428 q 141 396 176 414 q 83 351 106 378 q 49 285 60 324 q 38 194 38 247 q 47 119 38 157 q 78 50 57 81 q 133 2 99 19 q 218 -15 168 -15 q 297 -11 263 -15 q 360 6 332 -7 q 413 43 389 18 q 460 110 438 68 q 487 62 469 85 q 531 21 504 39 q 595 -6 557 3 q 685 -15 633 -15 q 884 53 819 -15 q 954 251 949 121 l 782 251 q 751 146 774 181 q 682 111 729 111 q 638 126 656 111 q 610 165 621 140 q 594 220 599 189 q 589 285 589 251 l 589 344 l 965 344 l 965 388 q 954 544 965 474 q 913 663 943 614 q 829 740 882 713 q 693 767 776 767 q 584 744 631 767 q 517 678 538 721 q 442 748 486 729 q 324 767 399 767 q 222 755 269 767 q 138 716 174 743 q 82 645 103 689 q 61 536 61 601 l 61 518 m 782 458 l 589 458 l 589 488 q 594 540 589 514 q 610 588 599 567 q 640 623 621 610 q 686 636 658 636 q 762 591 744 636 q 782 458 779 546 m 411 374 l 411 226 q 400 174 411 196 q 372 138 389 151 q 333 117 354 124 q 293 111 313 111 q 238 142 254 111 q 221 215 221 172 q 246 294 221 265 q 329 336 271 324 q 369 349 347 340 q 411 374 392 358 z "},"ø":{"ha":667,"x_min":39,"x_max":628,"o":"m 125 49 l 74 -44 l 135 -76 l 182 10 q 333 -15 236 -18 q 472 8 415 -15 q 563 81 528 32 q 613 204 597 131 q 628 374 628 278 q 609 571 628 490 q 542 699 590 651 l 593 796 l 532 828 l 485 738 q 333 767 426 768 q 195 741 251 767 q 104 666 139 715 q 54 543 69 617 q 39 374 39 469 q 58 176 39 257 q 125 49 76 96 m 258 157 l 431 488 l 433 488 q 435 435 435 464 q 436 374 436 407 q 414 172 436 233 q 333 111 392 111 q 258 157 282 111 m 407 589 l 236 258 l 233 258 q 231 284 232 271 q 231 313 231 297 l 231 374 q 233 479 231 431 q 247 563 236 528 q 278 617 257 597 q 333 636 299 636 q 407 589 385 636 z "},"¿":{"ha":668,"x_min":50,"x_max":618,"o":"m 251 564 l 443 564 l 443 747 l 251 747 l 251 564 m 618 63 l 435 63 l 435 28 q 412 -78 435 -36 q 336 -121 389 -121 q 265 -88 289 -121 q 242 -3 242 -56 q 253 72 242 35 q 294 140 265 108 l 347 200 q 414 301 394 253 q 433 418 433 349 l 433 472 l 261 472 l 261 451 q 245 365 261 399 q 193 292 229 332 l 138 229 q 69 121 88 171 q 50 13 50 71 q 123 -179 50 -107 q 343 -251 196 -251 q 464 -230 413 -251 q 549 -170 515 -208 q 601 -80 583 -132 q 618 31 618 -28 l 618 63 z "},"¡":{"ha":411,"x_min":110,"x_max":301,"o":"m 110 747 l 110 564 l 301 564 l 301 747 l 110 747 m 110 78 l 110 -240 l 301 -240 l 301 78 l 275 471 l 136 471 l 110 78 z "},"¬":{"ha":833,"x_min":65,"x_max":768,"o":"m 596 417 l 596 136 l 768 136 l 768 589 l 65 589 l 65 417 l 596 417 z "},"√":{"ha":763,"x_min":57,"x_max":856,"o":"m 192 133 l 119 99 l 57 233 l 279 335 l 450 -32 l 679 1092 l 856 1092 l 558 -297 l 400 -297 l 192 133 z "},"ƒ":{"ha":667,"x_min":-44,"x_max":660,"o":"m 111 594 l 89 481 l 235 481 l 146 22 q 131 -37 139 -11 q 110 -78 124 -62 q 78 -102 97 -94 q 28 -110 58 -110 q -17 -104 0 -110 l -44 -231 q -5 -238 -29 -236 q 51 -240 19 -240 q 172 -223 124 -240 q 251 -174 219 -206 q 299 -96 282 -142 q 328 6 317 -50 l 418 481 l 572 481 l 593 594 l 440 594 l 461 696 q 481 776 471 744 q 504 827 490 808 q 540 853 518 846 q 594 861 561 861 q 613 860 604 861 q 633 857 622 860 l 660 988 q 608 991 636 990 q 556 992 581 992 q 446 976 492 992 q 368 928 400 961 q 315 844 336 896 q 281 718 294 792 l 257 594 l 111 594 z "},"≈":{"ha":763,"x_min":21,"x_max":775,"o":"m 21 72 q 39 164 25 118 q 78 245 53 210 q 143 303 104 281 q 235 325 182 325 q 320 311 276 325 q 408 281 364 297 q 497 251 453 265 q 583 238 542 238 q 641 264 621 238 q 667 325 661 290 l 775 325 q 757 231 771 276 q 718 151 743 186 q 655 94 693 115 q 561 72 617 72 q 474 87 521 72 q 381 118 428 101 q 290 149 333 135 q 214 164 247 164 q 156 135 176 164 q 129 72 135 106 l 21 72 l 21 72 m 21 375 q 39 467 25 421 q 78 548 53 513 q 143 606 104 583 q 235 628 182 628 q 320 614 276 628 q 408 584 364 600 q 497 554 453 568 q 583 540 542 540 q 641 567 621 540 q 667 628 661 593 l 775 628 q 757 534 771 579 q 718 453 743 489 q 655 397 693 418 q 561 375 617 375 q 474 390 521 375 q 381 421 428 404 q 290 452 333 438 q 214 467 247 467 q 156 438 176 467 q 129 375 135 408 l 21 375 l 21 375 z "},"∆":{"ha":772,"x_min":0,"x_max":772,"o":"m 263 992 l 510 992 l 772 0 l 0 0 l 263 992 m 528 164 l 388 819 l 385 819 l 243 164 l 528 164 z "},"«":{"ha":592,"x_min":72,"x_max":519,"o":"m 72 514 l 72 289 l 279 122 l 279 306 l 169 401 l 279 497 l 279 681 l 72 514 m 313 514 l 313 289 l 519 122 l 519 306 l 410 401 l 519 497 l 519 681 l 313 514 z "},"»":{"ha":592,"x_min":72,"x_max":519,"o":"m 313 306 l 313 122 l 519 289 l 519 514 l 313 681 l 313 497 l 422 401 l 313 306 m 72 306 l 72 122 l 279 289 l 279 514 l 72 681 l 72 497 l 182 401 l 72 306 z "},"…":{"ha":1389,"x_min":140,"x_max":1249,"o":"m 1249 217 l 1065 217 l 1065 0 l 1249 0 l 1249 217 m 786 217 l 603 217 l 603 0 l 786 0 l 786 217 m 324 217 l 140 217 l 140 0 l 324 0 l 324 217 z "}," ":{"ha":333,"x_min":0,"x_max":0,"o":""},"À":{"ha":772,"x_min":0,"x_max":772,"o":"m 346 1050 l 476 1050 l 401 1250 l 210 1250 l 346 1050 m 289 374 l 385 819 l 388 819 l 483 374 l 289 374 m 263 992 l 0 0 l 208 0 l 254 210 l 518 210 l 564 0 l 772 0 l 510 992 l 263 992 z "},"Ã":{"ha":772,"x_min":0,"x_max":772,"o":"m 168 1063 l 265 1063 q 310 1113 276 1113 q 346 1105 326 1113 q 387 1089 365 1097 q 431 1073 408 1081 q 475 1065 453 1065 q 563 1114 528 1065 q 604 1238 597 1163 l 504 1238 q 494 1206 504 1224 q 465 1188 485 1188 q 424 1196 444 1188 l 357 1225 q 297 1235 336 1235 q 212 1190 244 1235 q 168 1063 179 1146 m 289 374 l 385 819 l 388 819 l 483 374 l 289 374 m 263 992 l 0 0 l 208 0 l 254 210 l 518 210 l 564 0 l 772 0 l 510 992 l 263 992 z "},"Õ":{"ha":772,"x_min":49,"x_max":724,"o":"m 168 1063 l 265 1063 q 310 1113 276 1113 q 346 1105 326 1113 q 387 1089 365 1097 q 431 1073 408 1081 q 475 1065 453 1065 q 563 1114 528 1065 q 604 1238 597 1163 l 504 1238 q 494 1206 504 1224 q 465 1188 485 1188 q 424 1196 444 1188 l 357 1225 q 297 1235 336 1235 q 212 1190 244 1235 q 168 1063 179 1146 m 249 496 q 253 665 249 596 q 273 779 258 735 q 315 844 288 824 q 386 864 342 864 q 458 844 431 864 q 499 779 485 824 q 519 665 514 735 q 524 496 524 596 q 519 326 524 396 q 499 212 514 256 q 458 148 485 168 q 386 128 431 128 q 315 148 342 128 q 273 212 288 168 q 253 326 258 256 q 249 496 249 396 m 49 496 q 59 288 49 382 q 105 125 69 193 q 207 21 140 57 q 386 -15 274 -15 q 565 21 499 -15 q 667 125 632 57 q 713 288 703 193 q 724 496 724 382 q 713 703 724 608 q 667 867 703 799 q 565 973 632 935 q 386 1011 499 1011 q 207 973 274 1011 q 105 867 140 935 q 59 703 69 799 q 49 496 49 608 z "},"Œ":{"ha":1081,"x_min":49,"x_max":1050,"o":"m 249 496 q 253 665 249 594 q 272 779 257 735 q 313 844 286 824 q 386 864 340 864 q 456 846 431 864 q 493 785 481 828 q 508 671 506 742 q 511 496 511 600 q 508 321 511 392 q 493 207 506 250 q 456 146 481 164 q 386 128 431 128 q 313 148 340 128 q 272 213 286 168 q 253 327 257 257 q 249 496 249 397 m 1039 828 l 1039 992 l 532 992 l 532 939 l 529 939 q 453 996 504 981 q 349 1011 401 1011 q 192 969 251 1011 q 101 856 133 926 q 59 694 69 785 q 49 507 49 603 q 56 313 49 407 q 94 144 64 218 q 188 28 125 71 q 358 -15 250 -15 q 410 -10 383 -15 q 460 2 436 -6 q 503 24 485 10 q 529 57 521 39 l 532 57 l 532 0 l 1050 0 l 1050 164 l 703 164 l 703 431 l 1018 431 l 1018 594 l 703 594 l 703 828 l 1039 828 z "},"œ":{"ha":1029,"x_min":40,"x_max":989,"o":"m 806 458 l 610 458 l 610 488 q 615 540 610 514 q 631 588 619 567 q 660 623 642 610 q 708 636 679 636 q 756 624 738 636 q 785 590 775 613 q 800 534 796 567 q 806 458 804 501 m 338 111 q 280 131 301 111 q 248 185 258 150 q 235 268 238 219 q 232 374 232 317 q 235 479 232 431 q 248 563 238 528 q 279 617 258 597 q 335 636 300 636 q 415 575 393 636 q 438 374 438 514 q 416 172 438 233 q 338 111 394 111 m 610 344 l 989 344 l 989 388 q 978 544 989 474 q 936 663 967 614 q 852 740 906 713 q 715 767 799 767 q 610 740 660 767 q 533 663 561 714 q 460 741 506 715 q 335 767 414 767 q 197 741 253 767 q 106 666 140 715 q 56 543 71 617 q 40 374 40 469 q 53 203 40 276 q 99 80 67 129 q 184 8 131 31 q 318 -15 238 -15 q 447 11 390 -15 q 524 90 504 38 q 585 17 539 49 q 718 -15 631 -15 q 910 53 847 -15 q 978 251 972 121 l 806 251 q 775 146 797 181 q 704 111 753 111 q 660 126 678 111 q 631 165 642 140 q 615 220 619 189 q 610 285 610 251 l 610 344 z "},"–":{"ha":694,"x_min":0,"x_max":694,"o":"m 0 479 l 0 324 l 694 324 l 694 479 l 0 479 z "},"—":{"ha":1389,"x_min":0,"x_max":1389,"o":"m 0 479 l 0 324 l 1389 324 l 1389 479 l 0 479 z "},"“":{"ha":643,"x_min":94,"x_max":549,"o":"m 94 726 l 94 546 l 278 546 l 278 763 l 206 763 l 206 785 q 224 856 206 824 q 278 894 242 888 l 278 992 q 187 965 222 986 q 131 909 151 943 q 102 828 110 875 q 94 726 94 782 m 365 726 l 365 546 l 549 546 l 549 763 l 476 763 l 476 785 q 494 856 476 824 q 549 894 513 888 l 549 992 q 458 965 493 986 q 401 909 422 943 q 373 828 381 875 q 365 726 365 782 z "},"”":{"ha":643,"x_min":94,"x_max":549,"o":"m 365 992 l 365 775 l 438 775 l 438 753 q 419 682 438 714 q 365 643 401 650 l 365 546 q 456 573 421 551 q 513 628 492 594 q 541 709 533 663 q 549 811 549 756 l 549 992 l 365 992 m 94 992 l 94 775 l 167 775 l 167 753 q 149 682 167 714 q 94 643 131 650 l 94 546 q 185 573 150 551 q 242 628 221 594 q 270 709 263 663 q 278 811 278 756 l 278 992 l 94 992 z "},"‘":{"ha":361,"x_min":89,"x_max":272,"o":"m 89 726 l 89 546 l 272 546 l 272 763 l 200 763 l 200 785 q 218 856 200 824 q 272 894 236 888 l 272 992 q 181 965 217 986 q 125 909 146 943 q 97 828 104 875 q 89 726 89 782 z "},"’":{"ha":361,"x_min":89,"x_max":272,"o":"m 272 811 l 272 992 l 89 992 l 89 775 l 161 775 l 161 753 q 143 682 161 714 q 89 643 125 650 l 89 546 q 180 573 144 551 q 236 628 215 594 q 265 709 257 663 q 272 811 272 756 z "},"÷":{"ha":833,"x_min":65,"x_max":768,"o":"m 282 57 q 320 -37 282 0 q 417 -74 358 -74 q 513 -37 475 -74 q 551 57 551 0 q 513 153 551 115 q 417 192 475 192 q 320 153 358 192 q 282 57 282 115 m 282 646 q 320 549 282 588 q 417 511 358 511 q 513 549 475 511 q 551 646 551 588 q 513 742 551 704 q 417 781 475 781 q 320 742 358 781 q 282 646 282 704 m 65 438 l 65 265 l 768 265 l 768 438 l 65 438 z "},"◊":{"ha":833,"x_min":83,"x_max":751,"o":"m 83 482 l 333 1013 l 500 1013 l 751 482 l 500 -49 l 333 -49 l 83 482 m 576 482 l 417 849 l 257 482 l 417 114 l 576 482 z "},"ÿ":{"ha":617,"x_min":7,"x_max":610,"o":"m 350 1011 l 350 847 l 506 847 l 506 1011 l 350 1011 m 111 1011 l 111 847 l 267 847 l 267 1011 l 111 1011 m 64 -97 l 64 -240 l 142 -240 q 252 -231 208 -240 q 327 -190 296 -221 q 381 -101 358 -158 q 429 50 404 -43 l 610 747 l 418 747 l 321 231 l 318 231 l 207 747 l 7 747 l 217 0 q 190 -74 213 -46 q 114 -101 167 -101 q 64 -97 89 -101 z "},"Ÿ":{"ha":722,"x_min":4,"x_max":718,"o":"m 403 1226 l 403 1063 l 558 1063 l 558 1226 l 403 1226 m 164 1226 l 164 1063 l 319 1063 l 319 1226 l 164 1226 m 229 992 l 4 992 l 261 390 l 261 0 l 461 0 l 461 390 l 718 992 l 501 992 l 363 608 l 360 608 l 229 992 z "},"⁄":{"ha":232,"x_min":-224,"x_max":460,"o":"m 336 1007 l -224 -39 l -100 -39 l 460 1007 l 336 1007 z "},"‹":{"ha":335,"x_min":64,"x_max":271,"o":"m 64 514 l 64 289 l 271 122 l 271 306 l 161 401 l 271 497 l 271 681 l 64 514 z "},"›":{"ha":335,"x_min":64,"x_max":271,"o":"m 64 306 l 64 122 l 271 289 l 271 514 l 64 681 l 64 497 l 174 401 l 64 306 z "},"ﬁ":{"ha":746,"x_min":8,"x_max":675,"o":"m 106 617 l 106 0 l 297 0 l 297 617 l 408 617 l 408 747 l 297 747 l 297 813 q 314 858 297 844 q 371 872 331 872 l 389 872 q 408 871 401 872 l 408 1007 q 306 1011 357 1011 q 222 1002 260 1011 q 159 972 185 993 q 119 917 133 951 q 106 832 106 882 l 106 747 l 8 747 l 8 617 l 106 617 m 483 1003 l 483 839 l 675 839 l 675 1003 l 483 1003 m 483 747 l 483 0 l 675 0 l 675 747 l 483 747 z "},"ﬂ":{"ha":746,"x_min":8,"x_max":675,"o":"m 106 617 l 106 0 l 297 0 l 297 617 l 408 617 l 408 747 l 297 747 l 297 813 q 314 858 297 844 q 371 872 331 872 l 389 872 q 408 871 401 872 l 408 1007 q 306 1011 357 1011 q 222 1002 260 1011 q 159 972 185 993 q 119 917 133 951 q 106 832 106 882 l 106 747 l 8 747 l 8 617 l 106 617 m 483 1003 l 483 0 l 675 0 l 675 1003 l 483 1003 z "},"‡":{"ha":667,"x_min":4,"x_max":663,"o":"m 238 72 l 238 -187 l 429 -187 l 429 72 l 663 72 l 663 228 l 429 228 l 429 572 l 663 572 l 663 728 l 429 728 l 429 992 l 238 992 l 238 728 l 4 728 l 4 572 l 238 572 l 238 228 l 4 228 l 4 72 l 238 72 z "},"·":{"ha":333,"x_min":32,"x_max":301,"o":"m 32 392 q 70 295 32 333 q 167 257 108 257 q 263 295 225 257 q 301 392 301 333 q 263 488 301 450 q 167 526 225 526 q 70 488 108 526 q 32 392 32 450 z "},"‚":{"ha":361,"x_min":89,"x_max":272,"o":"m 272 217 l 89 217 l 89 0 l 161 0 l 161 -18 q 143 -89 161 -57 q 89 -128 125 -121 l 89 -225 q 180 -198 144 -219 q 236 -142 215 -176 q 265 -62 257 -108 q 272 36 272 -15 l 272 217 z "},"„":{"ha":643,"x_min":94,"x_max":549,"o":"m 94 217 l 94 0 l 167 0 l 167 -18 q 149 -89 167 -57 q 94 -128 131 -121 l 94 -225 q 185 -198 150 -219 q 242 -142 221 -176 q 270 -62 263 -108 q 278 36 278 -15 l 278 217 l 94 217 m 365 217 l 365 0 l 438 0 l 438 -18 q 419 -89 438 -57 q 365 -128 401 -121 l 365 -225 q 456 -198 421 -219 q 513 -142 492 -176 q 541 -62 533 -108 q 549 36 549 -15 l 549 217 l 365 217 z "},"‰":{"ha":1518,"x_min":38,"x_max":1481,"o":"m 742 1007 l 178 -39 l 301 -39 l 865 1007 l 742 1007 m 742 251 q 751 366 742 326 q 803 406 761 406 q 854 366 844 406 q 864 251 864 326 q 854 127 864 168 q 803 86 844 86 q 751 127 761 86 q 742 251 742 168 m 594 246 q 603 128 594 178 q 634 47 611 79 q 698 -1 657 14 q 803 -15 739 -15 q 908 -1 868 -15 q 972 47 949 14 q 1003 128 994 79 q 1011 246 1011 178 q 1003 363 1011 313 q 972 446 994 413 q 908 495 949 479 q 803 511 868 511 q 698 495 739 511 q 634 446 657 479 q 603 363 611 413 q 594 246 594 313 m 185 724 q 194 838 185 799 q 246 878 204 878 q 297 838 288 878 q 307 724 307 799 q 297 599 307 640 q 246 558 288 558 q 194 599 204 558 q 185 724 185 640 m 38 718 q 46 601 38 651 q 77 518 54 551 q 141 469 100 485 q 246 453 182 453 q 351 469 311 453 q 415 518 392 485 q 446 601 438 551 q 454 718 454 651 q 446 835 454 785 q 415 918 438 885 q 351 967 392 951 q 246 983 311 983 q 141 967 182 983 q 77 918 100 951 q 46 835 54 885 q 38 718 38 785 m 1064 246 q 1072 128 1064 178 q 1103 47 1081 79 q 1167 -1 1126 14 q 1272 -15 1208 -15 q 1378 -1 1338 -15 q 1441 47 1418 14 q 1472 128 1464 79 q 1481 246 1481 178 q 1472 363 1481 313 q 1441 446 1464 413 q 1378 495 1418 479 q 1272 511 1338 511 q 1167 495 1208 511 q 1103 446 1126 479 q 1072 363 1081 413 q 1064 246 1064 313 m 1211 251 q 1221 366 1211 326 q 1272 406 1231 406 q 1324 366 1314 406 q 1333 251 1333 326 q 1324 127 1333 168 q 1272 86 1314 86 q 1221 127 1231 86 q 1211 251 1211 168 z "},"Â":{"ha":772,"x_min":0,"x_max":772,"o":"m 286 1250 l 178 1050 l 317 1050 l 383 1168 l 447 1050 l 594 1050 l 486 1250 l 286 1250 m 289 374 l 385 819 l 388 819 l 483 374 l 289 374 m 263 992 l 0 0 l 208 0 l 254 210 l 518 210 l 564 0 l 772 0 l 510 992 l 263 992 z "},"Ê":{"ha":668,"x_min":69,"x_max":638,"o":"m 251 1250 l 143 1050 l 282 1050 l 349 1168 l 413 1050 l 560 1050 l 451 1250 l 251 1250 m 624 992 l 69 992 l 69 0 l 638 0 l 638 164 l 269 164 l 269 431 l 603 431 l 603 594 l 269 594 l 269 828 l 624 828 l 624 992 z "},"Á":{"ha":772,"x_min":0,"x_max":772,"o":"m 371 1250 l 296 1050 l 426 1050 l 563 1250 l 371 1250 m 289 374 l 385 819 l 388 819 l 483 374 l 289 374 m 263 992 l 0 0 l 208 0 l 254 210 l 518 210 l 564 0 l 772 0 l 510 992 l 263 992 z "},"Ë":{"ha":668,"x_min":69,"x_max":638,"o":"m 393 1226 l 393 1063 l 549 1063 l 549 1226 l 393 1226 m 154 1226 l 154 1063 l 310 1063 l 310 1226 l 154 1226 m 624 992 l 69 992 l 69 0 l 638 0 l 638 164 l 269 164 l 269 431 l 603 431 l 603 594 l 269 594 l 269 828 l 624 828 l 624 992 z "},"È":{"ha":668,"x_min":69,"x_max":638,"o":"m 311 1050 l 442 1050 l 367 1250 l 175 1250 l 311 1050 m 624 992 l 69 992 l 69 0 l 638 0 l 638 164 l 269 164 l 269 431 l 603 431 l 603 594 l 269 594 l 269 828 l 624 828 l 624 992 z "},"Í":{"ha":358,"x_min":79,"x_max":356,"o":"m 164 1250 l 89 1050 l 219 1050 l 356 1250 l 164 1250 m 79 0 l 279 0 l 279 992 l 79 992 l 79 0 z "},"Î":{"ha":358,"x_min":-25,"x_max":388,"o":"m 79 1250 l -25 1050 l 110 1050 l 176 1168 l 240 1050 l 388 1050 l 279 1250 l 79 1250 m 79 0 l 279 0 l 279 992 l 79 992 l 79 0 z "},"Ï":{"ha":358,"x_min":-14,"x_max":376,"o":"m 221 1226 l 221 1063 l 376 1063 l 376 1226 l 221 1226 m -14 1226 l -14 1063 l 138 1063 l 138 1226 l -14 1226 m 79 0 l 279 0 l 279 992 l 79 992 l 79 0 z "},"Ì":{"ha":358,"x_min":3,"x_max":279,"o":"m 139 1050 l 269 1050 l 194 1250 l 3 1250 l 139 1050 m 79 0 l 279 0 l 279 992 l 79 992 l 79 0 z "},"Ó":{"ha":772,"x_min":49,"x_max":724,"o":"m 371 1250 l 296 1050 l 426 1050 l 563 1250 l 371 1250 m 249 496 q 253 665 249 596 q 273 779 258 735 q 315 844 288 824 q 386 864 342 864 q 458 844 431 864 q 499 779 485 824 q 519 665 514 735 q 524 496 524 596 q 519 326 524 396 q 499 212 514 256 q 458 148 485 168 q 386 128 431 128 q 315 148 342 128 q 273 212 288 168 q 253 326 258 256 q 249 496 249 396 m 49 496 q 59 288 49 382 q 105 125 69 193 q 207 21 140 57 q 386 -15 274 -15 q 565 21 499 -15 q 667 125 632 57 q 713 288 703 193 q 724 496 724 382 q 713 703 724 608 q 667 867 703 799 q 565 973 632 935 q 386 1011 499 1011 q 207 973 274 1011 q 105 867 140 935 q 59 703 69 799 q 49 496 49 608 z "},"Ô":{"ha":772,"x_min":49,"x_max":724,"o":"m 286 1250 l 178 1050 l 317 1050 l 383 1168 l 447 1050 l 594 1050 l 486 1250 l 286 1250 m 249 496 q 253 665 249 596 q 273 779 258 735 q 315 844 288 824 q 386 864 342 864 q 458 844 431 864 q 499 779 485 824 q 519 665 514 735 q 524 496 524 596 q 519 326 524 396 q 499 212 514 256 q 458 148 485 168 q 386 128 431 128 q 315 148 342 128 q 273 212 288 168 q 253 326 258 256 q 249 496 249 396 m 49 496 q 59 288 49 382 q 105 125 69 193 q 207 21 140 57 q 386 -15 274 -15 q 565 21 499 -15 q 667 125 632 57 q 713 288 703 193 q 724 496 724 382 q 713 703 724 608 q 667 867 703 799 q 565 973 632 935 q 386 1011 499 1011 q 207 973 274 1011 q 105 867 140 935 q 59 703 69 799 q 49 496 49 608 z "},"":{"ha":1097,"x_min":71,"x_max":1040,"o":"m 567 817 q 471 838 544 817 q 347 858 399 858 q 149 758 228 858 q 71 499 71 657 q 174 149 71 326 q 382 -28 276 -28 q 474 -4 415 -28 q 574 15 528 15 q 678 -3 618 15 q 776 -25 739 -25 q 956 107 867 -25 q 1006 195 985 151 q 1040 281 1026 239 q 931 368 978 300 q 882 524 882 438 q 928 667 882 603 q 1007 750 953 703 q 971 789 989 772 q 935 819 953 806 q 786 864 869 864 q 665 840 736 864 q 567 817 594 817 m 779 1097 q 778 1110 779 1103 q 775 1126 778 1117 q 601 1023 653 1099 q 547 844 549 947 q 618 856 592 849 q 694 906 654 868 q 758 1001 738 950 q 779 1097 779 1053 z "},"Ò":{"ha":772,"x_min":49,"x_max":724,"o":"m 346 1050 l 476 1050 l 401 1250 l 210 1250 l 346 1050 m 249 496 q 253 665 249 596 q 273 779 258 735 q 315 844 288 824 q 386 864 342 864 q 458 844 431 864 q 499 779 485 824 q 519 665 514 735 q 524 496 524 596 q 519 326 524 396 q 499 212 514 256 q 458 148 485 168 q 386 128 431 128 q 315 148 342 128 q 273 212 288 168 q 253 326 258 256 q 249 496 249 396 m 49 496 q 59 288 49 382 q 105 125 69 193 q 207 21 140 57 q 386 -15 274 -15 q 565 21 499 -15 q 667 125 632 57 q 713 288 703 193 q 724 496 724 382 q 713 703 724 608 q 667 867 703 799 q 565 973 632 935 q 386 1011 499 1011 q 207 973 274 1011 q 105 867 140 935 q 59 703 69 799 q 49 496 49 608 z "},"Ú":{"ha":747,"x_min":57,"x_max":690,"o":"m 358 1250 l 283 1050 l 414 1050 l 550 1250 l 358 1250 m 257 992 l 57 992 l 57 300 q 83 138 57 200 q 154 41 110 75 q 256 -4 199 7 q 374 -15 313 -15 q 492 -3 435 -15 q 593 46 549 10 q 664 144 638 82 q 690 300 690 206 l 690 992 l 490 992 l 490 300 q 485 231 490 263 q 467 177 481 200 q 432 141 454 154 q 374 128 410 128 q 316 141 339 128 q 280 177 293 154 q 262 231 267 200 q 257 300 257 263 l 257 992 z "},"Û":{"ha":747,"x_min":57,"x_max":690,"o":"m 274 1250 l 165 1050 l 304 1050 l 371 1168 l 435 1050 l 582 1050 l 474 1250 l 274 1250 m 257 992 l 57 992 l 57 300 q 83 138 57 200 q 154 41 110 75 q 256 -4 199 7 q 374 -15 313 -15 q 492 -3 435 -15 q 593 46 549 10 q 664 144 638 82 q 690 300 690 206 l 690 992 l 490 992 l 490 300 q 485 231 490 263 q 467 177 481 200 q 432 141 454 154 q 374 128 410 128 q 316 141 339 128 q 280 177 293 154 q 262 231 267 200 q 257 300 257 263 l 257 992 z "},"Ù":{"ha":747,"x_min":57,"x_max":690,"o":"m 333 1050 l 464 1050 l 389 1250 l 197 1250 l 333 1050 m 257 992 l 57 992 l 57 300 q 83 138 57 200 q 154 41 110 75 q 256 -4 199 7 q 374 -15 313 -15 q 492 -3 435 -15 q 593 46 549 10 q 664 144 638 82 q 690 300 690 206 l 690 992 l 490 992 l 490 300 q 485 231 490 263 q 467 177 481 200 q 432 141 454 154 q 374 128 410 128 q 316 141 339 128 q 280 177 293 154 q 262 231 267 200 q 257 300 257 263 l 257 992 z "},"ı":{"ha":333,"x_min":71,"x_max":263,"o":"m 71 747 l 71 0 l 263 0 l 263 747 l 71 747 z "},"ˆ":{"ha":308,"x_min":-50,"x_max":363,"o":"m 54 1035 l -50 835 l 85 835 l 151 953 l 215 835 l 363 835 l 254 1035 l 54 1035 z "},"˜":{"ha":308,"x_min":-60,"x_max":372,"o":"m -60 847 l 33 847 q 78 897 44 897 q 114 890 94 897 q 155 874 133 882 q 199 858 176 865 q 243 850 221 850 q 331 899 296 850 q 372 1022 365 947 l 272 1022 q 263 990 272 1008 q 233 972 253 972 q 192 981 213 972 l 125 1010 q 65 1019 104 1019 q -18 975 13 1019 q -60 847 -49 931 z "},"¯":{"ha":308,"x_min":-46,"x_max":358,"o":"m 358 992 l -46 992 l -46 886 l 358 886 l 358 992 z "},"˘":{"ha":308,"x_min":-35,"x_max":347,"o":"m 51 1035 l -35 1035 q -26 973 -35 1007 q 3 909 -17 939 q 61 859 24 879 q 154 839 99 839 q 247 859 210 839 q 307 909 285 879 q 338 973 329 939 q 347 1035 347 1007 l 257 1035 q 224 969 253 994 q 154 944 194 944 q 85 969 114 944 q 51 1035 56 994 z "},"˙":{"ha":308,"x_min":76,"x_max":232,"o":"m 232 1011 l 76 1011 l 76 847 l 232 847 l 232 1011 z "},"˚":{"ha":308,"x_min":0,"x_max":313,"o":"m 74 969 q 97 1026 74 1003 q 154 1050 121 1050 q 211 1026 188 1050 q 235 969 235 1003 q 211 913 235 936 q 154 889 188 889 q 97 913 121 889 q 74 969 74 936 m 0 969 q 10 908 0 936 q 42 858 21 879 q 92 824 64 836 q 154 811 121 811 q 216 824 188 811 q 266 858 244 836 q 300 908 288 879 q 313 969 313 936 q 300 1031 313 1003 q 266 1081 288 1060 q 216 1115 244 1103 q 154 1128 188 1128 q 92 1115 121 1128 q 42 1081 64 1103 q 10 1031 21 1060 q 0 969 0 1003 z "},"¸":{"ha":308,"x_min":0,"x_max":314,"o":"m 204 0 l 129 0 l 53 -124 l 83 -151 q 105 -145 94 -147 q 131 -143 115 -143 q 175 -156 158 -143 q 192 -190 192 -169 q 172 -224 192 -210 q 122 -237 151 -237 q 69 -231 96 -237 q 26 -217 42 -225 l 0 -281 q 55 -299 17 -290 q 139 -307 93 -307 q 269 -273 224 -307 q 314 -176 314 -239 q 303 -133 314 -151 q 276 -101 293 -114 q 239 -81 260 -87 q 197 -74 218 -74 q 174 -76 185 -74 q 151 -81 164 -78 l 204 0 z "},"˝":{"ha":308,"x_min":-47,"x_max":446,"o":"m 254 1035 l 179 835 l 310 835 l 446 1035 l 254 1035 m 24 1035 l -47 835 l 79 835 l 215 1035 l 24 1035 z "},"˛":{"ha":308,"x_min":33,"x_max":318,"o":"m 318 -275 l 292 -196 q 253 -212 271 -207 q 210 -218 235 -218 q 169 -202 183 -218 q 156 -162 156 -186 q 161 -130 156 -146 q 182 -94 167 -114 q 225 -51 197 -75 q 297 0 253 -28 l 204 0 q 76 -76 119 -28 q 33 -187 33 -125 q 40 -231 33 -210 q 62 -269 46 -253 q 103 -297 78 -286 q 167 -307 129 -307 q 245 -299 201 -307 q 318 -275 289 -290 z "},"ˇ":{"ha":308,"x_min":-50,"x_max":363,"o":"m -50 1035 l 54 835 l 254 835 l 363 1035 l 224 1035 l 157 917 l 93 1035 l -50 1035 z "},"Ω":{"ha":1067,"x_min":49,"x_max":967,"o":"m 49 156 l 297 156 l 297 204 q 188 257 235 221 q 110 341 142 293 q 64 447 79 389 q 49 567 49 506 q 85 745 49 665 q 183 882 121 825 q 329 970 246 939 q 508 1001 413 1001 q 688 971 604 1001 q 833 884 771 940 q 931 748 894 828 q 967 569 967 668 q 951 449 967 508 q 906 341 936 390 q 828 256 875 292 q 718 204 781 219 l 718 156 l 967 156 l 967 0 l 572 0 l 572 288 q 662 323 624 297 q 725 385 700 349 q 763 467 750 422 q 775 563 775 513 q 756 672 775 621 q 703 762 738 724 q 619 823 668 800 q 510 846 569 846 q 399 823 449 846 q 314 761 349 800 q 260 669 279 722 q 242 558 242 617 q 291 385 242 458 q 442 288 340 311 l 442 0 l 49 0 l 49 156 z "},"¤":{"ha":667,"x_min":0,"x_max":667,"o":"m 163 482 q 208 613 163 565 q 333 661 254 661 q 458 613 413 661 q 504 482 504 565 q 458 351 504 399 q 333 303 413 303 q 208 351 254 303 q 163 482 163 399 m 0 235 l 85 149 l 156 219 q 333 164 233 164 q 428 178 383 164 q 511 219 474 193 l 582 149 l 667 235 l 597 304 q 638 388 624 343 q 651 482 651 433 q 638 576 651 531 q 597 660 624 621 l 667 729 l 582 815 l 511 746 q 428 785 474 771 q 333 800 383 800 q 240 786 285 800 q 156 746 194 772 l 85 815 l 0 729 l 69 660 q 29 576 43 621 q 15 482 15 531 q 30 387 15 432 q 69 304 44 342 l 0 235 z "},"Ω":{"ha":1067,"x_min":49,"x_max":967,"o":"m 49 156 l 297 156 l 297 204 q 188 257 235 221 q 110 341 142 293 q 64 447 79 389 q 49 567 49 506 q 85 745 49 665 q 183 882 121 825 q 329 970 246 939 q 508 1001 413 1001 q 688 971 604 1001 q 833 884 771 940 q 931 748 894 828 q 967 569 967 668 q 951 449 967 508 q 906 341 936 390 q 828 256 875 292 q 718 204 781 219 l 718 156 l 967 156 l 967 0 l 572 0 l 572 288 q 662 323 624 297 q 725 385 700 349 q 763 467 750 422 q 775 563 775 513 q 756 672 775 621 q 703 762 738 724 q 619 823 668 800 q 510 846 569 846 q 399 823 449 846 q 314 761 349 800 q 260 669 279 722 q 242 558 242 617 q 291 385 242 458 q 442 288 340 311 l 442 0 l 49 0 l 49 156 z "},"€":{"ha":667,"x_min":36,"x_max":665,"o":"m 665 918 q 451 988 575 988 q 135 646 164 988 l 78 646 l 36 538 l 131 538 l 129 467 l 76 467 l 36 358 l 132 358 q 424 -15 142 -15 q 633 43 526 -15 l 633 217 q 454 124 526 124 q 349 208 375 124 q 331 358 335 250 l 471 358 l 511 467 l 328 467 l 328 538 l 525 538 l 565 646 l 332 646 q 356 782 338 740 q 464 850 385 850 q 601 779 535 850 l 665 918 z "},"Ł":{"ha":643,"x_min":0,"x_max":624,"o":"m 69 356 l 69 0 l 624 0 l 624 164 l 269 164 l 269 481 l 444 590 l 444 738 l 269 628 l 269 992 l 69 992 l 69 503 l 0 460 l 0 313 l 69 356 z "},"ł":{"ha":333,"x_min":-12,"x_max":350,"o":"m 71 392 l 71 0 l 263 0 l 263 518 l 350 575 l 350 697 l 263 640 l 263 992 l 71 992 l 71 514 l -12 456 l -12 333 l 71 392 z "},"¾":{"ha":1001,"x_min":0,"x_max":1001,"o":"m 147 578 l 0 578 l 0 564 q 47 428 0 476 q 199 379 94 379 q 319 396 274 379 q 391 439 365 413 q 425 497 417 465 q 433 558 433 529 q 408 650 433 614 q 319 697 382 686 l 319 700 q 391 744 365 710 q 417 832 417 778 q 366 947 417 911 q 211 983 315 983 q 123 972 161 983 q 60 938 85 961 q 10 794 10 890 l 149 794 q 161 853 149 828 q 213 878 174 878 q 253 860 238 878 q 269 817 269 843 q 252 766 269 789 q 194 743 235 743 l 156 743 l 156 646 l 194 646 q 238 638 222 646 q 263 617 254 629 q 275 589 272 604 q 278 558 278 574 q 263 506 278 528 q 215 485 249 485 q 163 512 176 485 q 147 578 149 539 m 751 1007 l 188 -39 l 311 -39 l 875 1007 l 751 1007 m 793 221 l 671 221 l 790 422 l 793 422 l 793 221 m 557 233 l 557 107 l 793 107 l 793 0 l 940 0 l 940 107 l 1001 107 l 1001 221 l 940 221 l 940 594 l 768 594 l 557 233 z "},"¼":{"ha":1001,"x_min":0,"x_max":1001,"o":"m 126 792 l 126 389 l 282 389 l 282 983 l 163 983 q 114 912 153 935 q 11 889 75 889 l 0 889 l 0 792 l 126 792 m 697 1007 l 133 -39 l 257 -39 l 821 1007 l 697 1007 m 557 233 l 557 107 l 793 107 l 793 0 l 940 0 l 940 107 l 1001 107 l 1001 221 l 940 221 l 940 594 l 768 594 l 557 233 m 793 422 l 793 221 l 671 221 l 790 422 l 793 422 z "},"¹":{"ha":433,"x_min":33,"x_max":315,"o":"m 160 792 l 160 389 l 315 389 l 315 983 l 196 983 q 147 912 186 935 q 44 889 108 889 l 33 889 l 33 792 l 160 792 z "},"×":{"ha":833,"x_min":82,"x_max":751,"o":"m 299 351 l 82 136 l 201 17 l 417 233 l 632 17 l 751 136 l 535 351 l 751 567 l 632 686 l 417 469 l 201 686 l 82 567 l 299 351 z "},"Þ":{"ha":721,"x_min":69,"x_max":692,"o":"m 269 365 l 269 667 l 353 667 q 460 628 428 667 q 492 514 492 589 q 455 401 492 438 q 358 365 418 365 l 269 365 m 69 992 l 69 0 l 269 0 l 269 218 l 376 218 q 506 236 447 218 q 605 290 564 254 q 669 383 646 326 q 692 517 692 440 q 678 626 692 572 q 632 721 664 679 q 548 788 600 763 q 419 814 496 814 l 269 814 l 269 992 l 69 992 z "},"¦":{"ha":308,"x_min":68,"x_max":240,"o":"m 68 1011 l 68 635 l 240 635 l 240 1011 l 68 1011 m 68 357 l 68 -15 l 240 -15 l 240 357 l 68 357 z "},"Ð":{"ha":797,"x_min":0,"x_max":735,"o":"m 279 585 l 279 844 l 364 844 q 455 823 421 844 q 506 759 489 801 q 529 653 524 717 q 535 504 535 589 q 528 335 535 403 q 503 225 522 267 q 453 165 485 183 q 368 147 421 147 l 279 147 l 279 438 l 408 438 l 408 585 l 279 585 m 79 438 l 79 0 l 394 0 q 560 31 494 0 q 664 124 625 61 q 719 283 703 186 q 735 510 735 379 q 722 708 735 619 q 674 860 710 797 q 575 958 639 924 q 407 992 511 992 l 79 992 l 79 585 l 0 585 l 0 438 l 79 438 z "},"½":{"ha":1001,"x_min":0,"x_max":1001,"o":"m 568 0 l 1001 0 l 1001 114 l 757 114 q 778 153 761 131 q 831 203 794 175 l 910 264 q 983 347 964 306 q 1001 444 1001 388 q 952 553 1001 513 q 790 594 903 594 q 619 549 671 594 q 568 422 568 504 l 568 388 l 715 388 q 718 422 715 404 q 728 455 721 440 q 750 479 736 469 q 786 489 764 489 q 830 470 814 489 q 846 424 846 451 q 832 366 846 392 q 778 311 818 340 l 708 261 q 599 142 629 206 q 568 0 568 79 m 126 792 l 126 389 l 282 389 l 282 983 l 163 983 q 114 912 153 935 q 11 889 75 889 l 0 889 l 0 792 l 126 792 m 664 1007 l 100 -39 l 224 -39 l 788 1007 l 664 1007 z "},"−":{"ha":833,"x_min":65,"x_max":768,"o":"m 65 438 l 65 265 l 768 265 l 768 438 l 65 438 z "},"ð":{"ha":667,"x_min":39,"x_max":628,"o":"m 92 868 l 146 810 l 253 872 q 322 788 289 831 q 381 706 356 746 l 378 703 q 329 731 354 722 q 281 739 304 739 q 171 713 217 739 q 96 640 125 688 q 53 524 67 592 q 39 374 39 457 q 53 202 39 276 q 100 78 67 128 q 190 6 133 29 q 333 -15 247 -17 q 472 8 415 -15 q 563 81 528 32 q 613 204 597 131 q 628 374 628 278 q 613 550 628 469 q 569 701 599 631 q 498 834 540 771 q 400 958 456 897 l 507 1021 l 447 1079 l 343 1017 q 298 1060 321 1039 q 250 1104 275 1082 l 106 1019 q 151 976 128 999 q 197 931 174 954 l 92 868 m 231 364 q 233 461 231 417 q 247 538 236 506 q 278 590 257 571 q 333 608 299 608 q 414 551 392 608 q 436 364 436 493 q 414 170 436 229 q 333 111 392 111 q 278 130 299 111 q 247 182 257 149 q 233 262 236 215 q 231 364 231 308 z "},"þ":{"ha":694,"x_min":64,"x_max":649,"o":"m 64 992 l 64 -240 l 256 -240 l 256 69 l 258 69 q 327 5 289 25 q 419 -15 365 -15 q 593 75 538 -15 q 649 374 649 165 q 593 674 649 582 q 419 767 538 767 q 322 744 361 767 q 258 668 283 721 l 256 668 l 256 992 l 64 992 m 256 374 q 274 558 256 496 q 357 619 293 619 q 438 558 419 619 q 457 374 457 496 q 438 190 457 251 q 357 128 419 128 q 274 190 293 128 q 256 374 256 251 z "},"²":{"ha":433,"x_min":0,"x_max":433,"o":"m 0 389 l 433 389 l 433 503 l 189 503 q 210 542 193 519 q 263 592 226 564 l 342 653 q 415 735 396 694 q 433 833 433 776 q 384 942 433 901 q 222 983 335 983 q 51 938 103 983 q 0 811 0 893 l 0 776 l 147 776 q 150 811 147 793 q 160 844 153 829 q 182 868 168 858 q 218 878 196 878 q 262 859 246 878 q 278 813 278 840 q 264 755 278 781 q 210 700 250 729 l 140 650 q 31 531 61 594 q 0 389 0 468 z "},"³":{"ha":433,"x_min":0,"x_max":433,"o":"m 147 578 l 0 578 l 0 564 q 47 428 0 476 q 199 379 94 379 q 319 396 274 379 q 391 439 365 413 q 425 497 417 465 q 433 558 433 529 q 408 650 433 614 q 319 697 382 686 l 319 700 q 391 744 365 710 q 417 832 417 778 q 366 947 417 911 q 211 983 315 983 q 123 972 161 983 q 60 938 85 961 q 10 794 10 890 l 149 794 q 161 853 149 828 q 213 878 174 878 q 253 860 238 878 q 269 817 269 843 q 252 766 269 789 q 194 743 235 743 l 156 743 l 156 646 l 194 646 q 238 638 222 646 q 263 617 254 629 q 275 589 272 604 q 278 558 278 574 q 263 506 278 528 q 215 485 249 485 q 163 512 176 485 q 147 578 149 539 z "},"Š":{"ha":721,"x_min":31,"x_max":690,"o":"m 153 1250 l 261 1050 l 461 1050 l 569 1250 l 431 1250 l 364 1132 l 300 1250 l 153 1250 m 231 310 l 31 310 l 31 269 q 103 58 31 132 q 346 -15 176 -15 q 599 56 508 -15 q 690 285 690 128 q 682 368 690 331 q 652 437 674 406 q 594 495 631 468 q 501 547 558 522 l 347 614 q 264 672 283 640 q 244 749 244 703 q 249 792 244 771 q 267 828 254 813 q 303 854 281 844 q 358 864 325 864 q 442 826 417 864 q 467 717 467 788 l 658 717 l 658 744 q 635 866 658 815 q 572 949 613 917 q 474 997 531 982 q 351 1011 418 1011 q 126 939 208 1011 q 44 719 44 867 q 60 612 44 658 q 108 530 75 565 q 189 468 140 494 q 304 419 238 442 q 388 387 354 403 q 443 351 422 371 q 473 308 464 332 q 482 250 482 283 q 445 158 482 188 q 363 128 408 128 q 298 139 324 128 q 257 169 272 150 q 236 217 242 189 q 231 281 231 246 l 231 310 z "},"Ý":{"ha":722,"x_min":4,"x_max":718,"o":"m 346 1250 l 271 1050 l 401 1050 l 538 1250 l 346 1250 m 229 992 l 4 992 l 261 390 l 261 0 l 461 0 l 461 390 l 718 992 l 501 992 l 363 608 l 360 608 l 229 992 z "},"Ž":{"ha":668,"x_min":33,"x_max":635,"o":"m 126 1250 l 235 1050 l 435 1050 l 543 1250 l 404 1250 l 338 1132 l 274 1250 l 126 1250 m 33 146 l 33 0 l 635 0 l 635 164 l 258 164 l 629 840 l 629 992 l 58 992 l 58 828 l 399 828 l 33 146 z "},"š":{"ha":617,"x_min":32,"x_max":585,"o":"m 100 1035 l 208 835 l 408 835 l 517 1035 l 378 1035 l 311 917 l 247 1035 l 100 1035 m 204 244 l 32 244 l 32 218 q 44 120 32 164 q 88 46 57 76 q 173 0 119 15 q 307 -15 226 -15 q 419 -3 368 -15 q 506 39 469 10 q 564 112 543 68 q 585 215 585 156 q 547 349 585 300 q 419 429 510 399 l 304 468 q 238 506 256 483 q 221 556 221 528 q 248 616 221 596 q 311 636 275 636 q 377 609 358 636 q 396 524 396 582 l 568 524 l 568 554 q 506 711 568 656 q 313 767 443 767 q 187 749 239 767 q 101 700 135 731 q 53 628 68 669 q 38 542 38 588 q 78 412 38 463 q 197 333 118 361 l 332 285 q 381 255 360 274 q 401 200 401 236 q 375 133 401 156 q 304 111 349 111 q 230 141 256 111 q 204 219 204 171 l 204 244 z "},"ý":{"ha":617,"x_min":7,"x_max":610,"o":"m 293 1035 l 218 835 l 349 835 l 485 1035 l 293 1035 m 64 -97 l 64 -240 l 142 -240 q 252 -231 208 -240 q 327 -190 296 -221 q 381 -101 358 -158 q 429 50 404 -43 l 610 747 l 418 747 l 321 231 l 318 231 l 207 747 l 7 747 l 217 0 q 190 -74 213 -46 q 114 -101 167 -101 q 64 -97 89 -101 z "},"ž":{"ha":592,"x_min":33,"x_max":558,"o":"m 88 1035 l 196 835 l 396 835 l 504 1035 l 365 1035 l 299 917 l 235 1035 l 88 1035 m 33 147 l 33 0 l 558 0 l 558 156 l 260 156 l 558 600 l 558 747 l 47 747 l 47 592 l 332 592 l 33 147 z "},"̀":{"ha":0,"x_min":-324,"x_max":-60,"o":"m -190 835 l -60 835 l -135 1035 l -324 1035 l -190 835 z "},"́":{"ha":0,"x_min":-240,"x_max":25,"o":"m -165 1035 l -240 835 l -110 835 l 25 1035 l -165 1035 z "},"̂":{"ha":0,"x_min":-365,"x_max":67,"o":"m -365 847 l -271 847 q -226 897 -260 897 q -190 890 -210 897 q -149 874 -171 882 q -106 858 -128 865 q -61 850 -83 850 q 26 899 -8 850 q 67 1022 60 947 l -32 1022 q -42 990 -32 1008 q -71 972 -51 972 q -112 981 -92 972 l -179 1010 q -239 1019 -200 1019 q -323 975 -292 1019 q -365 847 -354 931 z "},"̃":{"ha":0,"x_min":-356,"x_max":57,"o":"m -250 1035 l -356 835 l -219 835 l -153 953 l -89 835 l 57 835 l -50 1035 l -250 1035 z "},"̄":{"ha":0,"x_min":-351,"x_max":53,"o":"m 53 992 l -351 992 l -351 886 l 53 886 l 53 992 z "},"̆":{"ha":0,"x_min":-340,"x_max":42,"o":"m -253 1035 l -340 1035 q -331 973 -340 1007 q -301 909 -322 939 q -243 859 -281 879 q -150 839 -206 839 q -57 859 -94 839 q 2 909 -19 879 q 33 973 24 939 q 42 1035 42 1007 l -47 1035 q -81 969 -51 994 q -150 944 -110 944 q -219 969 -190 944 q -253 1035 -249 994 z "},"̇":{"ha":0,"x_min":-228,"x_max":-72,"o":"m -72 1011 l -228 1011 l -228 847 l -72 847 l -72 1011 z "},"̈":{"ha":0,"x_min":-344,"x_max":46,"o":"m -108 1011 l -108 847 l 46 847 l 46 1011 l -108 1011 m -344 1011 l -344 847 l -192 847 l -192 1011 l -344 1011 z "},"̊":{"ha":0,"x_min":-306,"x_max":7,"o":"m -231 969 q -207 1026 -231 1003 q -150 1050 -183 1050 q -93 1026 -117 1050 q -69 969 -69 1003 q -93 913 -69 936 q -150 889 -117 889 q -207 913 -183 889 q -231 969 -231 936 m -306 969 q -294 908 -306 936 q -262 858 -283 879 q -212 824 -240 836 q -150 811 -183 811 q -88 824 -117 811 q -38 858 -60 836 q -5 908 -17 879 q 7 969 7 936 q -5 1031 7 1003 q -38 1081 -17 1060 q -88 1115 -60 1103 q -150 1128 -117 1128 q -212 1115 -183 1128 q -262 1081 -240 1103 q -294 1031 -283 1060 q -306 969 -306 1003 z "},"̋":{"ha":0,"x_min":-353,"x_max":140,"o":"m -50 1035 l -125 835 l 4 835 l 140 1035 l -50 1035 m -281 1035 l -353 835 l -225 835 l -89 1035 l -281 1035 z "},"̌":{"ha":0,"x_min":-356,"x_max":57,"o":"m -356 1035 l -250 835 l -50 835 l 57 1035 l -81 1035 l -147 917 l -211 1035 l -356 1035 z "},"̧":{"ha":0,"x_min":-304,"x_max":8,"o":"m -100 0 l -175 0 l -251 -124 l -221 -151 q -199 -145 -210 -147 q -174 -143 -189 -143 q -129 -156 -146 -143 q -112 -190 -112 -169 q -133 -224 -112 -210 q -182 -237 -153 -237 q -235 -231 -208 -237 q -278 -217 -262 -225 l -304 -281 q -249 -299 -287 -290 q -165 -307 -211 -307 q -36 -273 -81 -307 q 8 -176 8 -239 q -1 -133 8 -151 q -28 -101 -11 -114 q -65 -81 -44 -87 q -107 -74 -86 -74 q -130 -76 -119 -74 q -153 -81 -140 -78 l -100 0 z "},"̨":{"ha":0,"x_min":-271,"x_max":13,"o":"m 13 -275 l -12 -196 q -51 -212 -33 -207 q -94 -218 -69 -218 q -135 -202 -121 -218 q -149 -162 -149 -186 q -143 -130 -149 -146 q -122 -94 -137 -114 q -79 -51 -107 -75 q -7 0 -51 -28 l -100 0 q -228 -76 -185 -28 q -271 -187 -271 -125 q -265 -231 -271 -210 q -242 -269 -258 -253 q -201 -297 -226 -286 q -137 -307 -175 -307 q -59 -299 -103 -307 q 13 -275 -15 -290 z "},"̸":{"ha":0,"x_min":-458,"x_max":7,"o":"m -147 1011 l -458 -15 l -306 -15 l 7 1011 l -147 1011 z "},"Ə":{"ha":763,"x_min":49,"x_max":714,"o":"m 376 -15 q 208 21 272 -15 q 108 120 143 57 q 60 269 72 183 q 49 456 49 356 q 49 519 49 488 q 51 582 49 550 l 513 582 q 503 709 510 656 q 481 798 496 763 q 440 850 465 833 q 376 867 415 867 q 289 823 314 867 q 254 688 264 779 l 56 688 q 83 821 64 761 q 138 923 101 881 q 231 988 174 965 q 376 1011 289 1011 q 556 973 489 1011 q 658 867 622 935 q 703 703 693 799 q 714 496 714 608 q 703 287 714 381 q 658 126 693 193 q 556 22 622 58 q 376 -15 489 -15 m 376 125 q 442 142 417 125 q 483 195 468 158 q 505 289 499 232 q 513 428 511 346 l 249 428 q 255 289 250 346 q 274 195 260 232 q 312 142 288 158 q 376 125 336 125 z "},"Ƣ":{"ha":1063,"x_min":49,"x_max":993,"o":"m 793 828 l 671 828 l 671 132 q 386 -15 582 -15 q 207 22 274 -15 q 105 126 140 58 q 59 287 69 193 q 49 496 49 381 q 59 703 49 608 q 105 867 69 799 q 207 973 140 935 q 386 1011 274 1011 q 522 992 467 1011 l 993 992 l 993 -240 l 793 -240 l 793 828 m 386 128 q 442 138 421 128 q 471 161 463 149 l 471 832 q 440 854 458 844 q 386 864 421 864 q 315 844 342 864 q 273 779 288 824 q 253 665 258 735 q 249 496 249 596 q 253 326 249 396 q 273 212 258 256 q 315 148 288 168 q 386 128 342 128 z "},"ƣ":{"ha":946,"x_min":39,"x_max":882,"o":"m 690 603 l 582 603 l 582 114 q 488 20 546 56 q 333 -15 431 -15 q 190 8 247 -15 q 100 81 133 32 q 53 202 67 129 q 39 374 39 275 q 54 543 39 469 q 104 666 69 617 q 195 741 139 715 q 333 767 251 767 q 397 762 369 767 q 446 747 424 757 l 882 747 l 882 -240 l 690 -240 l 690 603 m 333 111 q 390 133 368 111 l 390 614 q 333 636 368 636 q 277 617 297 636 q 247 563 257 597 q 233 479 236 528 q 231 374 231 431 q 233 268 231 317 q 247 185 236 219 q 277 131 257 150 q 333 111 297 111 z "},"Ƶ":{"ha":668,"x_min":33,"x_max":635,"o":"m 33 146 l 186 431 l 82 431 l 82 594 l 274 594 l 399 828 l 58 828 l 58 992 l 629 992 l 629 840 l 494 594 l 603 594 l 603 431 l 404 431 l 258 164 l 635 164 l 635 0 l 33 0 l 33 146 z "},"ƶ":{"ha":592,"x_min":33,"x_max":558,"o":"m 33 147 l 150 321 l 64 321 l 64 447 l 235 447 l 332 592 l 47 592 l 47 747 l 558 747 l 558 600 l 456 447 l 536 447 l 536 321 l 371 321 l 260 156 l 558 156 l 558 0 l 33 0 l 33 147 z "},"ə":{"ha":649,"x_min":39,"x_max":610,"o":"m 313 -14 q 176 13 229 -14 q 92 90 122 40 q 50 209 61 139 q 39 365 39 279 l 39 408 l 418 408 l 418 468 q 413 533 418 501 q 397 588 408 564 q 368 627 386 613 q 324 642 350 642 q 253 607 275 642 q 222 501 231 572 l 50 501 q 119 700 56 632 q 321 768 182 768 q 483 733 425 768 q 569 641 542 697 q 603 514 597 585 q 610 372 610 443 q 599 228 610 297 q 558 104 589 158 q 468 18 526 50 q 313 -14 410 -14 m 319 117 q 367 130 349 117 q 397 165 386 143 q 413 213 408 186 q 418 265 418 239 l 418 294 l 222 294 q 228 219 224 251 q 242 163 232 186 q 272 128 253 140 q 319 117 290 117 z "},"Ѐ":{"ha":668,"x_min":69,"x_max":638,"o":"m 69 992 l 624 992 l 624 828 l 269 828 l 269 594 l 603 594 l 603 431 l 269 431 l 269 164 l 638 164 l 638 0 l 69 0 l 69 992 m 175 1250 l 363 1250 l 438 1050 l 307 1050 l 175 1250 z "},"Ё":{"ha":668,"x_min":69,"x_max":638,"o":"m 69 992 l 624 992 l 624 828 l 269 828 l 269 594 l 603 594 l 603 431 l 269 431 l 269 164 l 638 164 l 638 0 l 69 0 l 69 992 m 536 1226 l 536 1063 l 381 1063 l 381 1226 l 536 1226 m 297 1226 l 297 1063 l 146 1063 l 146 1226 l 297 1226 z "},"Ђ":{"ha":903,"x_min":17,"x_max":861,"o":"m 517 135 q 589 142 561 135 q 632 169 617 149 q 653 228 647 190 q 658 328 658 267 q 638 449 658 408 q 551 490 617 490 q 476 471 503 490 q 438 421 450 451 q 424 353 426 390 q 422 283 422 317 l 422 0 l 224 0 l 224 828 l 17 828 l 17 992 l 683 992 l 683 828 l 422 828 l 422 528 q 450 565 432 546 q 493 598 468 583 q 551 622 518 613 q 624 631 583 631 q 799 551 738 631 q 861 329 861 472 q 847 168 861 233 q 797 62 833 103 q 698 3 761 21 q 536 -15 635 -15 l 517 -15 l 517 135 z "},"Ѓ":{"ha":617,"x_min":75,"x_max":604,"o":"m 75 992 l 604 992 l 604 828 l 275 828 l 275 0 l 75 0 l 75 992 m 497 1250 l 361 1050 l 231 1050 l 306 1250 l 497 1250 z "},"Є":{"ha":746,"x_min":49,"x_max":700,"o":"m 372 -15 q 194 28 260 -15 q 97 142 129 71 q 57 304 65 213 q 49 492 49 396 q 56 681 49 588 q 97 847 64 774 q 197 966 129 921 q 383 1011 264 1011 q 526 990 468 1011 q 622 927 585 968 q 675 825 658 886 q 693 685 692 764 l 499 685 q 469 824 496 781 q 383 867 442 867 q 283 799 311 867 q 250 589 254 731 l 474 589 l 474 428 l 249 428 q 256 296 250 353 q 276 201 261 239 q 317 144 292 164 q 383 125 343 125 q 476 176 447 125 q 506 357 504 228 l 700 357 q 684 207 699 275 q 633 90 669 139 q 534 13 597 40 q 372 -15 471 -15 z "},"Ѕ":{"ha":721,"x_min":31,"x_max":690,"o":"m 346 -15 q 103 58 176 -15 q 31 269 31 132 l 31 310 l 231 310 l 231 281 q 236 217 231 246 q 257 169 242 189 q 297 139 272 150 q 363 128 322 128 q 445 158 408 128 q 482 250 482 188 q 473 308 482 283 q 443 351 464 332 q 388 387 422 371 q 304 419 354 403 q 189 468 238 442 q 108 530 140 494 q 60 612 75 565 q 44 719 44 658 q 126 939 44 867 q 351 1011 208 1011 q 474 997 418 1011 q 572 949 531 982 q 635 866 613 917 q 658 744 658 815 l 658 717 l 467 717 q 442 826 467 788 q 358 864 417 864 q 303 854 325 864 q 267 828 281 844 q 249 792 254 813 q 244 749 244 771 q 264 672 244 703 q 347 614 283 640 l 501 547 q 594 495 557 522 q 652 437 631 468 q 682 368 674 406 q 690 285 690 331 q 599 56 690 128 q 346 -15 508 -15 z "},"І":{"ha":358,"x_min":79,"x_max":279,"o":"m 79 992 l 279 992 l 279 0 l 79 0 l 79 992 z "},"Ї":{"ha":358,"x_min":-17,"x_max":374,"o":"m 79 992 l 279 992 l 279 0 l 79 0 l 79 992 m 374 1226 l 374 1063 l 218 1063 l 218 1226 l 374 1226 m 135 1226 l 135 1063 l -17 1063 l -17 1226 l 135 1226 z "},"Ј":{"ha":643,"x_min":21,"x_max":582,"o":"m 283 -15 q 153 7 204 -15 q 73 68 103 29 q 32 159 43 107 q 21 271 21 211 l 21 314 l 204 314 l 204 283 q 222 166 204 204 q 293 128 239 128 q 365 166 347 128 q 382 283 382 204 l 382 992 l 582 992 l 582 278 q 508 52 582 119 q 283 -15 435 -15 z "},"Љ":{"ha":1193,"x_min":0,"x_max":1160,"o":"m 86 -8 q 40 -6 67 -8 q 0 0 13 -3 l 0 171 q 16 169 7 169 q 28 168 25 168 q 72 172 51 168 q 108 198 92 175 q 135 271 124 221 q 155 413 147 321 q 167 645 163 504 q 171 992 171 786 l 736 992 l 736 617 l 842 617 q 977 601 918 617 q 1076 549 1036 585 q 1138 454 1117 513 q 1160 313 1160 396 q 1138 168 1160 228 q 1076 71 1117 108 q 976 17 1035 33 q 842 0 917 0 l 536 0 l 536 828 l 360 828 q 355 522 360 653 q 339 299 350 392 q 308 146 328 206 q 257 52 288 86 q 184 5 226 18 q 86 -8 142 -8 m 792 151 q 919 185 882 151 q 956 311 956 219 q 945 387 956 357 q 915 434 935 417 q 866 458 896 451 q 797 465 836 465 l 736 465 l 736 151 l 792 151 z "},"Њ":{"ha":1160,"x_min":69,"x_max":1126,"o":"m 69 992 l 269 992 l 269 613 l 503 613 l 503 992 l 703 992 l 703 613 l 808 613 q 944 597 885 613 q 1043 547 1003 582 q 1105 453 1083 511 q 1126 313 1126 396 q 1105 168 1126 228 q 1042 71 1083 108 q 942 17 1001 33 q 808 0 883 0 l 503 0 l 503 440 l 269 440 l 269 0 l 69 0 l 69 992 m 758 151 q 885 185 849 151 q 922 311 922 219 q 912 386 922 357 q 882 432 901 415 q 833 455 863 449 q 764 461 803 461 l 703 461 l 703 151 l 758 151 z "},"Ћ":{"ha":897,"x_min":17,"x_max":842,"o":"m 224 828 l 17 828 l 17 992 l 683 992 l 683 828 l 422 828 l 422 608 q 485 619 453 615 q 550 622 518 622 q 772 558 701 622 q 842 354 842 493 l 842 0 l 642 0 l 642 336 q 631 401 642 376 q 603 440 621 426 q 561 459 585 454 q 511 464 538 464 q 469 462 493 464 q 422 456 446 460 l 422 0 l 224 0 l 224 828 z "},"Ќ":{"ha":746,"x_min":69,"x_max":772,"o":"m 69 992 l 269 992 l 269 594 l 272 594 l 525 992 l 742 992 l 472 567 l 772 0 l 547 0 l 343 407 l 269 294 l 269 0 l 69 0 l 69 992 m 575 1250 l 439 1050 l 308 1050 l 383 1250 l 575 1250 z "},"Ѝ":{"ha":788,"x_min":69,"x_max":718,"o":"m 69 992 l 260 992 l 260 356 l 503 992 l 718 992 l 718 0 l 528 0 l 528 635 l 285 0 l 69 0 l 69 992 m 207 1250 l 394 1250 l 469 1050 l 339 1050 l 207 1250 z "},"Ў":{"ha":722,"x_min":3,"x_max":719,"o":"m 185 -6 q 164 -6 172 -6 q 147 -5 156 -6 q 126 -3 138 -4 q 94 0 114 -3 l 94 151 q 153 147 124 147 q 224 172 201 147 q 265 243 246 197 l 275 265 l 3 992 l 225 992 l 371 504 l 511 992 l 719 992 l 482 278 q 433 147 457 200 q 376 59 408 93 q 299 10 344 25 q 185 -6 253 -6 m 371 1054 q 230 1106 281 1054 q 176 1249 179 1157 l 268 1249 q 301 1183 274 1207 q 371 1160 329 1160 q 440 1183 413 1160 q 474 1249 468 1207 l 565 1249 q 512 1106 563 1157 q 371 1054 461 1054 z "},"Џ":{"ha":772,"x_min":69,"x_max":703,"o":"m 294 0 l 69 0 l 69 992 l 269 992 l 269 164 l 503 164 l 503 992 l 703 992 l 703 0 l 479 0 l 479 -196 l 294 -196 l 294 0 z "},"А":{"ha":772,"x_min":0,"x_max":772,"o":"m 263 992 l 510 992 l 772 0 l 564 0 l 518 210 l 254 210 l 208 0 l 0 0 l 263 992 m 483 374 l 388 819 l 385 819 l 289 374 l 483 374 z "},"Б":{"ha":764,"x_min":69,"x_max":708,"o":"m 69 992 l 649 992 l 649 828 l 269 828 l 269 610 l 392 610 q 526 594 467 610 q 625 544 585 579 q 687 452 665 510 q 708 311 708 394 q 686 167 708 226 q 621 71 664 108 q 517 17 578 33 q 376 0 456 0 l 69 0 l 69 992 m 340 153 q 414 160 383 153 q 465 185 444 167 q 494 233 485 203 q 504 313 504 264 q 465 427 504 397 q 346 457 425 457 l 269 457 l 269 153 l 340 153 z "},"В":{"ha":772,"x_min":69,"x_max":717,"o":"m 69 992 l 404 992 q 517 979 465 992 q 607 938 569 967 q 665 860 644 908 q 686 740 686 811 q 649 602 686 660 q 536 524 611 544 l 536 521 q 668 450 619 510 q 717 290 717 390 q 701 179 717 232 q 649 87 686 126 q 553 24 613 47 q 407 0 494 0 l 69 0 l 69 992 m 347 147 q 464 179 419 147 q 508 297 508 211 q 497 369 508 340 q 465 415 485 397 q 417 439 444 432 q 356 446 389 446 l 269 446 l 269 147 l 347 147 m 326 585 q 448 615 410 585 q 486 715 486 644 q 451 815 486 786 q 342 844 417 844 l 269 844 l 269 585 l 326 585 z "},"Г":{"ha":617,"x_min":75,"x_max":604,"o":"m 75 992 l 604 992 l 604 828 l 275 828 l 275 0 l 75 0 l 75 992 z "},"Д":{"ha":860,"x_min":0,"x_max":846,"o":"m 0 164 l 79 164 q 137 302 117 235 q 166 440 157 369 q 177 587 175 511 q 179 750 179 663 l 179 992 l 753 992 l 753 164 l 846 164 l 846 -196 l 661 -196 l 661 0 l 185 0 l 185 -196 l 0 -196 l 0 164 m 557 164 l 557 828 l 369 828 l 369 667 q 366 542 369 608 q 354 408 363 475 q 331 278 346 342 q 294 164 317 215 l 557 164 z "},"Е":{"ha":668,"x_min":69,"x_max":638,"o":"m 69 992 l 624 992 l 624 828 l 269 828 l 269 594 l 603 594 l 603 431 l 269 431 l 269 164 l 638 164 l 638 0 l 69 0 l 69 992 z "},"Ж":{"ha":1101,"x_min":-21,"x_max":1122,"o":"m 261 572 l 13 992 l 219 992 l 454 585 l 454 992 l 647 992 l 647 585 l 882 992 l 1089 992 l 840 572 l 1122 0 l 906 0 l 722 399 l 647 275 l 647 0 l 454 0 l 454 275 l 379 399 l 196 0 l -21 0 l 261 572 z "},"З":{"ha":742,"x_min":31,"x_max":686,"o":"m 347 -15 q 199 3 260 -15 q 101 59 139 21 q 47 156 64 97 q 31 293 31 214 l 31 306 l 231 306 l 231 296 q 235 233 231 263 q 253 179 239 203 q 290 142 267 156 q 354 128 314 128 q 448 165 417 128 q 479 282 479 201 q 446 402 479 367 q 338 438 413 438 q 308 438 329 438 q 274 436 288 438 l 274 592 q 292 590 281 590 q 311 590 304 590 q 428 626 393 590 q 463 746 463 663 q 435 838 463 810 q 358 865 407 865 q 281 845 313 865 q 242 779 249 825 q 238 753 239 764 q 238 722 238 742 l 42 722 l 42 731 q 124 941 42 871 q 361 1011 206 1011 q 583 944 506 1011 q 660 750 660 876 q 651 678 660 714 q 623 611 642 642 q 576 558 604 581 q 513 525 549 535 q 640 451 594 507 q 686 294 686 394 q 598 60 686 136 q 347 -15 510 -15 z "},"И":{"ha":788,"x_min":69,"x_max":718,"o":"m 69 992 l 260 992 l 260 356 l 503 992 l 718 992 l 718 0 l 528 0 l 528 635 l 285 0 l 69 0 l 69 992 z "},"Й":{"ha":788,"x_min":69,"x_max":718,"o":"m 69 992 l 260 992 l 260 356 l 503 992 l 718 992 l 718 0 l 528 0 l 528 635 l 285 0 l 69 0 l 69 992 m 404 1054 q 263 1106 314 1054 q 210 1249 213 1157 l 301 1249 q 335 1183 307 1207 q 404 1160 363 1160 q 474 1183 446 1160 q 507 1249 501 1207 l 599 1249 q 545 1106 596 1157 q 404 1054 494 1054 z "},"К":{"ha":746,"x_min":69,"x_max":772,"o":"m 69 992 l 269 992 l 269 594 l 272 594 l 525 992 l 742 992 l 472 567 l 772 0 l 547 0 l 343 407 l 269 294 l 269 0 l 69 0 l 69 992 z "},"Л":{"ha":806,"x_min":0,"x_max":736,"o":"m 86 -8 q 40 -6 67 -8 q 0 0 13 -3 l 0 171 q 16 169 7 169 q 28 168 25 168 q 72 172 51 168 q 108 198 92 175 q 135 271 124 221 q 155 413 147 321 q 167 645 163 504 q 171 992 171 786 l 736 992 l 736 0 l 536 0 l 536 828 l 360 828 q 355 522 360 653 q 339 299 350 392 q 308 146 328 206 q 257 52 288 86 q 184 5 226 18 q 86 -8 142 -8 z "},"М":{"ha":1028,"x_min":74,"x_max":954,"o":"m 74 992 l 371 992 l 513 292 l 515 292 l 658 992 l 954 992 l 954 0 l 771 0 l 771 792 l 768 792 l 592 0 l 436 0 l 260 792 l 257 792 l 257 0 l 74 0 l 74 992 z "},"Н":{"ha":772,"x_min":69,"x_max":703,"o":"m 69 992 l 269 992 l 269 613 l 503 613 l 503 992 l 703 992 l 703 0 l 503 0 l 503 440 l 269 440 l 269 0 l 69 0 l 69 992 z "},"О":{"ha":772,"x_min":49,"x_max":724,"o":"m 386 -15 q 207 22 274 -15 q 105 126 140 58 q 59 287 69 193 q 49 496 49 381 q 59 703 49 608 q 105 867 69 799 q 207 973 140 935 q 386 1011 274 1011 q 565 973 499 1011 q 667 867 632 935 q 713 703 703 799 q 724 496 724 608 q 713 287 724 381 q 667 126 703 193 q 565 22 632 58 q 386 -15 499 -15 m 386 128 q 458 148 431 128 q 499 212 485 168 q 519 326 514 256 q 524 496 524 396 q 519 665 524 596 q 499 779 514 735 q 458 844 485 824 q 386 864 431 864 q 315 844 342 864 q 273 779 288 824 q 253 665 258 735 q 249 496 249 596 q 253 326 249 396 q 273 212 258 256 q 315 148 288 168 q 386 128 342 128 z "},"П":{"ha":772,"x_min":69,"x_max":703,"o":"m 69 992 l 703 992 l 703 0 l 503 0 l 503 828 l 269 828 l 269 0 l 69 0 l 69 992 z "},"Р":{"ha":721,"x_min":69,"x_max":692,"o":"m 69 992 l 419 992 q 548 966 496 992 q 632 899 600 940 q 678 803 664 857 q 692 694 692 750 q 669 560 692 617 q 605 468 646 504 q 506 414 564 432 q 376 396 447 396 l 269 396 l 269 0 l 69 0 l 69 992 m 358 543 q 455 579 418 543 q 492 692 492 615 q 460 806 492 767 q 353 844 428 844 l 269 844 l 269 543 l 358 543 z "},"С":{"ha":746,"x_min":49,"x_max":701,"o":"m 386 -15 q 207 22 274 -15 q 105 126 140 58 q 59 287 69 193 q 49 496 49 381 q 59 703 49 608 q 105 867 69 799 q 207 973 140 935 q 386 1011 274 1011 q 555 976 493 1011 q 647 888 617 942 q 685 773 678 835 q 693 657 693 711 l 493 657 q 467 815 493 765 q 374 864 442 864 q 312 844 336 864 q 274 778 288 824 q 254 660 260 733 q 249 482 249 588 q 256 300 249 369 q 280 192 264 231 q 320 141 296 154 q 376 128 344 128 q 426 137 403 128 q 465 173 449 146 q 492 249 482 200 q 501 379 501 299 l 701 379 q 689 226 701 297 q 642 101 676 154 q 547 16 608 47 q 386 -15 485 -15 z "},"Т":{"ha":667,"x_min":17,"x_max":650,"o":"m 233 828 l 17 828 l 17 992 l 650 992 l 650 828 l 433 828 l 433 0 l 233 0 l 233 828 z "},"У":{"ha":722,"x_min":3,"x_max":719,"o":"m 185 -6 q 164 -6 172 -6 q 147 -5 156 -6 q 126 -3 138 -4 q 94 0 114 -3 l 94 151 q 153 147 124 147 q 224 172 201 147 q 265 243 246 197 l 275 265 l 3 992 l 225 992 l 371 504 l 511 992 l 719 992 l 482 278 q 433 147 457 200 q 376 59 408 93 q 299 10 344 25 q 185 -6 253 -6 z "},"Ф":{"ha":1064,"x_min":42,"x_max":1022,"o":"m 432 115 q 144 217 246 115 q 42 503 42 319 q 68 660 42 590 q 144 781 94 731 q 267 858 194 831 q 432 885 340 885 l 432 1011 l 632 1011 l 632 885 q 797 858 724 885 q 919 781 869 831 q 996 661 969 732 q 1022 503 1022 590 q 920 217 1022 319 q 632 115 818 115 l 632 -15 l 432 -15 l 432 115 m 439 731 q 353 714 389 731 q 293 667 317 697 q 258 596 269 638 q 247 503 247 554 q 293 334 247 399 q 439 269 339 269 l 439 731 m 625 269 q 771 334 725 269 q 817 503 817 399 q 806 596 817 554 q 771 667 794 638 q 711 714 747 697 q 625 731 675 731 l 625 269 l 625 269 z "},"Х":{"ha":746,"x_min":8,"x_max":738,"o":"m 256 501 l 28 992 l 249 992 l 376 671 l 503 992 l 721 992 l 490 501 l 738 0 l 513 0 l 369 336 l 228 0 l 8 0 l 256 501 z "},"Ц":{"ha":810,"x_min":69,"x_max":796,"o":"m 611 0 l 69 0 l 69 992 l 269 992 l 269 164 l 503 164 l 503 992 l 703 992 l 703 164 l 796 164 l 796 -196 l 611 -196 l 611 0 z "},"Ч":{"ha":733,"x_min":42,"x_max":664,"o":"m 464 386 q 399 376 433 379 q 332 372 364 372 q 111 437 181 372 q 42 640 42 501 l 42 992 l 242 992 l 242 658 q 252 593 242 618 q 280 554 263 568 q 321 535 297 540 q 371 531 344 531 q 415 533 389 531 q 464 539 440 535 l 464 992 l 664 992 l 664 0 l 464 0 l 464 386 z "},"Ш":{"ha":1156,"x_min":69,"x_max":1086,"o":"m 69 992 l 269 992 l 269 164 l 478 164 l 478 992 l 678 992 l 678 164 l 886 164 l 886 992 l 1086 992 l 1086 0 l 69 0 l 69 992 z "},"Щ":{"ha":1193,"x_min":69,"x_max":1179,"o":"m 994 0 l 69 0 l 69 992 l 269 992 l 269 164 l 478 164 l 478 992 l 678 992 l 678 164 l 886 164 l 886 992 l 1086 992 l 1086 164 l 1179 164 l 1179 -196 l 994 -196 l 994 0 z "},"Ъ":{"ha":856,"x_min":17,"x_max":819,"o":"m 196 828 l 17 828 l 17 992 l 396 992 l 396 617 l 501 617 q 637 601 578 617 q 736 549 696 585 q 798 454 776 513 q 819 313 819 396 q 798 168 819 228 q 735 71 776 108 q 635 17 694 33 q 501 0 576 0 l 196 0 l 196 828 m 451 151 q 578 185 542 151 q 615 311 615 219 q 605 387 615 357 q 575 434 594 417 q 526 458 556 451 q 457 465 496 465 l 396 465 l 396 151 l 451 151 z "},"Ы":{"ha":1044,"x_min":69,"x_max":975,"o":"m 69 992 l 269 992 l 269 617 l 375 617 q 510 601 451 617 q 610 549 569 585 q 672 454 650 513 q 693 313 693 396 q 672 168 693 228 q 609 71 650 108 q 509 17 568 33 q 375 0 450 0 l 69 0 l 69 992 m 325 151 q 452 185 415 151 q 489 311 489 219 q 478 387 489 357 q 449 434 468 417 q 399 458 429 451 q 331 465 369 465 l 269 465 l 269 151 l 325 151 m 775 992 l 975 992 l 975 0 l 775 0 l 775 992 z "},"Ь":{"ha":726,"x_min":69,"x_max":693,"o":"m 69 992 l 269 992 l 269 617 l 375 617 q 510 601 451 617 q 610 549 569 585 q 672 454 650 513 q 693 313 693 396 q 672 168 693 228 q 609 71 650 108 q 509 17 568 33 q 375 0 450 0 l 69 0 l 69 992 m 325 151 q 452 185 415 151 q 489 311 489 219 q 478 387 489 357 q 449 434 468 417 q 399 458 429 451 q 331 465 369 465 l 269 465 l 269 151 l 325 151 z "},"Э":{"ha":746,"x_min":46,"x_max":697,"o":"m 360 -15 q 198 13 260 -15 q 103 90 136 40 q 58 207 69 139 q 46 357 47 275 l 240 357 q 270 176 242 228 q 363 125 299 125 q 428 144 403 125 q 469 201 454 164 q 490 296 485 239 q 497 428 496 353 l 272 428 l 272 589 l 496 589 q 463 799 492 731 q 363 867 435 867 q 277 824 304 867 q 247 685 250 781 l 53 685 q 71 825 54 764 q 124 927 88 886 q 219 990 161 968 q 363 1011 278 1011 q 549 966 482 1011 q 649 847 617 921 q 690 681 682 774 q 697 492 697 588 q 690 304 697 396 q 649 142 682 213 q 547 28 615 71 q 360 -15 479 -15 z "},"Ю":{"ha":1106,"x_min":69,"x_max":1057,"o":"m 719 -15 q 549 17 614 -15 q 447 108 483 49 q 397 249 411 167 q 382 435 383 332 l 269 435 l 269 0 l 69 0 l 69 992 l 269 992 l 269 607 l 383 607 q 404 772 388 697 q 458 899 421 846 q 558 982 494 953 q 719 1011 621 1011 q 899 973 832 1011 q 1001 867 965 935 q 1047 703 1036 799 q 1057 496 1057 608 q 1047 287 1057 381 q 1001 126 1036 193 q 899 22 965 58 q 719 -15 832 -15 m 719 128 q 791 148 764 128 q 833 212 818 168 q 852 326 847 256 q 857 496 857 396 q 852 665 857 596 q 833 779 847 735 q 791 844 818 824 q 719 864 764 864 q 648 844 675 864 q 606 779 621 824 q 587 665 592 735 q 582 496 582 596 q 587 326 582 396 q 606 212 592 256 q 648 148 621 168 q 719 128 675 128 z "},"Я":{"ha":750,"x_min":0,"x_max":681,"o":"m 213 406 q 86 504 132 435 q 40 688 40 574 q 63 826 40 768 q 126 920 85 883 q 225 974 167 957 q 354 992 283 992 l 681 992 l 681 0 l 482 0 l 482 382 l 410 382 l 221 0 l 0 0 l 213 406 m 483 529 l 483 844 l 404 844 q 283 809 321 844 q 244 688 244 774 q 282 563 244 597 q 399 529 319 529 l 483 529 z "},"а":{"ha":668,"x_min":39,"x_max":619,"o":"m 219 -15 q 135 3 169 -15 q 79 51 100 21 q 49 118 58 81 q 39 194 39 156 q 50 285 39 247 q 84 351 61 324 q 142 396 107 378 q 228 428 178 414 l 336 457 q 396 488 379 468 q 413 544 413 507 q 392 612 413 588 q 324 636 372 636 q 257 610 279 636 q 235 539 235 583 l 235 518 l 63 518 l 63 536 q 83 644 63 600 q 140 716 104 689 q 223 755 175 743 q 325 767 271 767 q 463 750 410 767 q 546 703 517 733 q 585 630 575 672 q 596 538 596 588 l 596 144 q 601 63 596 92 q 619 0 606 33 l 436 0 q 422 38 426 18 q 413 78 417 58 l 410 78 q 333 2 376 19 q 219 -15 289 -15 m 294 111 q 335 117 314 111 q 373 138 356 124 q 401 173 390 151 q 413 226 413 194 l 413 374 q 371 349 393 358 q 331 336 349 340 q 247 294 272 324 q 222 215 222 265 q 239 142 222 172 q 294 111 256 111 z "},"б":{"ha":675,"x_min":53,"x_max":636,"o":"m 335 -15 q 183 21 239 -15 q 97 120 126 57 q 60 269 68 183 q 53 454 53 356 q 63 636 53 547 q 104 798 74 725 q 188 920 135 871 q 328 982 242 969 q 433 1001 399 993 q 474 1029 468 1010 l 617 1029 q 601 934 617 971 q 558 876 586 897 q 487 846 529 856 q 390 831 444 836 q 292 813 333 825 q 223 774 250 800 q 181 708 196 749 q 161 603 165 667 l 167 603 q 202 667 179 640 q 253 712 225 694 q 313 738 281 729 q 376 746 344 746 q 501 717 451 746 q 581 639 551 689 q 624 519 611 589 q 636 367 636 450 q 624 210 636 281 q 578 90 611 140 q 486 13 544 40 q 335 -15 428 -15 m 343 111 q 392 124 372 111 q 423 166 411 136 q 440 245 435 196 q 444 368 444 294 q 439 493 444 444 q 422 570 433 542 q 392 610 411 599 q 346 621 372 621 q 299 609 318 621 q 267 567 279 597 q 250 488 256 538 q 244 361 244 438 q 265 168 244 225 q 343 111 286 111 z "},"в":{"ha":674,"x_min":64,"x_max":626,"o":"m 64 747 l 379 747 q 469 738 428 747 q 541 705 511 728 q 588 646 571 682 q 604 558 604 610 q 576 453 604 497 q 489 394 547 410 q 626 213 626 365 q 608 109 626 150 q 555 44 589 68 q 474 10 521 19 q 374 0 428 0 l 64 0 l 64 747 m 328 133 q 408 152 381 133 q 436 229 436 171 q 410 306 436 286 q 328 325 385 325 l 253 325 l 253 133 l 328 133 m 300 450 q 349 452 326 450 q 386 463 371 454 q 410 487 401 471 q 418 532 418 503 q 410 576 418 560 q 386 600 401 592 q 349 610 371 608 q 299 613 326 613 l 253 613 l 253 450 l 300 450 z "},"г":{"ha":531,"x_min":68,"x_max":525,"o":"m 68 747 l 525 747 l 525 603 l 260 603 l 260 0 l 68 0 l 68 747 z "},"д":{"ha":735,"x_min":0,"x_max":725,"o":"m 0 144 l 63 144 q 116 323 97 219 q 135 579 135 426 l 135 747 l 639 747 l 639 144 l 725 144 l 725 -174 l 551 -174 l 551 0 l 174 0 l 174 -174 l 0 -174 l 0 144 m 453 144 l 453 603 l 314 603 l 314 536 q 310 439 314 492 q 297 333 306 386 q 277 231 289 281 q 250 144 265 182 l 453 144 z "},"е":{"ha":643,"x_min":36,"x_max":607,"o":"m 325 -15 q 163 20 221 -15 q 76 112 104 56 q 42 239 49 168 q 36 381 36 310 q 47 525 36 456 q 88 649 57 594 q 178 735 119 703 q 333 767 236 767 q 470 740 417 767 q 554 663 524 713 q 596 544 585 614 q 607 388 607 474 l 607 344 l 228 344 l 228 285 q 233 220 228 251 q 249 165 238 189 q 278 126 260 140 q 322 111 296 111 q 393 146 371 111 q 424 251 415 181 l 596 251 q 527 53 590 121 q 325 -15 464 -15 m 424 458 q 418 534 422 501 q 403 590 414 567 q 374 624 393 613 q 326 636 356 636 q 278 623 297 636 q 249 588 260 610 q 233 540 238 567 q 228 488 228 514 l 228 458 l 424 458 z "},"ж":{"ha":967,"x_min":-4,"x_max":971,"o":"m 211 444 l 13 747 l 207 747 l 392 444 l 392 747 l 575 747 l 575 444 l 760 747 l 954 747 l 756 444 l 971 0 l 775 0 l 639 301 l 575 207 l 575 0 l 392 0 l 392 207 l 328 301 l 192 0 l -4 0 l 211 444 z "},"з":{"ha":638,"x_min":36,"x_max":590,"o":"m 307 -15 q 106 42 176 -15 q 36 233 36 100 l 36 247 l 207 247 l 207 238 q 229 144 207 176 q 307 111 251 111 q 374 140 349 111 q 399 217 399 168 q 376 298 399 275 q 306 321 354 321 q 277 321 299 321 q 240 319 256 321 l 240 453 q 272 451 251 451 q 299 451 293 451 q 360 474 335 451 q 386 554 386 497 q 364 619 386 597 q 306 640 342 640 q 238 613 257 640 q 218 538 218 585 l 218 528 l 49 528 l 49 540 q 68 646 49 603 q 123 716 88 689 q 208 755 158 743 q 315 767 257 767 q 508 713 446 767 q 571 564 571 660 q 564 509 571 536 q 543 459 557 482 q 508 419 529 436 q 460 394 488 403 q 556 338 522 382 q 590 219 590 294 q 570 115 590 160 q 513 42 550 71 q 423 -1 475 13 q 307 -15 371 -15 z "},"и":{"ha":714,"x_min":64,"x_max":650,"o":"m 64 747 l 244 747 l 244 276 l 447 747 l 650 747 l 650 0 l 468 0 l 468 468 l 265 0 l 64 0 l 64 747 z "},"й":{"ha":714,"x_min":64,"x_max":650,"o":"m 64 747 l 244 747 l 244 276 l 447 747 l 650 747 l 650 0 l 468 0 l 468 468 l 265 0 l 64 0 l 64 747 m 349 839 q 208 890 258 839 q 154 1033 157 942 l 246 1033 q 279 968 251 992 q 349 944 307 944 q 418 968 390 944 q 451 1033 446 992 l 543 1033 q 490 890 540 942 q 349 839 439 839 z "},"к":{"ha":688,"x_min":64,"x_max":692,"o":"m 64 747 l 256 747 l 256 439 l 453 747 l 661 747 l 447 438 l 692 0 l 479 0 l 329 289 l 256 186 l 256 0 l 64 0 l 64 747 z "},"л":{"ha":729,"x_min":0,"x_max":665,"o":"m 96 -11 q 44 -8 72 -11 q 0 0 17 -4 l 0 143 q 17 141 7 142 q 35 140 28 140 q 70 145 54 140 q 99 170 86 150 q 120 229 111 190 q 135 335 129 268 q 144 503 142 403 q 147 747 147 604 l 665 747 l 665 0 l 474 0 l 474 603 l 329 603 q 314 277 329 399 q 269 92 299 156 q 197 8 240 28 q 96 -11 153 -11 z "},"м":{"ha":908,"x_min":64,"x_max":844,"o":"m 64 747 l 338 747 l 454 247 l 571 747 l 844 747 l 844 0 l 665 0 l 665 531 l 533 0 l 375 0 l 243 531 l 243 0 l 64 0 l 64 747 z "},"н":{"ha":694,"x_min":64,"x_max":631,"o":"m 64 747 l 256 747 l 256 471 l 439 471 l 439 747 l 631 747 l 631 0 l 439 0 l 439 318 l 256 318 l 256 0 l 64 0 l 64 747 z "},"о":{"ha":667,"x_min":39,"x_max":628,"o":"m 333 -15 q 190 8 247 -15 q 100 81 133 32 q 53 202 67 129 q 39 374 39 275 q 54 543 39 469 q 104 666 69 617 q 195 741 139 715 q 333 767 251 767 q 476 742 419 767 q 567 668 533 717 q 614 545 600 619 q 628 374 628 471 q 613 203 628 276 q 563 82 597 131 q 472 9 528 33 q 333 -15 415 -15 m 333 111 q 414 172 392 111 q 436 374 436 233 q 414 575 436 514 q 333 636 392 636 q 277 617 297 636 q 247 563 257 597 q 233 479 236 528 q 231 374 231 431 q 233 268 231 317 q 247 185 236 219 q 277 131 257 150 q 333 111 297 111 z "},"п":{"ha":694,"x_min":64,"x_max":631,"o":"m 64 747 l 631 747 l 631 0 l 439 0 l 439 603 l 256 603 l 256 0 l 64 0 l 64 747 z "},"р":{"ha":694,"x_min":64,"x_max":649,"o":"m 64 747 l 247 747 l 247 668 l 250 668 q 322 744 282 721 q 419 767 361 767 q 593 674 538 767 q 649 374 649 582 q 593 75 649 165 q 419 -15 538 -15 q 327 5 365 -15 q 258 69 289 25 l 256 69 l 256 -240 l 64 -240 l 64 747 m 357 128 q 438 190 419 128 q 457 374 457 251 q 438 558 457 496 q 357 619 419 619 q 274 558 293 619 q 256 374 256 496 q 274 190 256 251 q 357 128 293 128 z "},"с":{"ha":643,"x_min":36,"x_max":607,"o":"m 322 -15 q 197 3 250 -15 q 108 65 143 21 q 54 185 72 110 q 36 374 36 260 q 58 565 36 489 q 121 685 81 640 q 217 749 161 731 q 339 767 272 767 q 540 689 472 767 q 607 478 607 611 l 424 478 q 420 531 424 504 q 408 580 417 558 q 381 615 399 601 q 338 628 364 628 q 280 612 301 628 q 247 565 258 596 q 232 485 236 533 q 228 372 228 436 q 232 253 228 303 q 247 172 236 204 q 278 126 258 140 q 331 111 299 111 q 401 153 379 111 q 424 286 424 194 l 607 286 q 541 62 607 139 q 322 -15 475 -15 z "},"т":{"ha":582,"x_min":6,"x_max":576,"o":"m 196 603 l 6 603 l 6 747 l 576 747 l 576 603 l 386 603 l 386 0 l 196 0 l 196 603 z "},"у":{"ha":617,"x_min":7,"x_max":610,"o":"m 64 -240 l 64 -97 q 114 -101 89 -101 q 190 -74 167 -101 q 217 0 213 -46 l 7 747 l 207 747 l 318 231 l 321 231 l 418 747 l 610 747 l 429 50 q 381 -101 404 -44 q 327 -189 358 -158 q 252 -230 296 -219 q 142 -240 208 -240 l 64 -240 z "},"ф":{"ha":1017,"x_min":46,"x_max":971,"o":"m 413 58 q 353 3 385 21 q 269 -15 322 -15 q 142 25 188 -15 q 76 126 97 65 q 50 256 54 186 q 46 388 46 326 q 51 513 46 446 q 79 635 57 579 q 146 727 101 690 q 268 764 190 764 q 353 744 319 764 q 413 689 388 725 l 413 992 l 604 992 l 604 689 q 663 744 629 725 q 749 764 697 764 q 871 727 826 764 q 938 635 915 690 q 965 513 960 579 q 971 388 971 446 q 967 256 971 326 q 941 126 963 186 q 874 25 919 65 q 747 -15 829 -15 q 663 3 694 -15 q 604 58 632 21 l 604 -240 l 413 -240 l 413 58 m 336 128 q 384 143 364 128 q 415 193 404 158 l 415 550 q 384 600 404 582 q 332 618 364 618 q 280 600 299 618 q 251 549 261 582 q 240 470 242 515 q 238 371 238 425 q 240 272 238 317 q 253 194 243 226 q 283 145 264 163 q 336 128 303 128 m 681 128 q 733 145 714 128 q 763 194 753 163 q 776 272 774 226 q 779 371 779 317 q 777 470 779 425 q 765 549 775 515 q 737 600 756 582 q 685 618 718 618 q 633 600 653 618 q 601 550 613 582 l 601 193 q 633 143 613 158 q 681 128 653 128 z "},"х":{"ha":642,"x_min":10,"x_max":632,"o":"m 213 385 l 18 747 l 218 747 l 321 522 l 424 747 l 624 747 l 429 385 l 632 0 l 432 0 l 321 244 l 210 0 l 10 0 l 213 385 z "},"ц":{"ha":726,"x_min":64,"x_max":717,"o":"m 543 0 l 64 0 l 64 747 l 256 747 l 256 144 l 439 144 l 439 747 l 631 747 l 631 144 l 717 144 l 717 -174 l 543 -174 l 543 0 z "},"ч":{"ha":664,"x_min":46,"x_max":597,"o":"m 406 285 q 357 276 390 282 q 279 271 324 271 q 103 324 160 271 q 46 485 46 376 l 46 747 l 236 747 l 236 490 q 260 424 236 439 q 319 410 283 410 q 371 414 347 410 q 406 421 394 418 l 406 747 l 597 747 l 597 0 l 406 0 l 406 285 z "},"ш":{"ha":1022,"x_min":64,"x_max":958,"o":"m 64 747 l 256 747 l 256 144 l 415 144 l 415 747 l 607 747 l 607 144 l 767 144 l 767 747 l 958 747 l 958 0 l 64 0 l 64 747 z "},"щ":{"ha":1054,"x_min":64,"x_max":1044,"o":"m 871 0 l 64 0 l 64 747 l 256 747 l 256 144 l 415 144 l 415 747 l 607 747 l 607 144 l 767 144 l 767 747 l 958 747 l 958 144 l 1044 144 l 1044 -174 l 871 -174 l 871 0 z "},"ъ":{"ha":736,"x_min":6,"x_max":703,"o":"m 156 603 l 6 603 l 6 747 l 347 747 l 347 493 l 447 493 q 553 481 506 493 q 633 439 600 468 q 685 364 667 410 q 703 251 703 318 q 637 59 703 118 q 453 0 571 0 l 156 0 l 156 603 m 411 143 q 493 165 469 143 q 517 246 517 188 q 492 328 517 306 q 415 350 468 350 l 347 350 l 347 143 l 411 143 z "},"ы":{"ha":931,"x_min":64,"x_max":867,"o":"m 64 747 l 256 747 l 256 493 l 356 493 q 461 481 414 493 q 542 439 508 468 q 593 364 575 410 q 611 251 611 318 q 545 59 611 118 q 361 0 479 0 l 64 0 l 64 747 m 319 143 q 401 165 378 143 q 425 246 425 188 q 401 328 425 306 q 324 350 376 350 l 256 350 l 256 143 l 319 143 m 675 747 l 867 747 l 867 0 l 675 0 l 675 747 z "},"ь":{"ha":644,"x_min":64,"x_max":611,"o":"m 64 747 l 256 747 l 256 493 l 356 493 q 461 481 414 493 q 542 439 508 468 q 593 364 575 410 q 611 251 611 318 q 545 59 611 118 q 361 0 479 0 l 64 0 l 64 747 m 319 143 q 401 165 378 143 q 425 246 425 188 q 401 328 425 306 q 324 350 376 350 l 256 350 l 256 143 l 319 143 z "},"э":{"ha":643,"x_min":36,"x_max":604,"o":"m 310 -15 q 185 1 236 -15 q 101 51 133 18 q 53 133 68 83 q 36 247 38 182 l 214 247 q 241 142 218 174 q 308 111 264 111 q 390 164 368 111 q 415 319 413 217 l 233 319 l 233 451 l 415 451 q 385 596 410 556 q 308 636 361 636 q 265 626 282 636 q 238 599 249 615 q 224 560 228 582 q 218 517 219 539 l 36 517 q 110 703 44 640 q 306 767 175 767 q 458 738 399 767 q 549 658 517 710 q 592 533 581 607 q 604 371 604 460 q 590 217 604 288 q 543 94 576 146 q 453 14 510 43 q 310 -15 396 -15 z "},"ю":{"ha":967,"x_min":64,"x_max":928,"o":"m 633 -15 q 499 5 554 -15 q 410 67 444 25 q 360 171 376 108 q 340 318 343 233 l 256 318 l 256 0 l 64 0 l 64 747 l 256 747 l 256 465 l 342 465 q 423 690 356 613 q 633 767 490 767 q 776 742 719 767 q 867 668 833 717 q 914 545 900 619 q 928 374 928 471 q 913 203 928 276 q 863 82 897 131 q 772 9 828 33 q 633 -15 715 -15 m 633 111 q 714 172 692 111 q 736 374 736 233 q 714 575 736 514 q 633 636 692 636 q 577 617 597 636 q 547 563 557 597 q 533 479 536 528 q 531 374 531 431 q 533 268 531 317 q 547 185 536 219 q 577 131 557 150 q 633 111 597 111 z "},"я":{"ha":667,"x_min":4,"x_max":603,"o":"m 176 296 q 74 372 111 319 q 38 510 38 425 q 106 690 38 633 q 288 747 175 747 l 603 747 l 603 0 l 413 0 l 413 276 l 360 276 l 224 0 l 4 0 l 176 296 m 414 413 l 414 610 l 336 610 q 251 586 279 610 q 224 510 224 563 q 249 435 224 457 q 326 413 274 413 l 414 413 z "},"ѐ":{"ha":643,"x_min":36,"x_max":607,"o":"m 325 -15 q 163 20 221 -15 q 76 112 104 56 q 42 239 49 168 q 36 381 36 310 q 47 525 36 456 q 88 649 57 594 q 178 735 119 703 q 333 767 236 767 q 470 740 417 767 q 554 663 524 713 q 596 544 585 614 q 607 388 607 474 l 607 344 l 228 344 l 228 285 q 233 220 228 251 q 249 165 238 189 q 278 126 260 140 q 322 111 296 111 q 393 146 371 111 q 424 251 415 181 l 596 251 q 527 53 590 121 q 325 -15 464 -15 m 424 458 q 418 534 422 501 q 403 590 414 567 q 374 624 393 613 q 326 636 356 636 q 278 623 297 636 q 249 588 260 610 q 233 540 238 567 q 228 488 228 514 l 228 458 l 424 458 m 149 1035 l 336 1035 l 411 835 l 281 835 l 149 1035 z "},"ё":{"ha":643,"x_min":36,"x_max":607,"o":"m 325 -15 q 163 20 221 -15 q 76 112 104 56 q 42 239 49 168 q 36 381 36 310 q 47 525 36 456 q 88 649 57 594 q 178 735 119 703 q 333 767 236 767 q 470 740 417 767 q 554 663 524 713 q 596 544 585 614 q 607 388 607 474 l 607 344 l 228 344 l 228 285 q 233 220 228 251 q 249 165 238 189 q 278 126 260 140 q 322 111 296 111 q 393 146 371 111 q 424 251 415 181 l 596 251 q 527 53 590 121 q 325 -15 464 -15 m 424 458 q 418 534 422 501 q 403 590 414 567 q 374 624 393 613 q 326 636 356 636 q 278 623 297 636 q 249 588 260 610 q 233 540 238 567 q 228 488 228 514 l 228 458 l 424 458 m 524 1011 l 524 847 l 368 847 l 368 1011 l 524 1011 m 285 1011 l 285 847 l 133 847 l 133 1011 l 285 1011 z "},"ђ":{"ha":694,"x_min":-19,"x_max":631,"o":"m 374 -240 q 353 -240 365 -240 q 326 -238 340 -239 q 301 -237 313 -237 q 286 -235 290 -236 l 286 -99 q 310 -101 297 -100 q 332 -101 324 -101 q 382 -93 361 -101 q 415 -63 403 -85 q 433 -3 428 -42 q 439 97 439 36 l 439 426 q 419 508 439 485 q 357 531 400 531 q 256 407 256 531 l 256 0 l 64 0 l 64 744 l -19 744 l -19 875 l 64 875 l 64 992 l 256 992 l 256 875 l 464 875 l 464 744 l 256 744 l 256 582 l 258 582 q 440 678 314 678 q 581 628 532 678 q 631 465 631 578 l 631 103 q 622 -38 631 25 q 587 -146 614 -101 q 509 -215 560 -190 q 374 -240 458 -240 z "},"ѓ":{"ha":531,"x_min":68,"x_max":525,"o":"m 68 747 l 525 747 l 525 603 l 260 603 l 260 0 l 68 0 l 68 747 m 468 1035 l 332 835 l 201 835 l 276 1035 l 468 1035 z "},"є":{"ha":643,"x_min":38,"x_max":606,"o":"m 332 -15 q 189 9 246 -15 q 99 81 132 33 q 51 201 65 129 q 38 371 38 274 q 51 533 38 460 q 100 658 65 607 q 192 738 135 710 q 336 767 250 767 q 532 701 467 767 q 606 517 597 635 l 424 517 q 418 560 422 539 q 403 599 414 582 q 376 626 393 615 q 333 636 360 636 q 256 596 281 636 q 226 451 232 556 l 408 451 l 408 319 l 226 319 q 251 164 229 217 q 333 111 274 111 q 401 142 378 111 q 428 247 424 174 l 606 247 q 536 51 603 118 q 332 -15 469 -15 z "},"ѕ":{"ha":617,"x_min":32,"x_max":585,"o":"m 307 -15 q 172 1 225 -15 q 88 47 119 17 q 44 119 57 76 q 32 218 32 163 l 32 244 l 204 244 l 204 219 q 230 141 204 171 q 304 111 256 111 q 375 133 349 111 q 401 200 401 156 q 381 255 401 236 q 332 285 360 274 l 197 333 q 78 412 118 361 q 38 542 38 463 q 53 628 38 588 q 101 700 68 669 q 187 749 135 731 q 313 767 239 767 q 506 711 443 767 q 568 554 568 656 l 568 524 l 396 524 q 377 609 396 582 q 311 636 358 636 q 248 616 275 636 q 221 556 221 596 q 238 506 221 528 q 304 468 256 483 l 419 429 q 547 349 510 399 q 585 215 585 300 q 564 111 585 154 q 506 40 543 68 q 418 -2 469 11 q 307 -15 367 -15 z "},"і":{"ha":333,"x_min":71,"x_max":263,"o":"m 71 747 l 263 747 l 263 0 l 71 0 l 71 747 m 71 1003 l 263 1003 l 263 839 l 71 839 l 71 1003 z "},"ї":{"ha":333,"x_min":-29,"x_max":361,"o":"m 361 1011 l 361 847 l 206 847 l 206 1011 l 361 1011 m 122 1011 l 122 847 l -29 847 l -29 1011 l 122 1011 m 263 747 l 263 0 l 71 0 l 71 747 l 263 747 z "},"ј":{"ha":333,"x_min":-31,"x_max":263,"o":"m 43 -240 q 8 -240 26 -240 q -31 -237 -10 -239 l -31 -99 q 0 -101 -19 -101 q 59 -73 47 -101 q 71 14 71 -44 l 71 747 l 263 747 l 263 -47 q 252 -131 263 -94 q 217 -191 242 -167 q 149 -228 192 -215 q 43 -240 107 -240 m 71 1003 l 263 1003 l 263 839 l 71 839 l 71 1003 z "},"љ":{"ha":1054,"x_min":0,"x_max":1021,"o":"m 96 -11 q 44 -8 72 -11 q 0 0 17 -4 l 0 143 q 17 141 7 142 q 35 140 28 140 q 70 145 54 140 q 99 170 86 150 q 120 229 111 190 q 135 335 129 268 q 144 503 142 403 q 147 747 147 604 l 665 747 l 665 493 l 765 493 q 871 481 824 493 q 951 439 918 468 q 1003 364 985 410 q 1021 251 1021 318 q 955 59 1021 118 q 771 0 889 0 l 474 0 l 474 603 l 329 603 q 314 277 329 399 q 269 92 299 156 q 197 8 240 28 q 96 -11 153 -11 m 729 143 q 811 165 788 143 q 835 246 835 188 q 810 328 835 306 q 733 350 786 350 l 665 350 l 665 143 l 729 143 z "},"њ":{"ha":1019,"x_min":64,"x_max":986,"o":"m 64 747 l 256 747 l 256 471 l 439 471 l 439 747 l 631 747 l 631 471 l 740 471 q 843 459 797 471 q 921 420 889 447 q 969 349 953 393 q 986 242 986 306 q 923 56 986 113 q 746 0 860 0 l 439 0 l 439 321 l 256 321 l 256 0 l 64 0 l 64 747 m 704 143 q 779 167 758 143 q 800 242 800 190 q 778 315 800 294 q 708 336 757 336 l 631 336 l 631 143 l 704 143 z "},"ћ":{"ha":694,"x_min":-19,"x_max":631,"o":"m 64 744 l -19 744 l -19 875 l 64 875 l 64 992 l 256 992 l 256 875 l 464 875 l 464 744 l 256 744 l 256 582 l 258 582 q 440 678 314 678 q 581 628 532 678 q 631 465 631 578 l 631 0 l 439 0 l 439 426 q 419 508 439 485 q 357 531 400 531 q 256 407 256 531 l 256 0 l 64 0 l 64 744 z "},"ќ":{"ha":688,"x_min":64,"x_max":692,"o":"m 64 747 l 256 747 l 256 439 l 453 747 l 661 747 l 447 438 l 692 0 l 479 0 l 329 289 l 256 186 l 256 0 l 64 0 l 64 747 m 504 1035 l 368 835 l 238 835 l 313 1035 l 504 1035 z "},"ѝ":{"ha":714,"x_min":64,"x_max":650,"o":"m 64 747 l 244 747 l 244 276 l 447 747 l 650 747 l 650 0 l 468 0 l 468 468 l 265 0 l 64 0 l 64 747 m 183 1035 l 371 1035 l 446 835 l 315 835 l 183 1035 z "},"ў":{"ha":617,"x_min":7,"x_max":610,"o":"m 64 -240 l 64 -97 q 114 -101 89 -101 q 190 -74 167 -101 q 217 0 213 -46 l 7 747 l 207 747 l 318 231 l 321 231 l 418 747 l 610 747 l 429 50 q 381 -101 404 -44 q 327 -189 358 -158 q 252 -230 296 -219 q 142 -240 208 -240 l 64 -240 m 319 839 q 178 890 229 839 q 125 1033 128 942 l 217 1033 q 250 968 222 992 q 319 944 278 944 q 389 968 361 944 q 422 1033 417 992 l 514 1033 q 460 890 511 942 q 319 839 410 839 z "},"џ":{"ha":694,"x_min":64,"x_max":631,"o":"m 260 0 l 64 0 l 64 747 l 256 747 l 256 144 l 439 144 l 439 747 l 631 747 l 631 0 l 433 0 l 433 -174 l 260 -174 l 260 0 z "},"Ѣ":{"ha":811,"x_min":0,"x_max":778,"o":"m 154 731 l 0 731 l 0 876 l 154 876 l 154 992 l 354 992 l 354 876 l 592 876 l 592 731 l 354 731 l 354 617 l 460 617 q 595 601 536 617 q 694 549 654 585 q 756 454 735 513 q 778 313 778 396 q 756 168 778 228 q 694 71 735 108 q 594 17 653 33 q 460 0 535 0 l 154 0 l 154 731 m 410 151 q 537 185 500 151 q 574 311 574 219 q 563 387 574 357 q 533 434 553 417 q 484 458 514 451 q 415 465 454 465 l 354 465 l 354 151 l 410 151 z "},"ѣ":{"ha":697,"x_min":0,"x_max":664,"o":"m 117 617 l 0 617 l 0 747 l 117 747 l 117 992 l 308 992 l 308 747 l 499 747 l 499 617 l 308 617 l 308 493 l 408 493 q 514 481 467 493 q 594 439 561 468 q 646 364 628 410 q 664 251 664 318 q 598 59 664 118 q 414 0 532 0 l 117 0 l 117 617 m 372 143 q 454 165 431 143 q 478 246 478 188 q 453 328 478 306 q 376 350 429 350 l 308 350 l 308 143 l 372 143 z "},"Ѫ":{"ha":1144,"x_min":64,"x_max":1081,"o":"m 64 322 q 134 526 64 461 q 356 590 204 590 l 413 590 l 215 992 l 929 992 l 732 590 l 789 590 q 1010 526 940 590 q 1081 322 1081 461 l 1081 0 l 881 0 l 881 304 q 870 369 881 344 q 842 408 860 394 q 800 427 824 422 q 750 432 776 432 l 672 432 l 672 0 l 472 0 l 472 432 l 394 432 q 344 427 368 432 q 303 408 321 422 q 274 369 285 394 q 264 304 264 344 l 264 0 l 64 0 l 64 322 m 574 618 l 665 842 l 485 842 l 571 618 l 574 618 z "},"ѫ":{"ha":1011,"x_min":58,"x_max":953,"o":"m 58 221 q 115 382 58 329 q 292 435 172 435 l 363 435 l 204 747 l 810 747 l 651 435 l 719 435 q 896 382 839 435 q 953 221 953 329 l 953 0 l 763 0 l 763 215 q 739 281 763 267 q 679 296 715 296 l 601 296 l 601 0 l 410 0 l 410 296 l 332 296 q 272 281 296 296 q 249 215 249 267 l 249 0 l 58 0 l 58 221 m 572 617 l 450 617 l 507 453 l 572 617 z "},"Ѳ":{"ha":772,"x_min":49,"x_max":724,"o":"m 386 -15 q 207 22 274 -15 q 105 126 140 58 q 59 287 69 193 q 49 496 49 381 q 59 703 49 608 q 105 867 69 799 q 207 973 140 935 q 386 1011 274 1011 q 565 973 499 1011 q 667 867 632 935 q 713 703 703 799 q 724 496 724 608 q 713 287 724 381 q 667 126 703 193 q 565 22 632 58 q 386 -15 499 -15 m 386 128 q 453 144 426 128 q 494 198 479 161 q 515 293 508 235 q 522 435 521 351 q 494 406 508 417 q 464 394 479 394 q 423 406 444 394 q 379 433 401 418 q 337 459 357 447 q 300 471 317 471 q 273 463 286 471 q 249 440 260 454 q 256 297 250 356 q 278 200 263 238 q 319 145 293 163 q 386 128 344 128 m 464 544 q 522 568 496 544 q 515 703 521 647 q 493 795 508 760 q 452 847 478 831 q 386 864 426 864 q 322 849 347 864 q 281 800 296 833 q 258 714 265 767 q 249 586 250 661 q 275 611 261 601 q 304 621 289 621 q 347 609 324 621 q 391 583 369 597 q 432 556 413 568 q 464 544 451 544 z "},"ѳ":{"ha":667,"x_min":39,"x_max":628,"o":"m 333 -15 q 190 8 247 -15 q 100 81 133 32 q 53 202 67 129 q 39 374 39 275 q 54 543 39 469 q 104 666 69 617 q 195 741 139 715 q 333 767 251 767 q 476 742 419 767 q 567 668 533 717 q 614 545 600 619 q 628 374 628 471 q 613 203 628 276 q 563 82 597 131 q 472 9 528 33 q 333 -15 415 -15 m 333 111 q 410 163 388 111 q 436 333 433 214 q 409 298 424 313 q 378 283 394 283 q 349 293 363 283 q 324 315 336 303 q 299 338 311 328 q 274 347 286 347 q 251 335 261 347 q 231 308 240 324 q 237 228 232 264 q 253 165 242 192 q 284 125 265 139 q 333 111 303 111 m 389 404 q 435 443 413 404 q 406 591 429 546 q 333 636 383 636 q 282 620 301 636 q 251 576 263 604 q 236 509 240 549 q 231 422 232 469 q 254 455 242 442 q 282 468 267 468 q 313 458 299 468 q 342 436 328 449 q 367 414 356 424 q 389 404 379 404 z "},"Ѵ":{"ha":756,"x_min":4,"x_max":769,"o":"m 4 992 l 218 992 l 351 258 l 356 258 l 443 774 q 475 885 454 842 q 526 955 496 929 q 594 990 556 981 q 683 1000 633 1000 q 730 997 703 1000 q 769 992 757 994 l 769 821 q 753 823 763 822 q 742 824 744 824 q 708 822 724 824 q 678 812 692 821 q 654 784 665 803 q 636 731 643 765 l 482 0 l 225 0 l 4 992 z "},"ѵ":{"ha":638,"x_min":7,"x_max":660,"o":"m 7 747 l 207 747 l 307 213 l 310 213 l 372 579 q 400 672 382 636 q 442 726 418 707 q 497 752 467 746 q 564 758 528 758 q 615 755 588 758 q 660 747 643 751 l 660 604 q 642 606 653 606 q 625 607 632 607 q 576 596 597 607 q 544 538 556 585 l 415 0 l 193 0 l 7 747 z "},"Ҍ":{"ha":811,"x_min":0,"x_max":778,"o":"m 154 846 l 0 846 l 0 992 l 154 992 l 154 1139 l 354 1139 l 354 992 l 522 992 l 522 846 l 354 846 l 354 617 l 460 617 q 595 601 536 617 q 694 549 654 585 q 756 454 735 513 q 778 313 778 396 q 756 168 778 228 q 694 71 735 108 q 594 17 653 33 q 460 0 535 0 l 154 0 l 154 846 m 410 151 q 537 185 500 151 q 574 311 574 219 q 563 387 574 357 q 533 434 553 417 q 484 458 514 451 q 415 465 454 465 l 354 465 l 354 151 l 410 151 z "},"ҍ":{"ha":697,"x_min":-8,"x_max":664,"o":"m 117 586 l -8 586 l -8 717 l 117 717 l 117 868 l 308 868 l 308 717 l 471 717 l 471 586 l 308 586 l 308 493 l 408 493 q 514 481 467 493 q 594 439 561 468 q 646 364 628 410 q 664 251 664 318 q 598 59 664 118 q 414 0 532 0 l 117 0 l 117 586 m 372 143 q 454 165 431 143 q 478 246 478 188 q 453 328 478 306 q 376 350 429 350 l 308 350 l 308 143 l 372 143 z "},"Ґ":{"ha":617,"x_min":75,"x_max":604,"o":"m 75 992 l 419 992 l 419 1185 l 604 1185 l 604 828 l 275 828 l 275 0 l 75 0 l 75 992 z "},"ґ":{"ha":531,"x_min":68,"x_max":525,"o":"m 68 747 l 351 747 l 351 947 l 525 947 l 525 603 l 260 603 l 260 0 l 68 0 l 68 747 z "},"Ғ":{"ha":681,"x_min":7,"x_max":668,"o":"m 139 431 l 7 431 l 7 594 l 139 594 l 139 992 l 668 992 l 668 828 l 339 828 l 339 594 l 569 594 l 569 431 l 339 431 l 339 0 l 139 0 l 139 431 z "},"ғ":{"ha":569,"x_min":6,"x_max":564,"o":"m 107 313 l 6 313 l 6 457 l 107 457 l 107 747 l 564 747 l 564 603 l 299 603 l 299 457 l 478 457 l 478 313 l 299 313 l 299 0 l 107 0 l 107 313 z "},"Җ":{"ha":1135,"x_min":-21,"x_max":1135,"o":"m 950 0 l 906 0 l 722 399 l 647 275 l 647 0 l 454 0 l 454 275 l 379 399 l 196 0 l -21 0 l 261 572 l 13 992 l 219 992 l 454 585 l 454 992 l 647 992 l 647 585 l 882 992 l 1089 992 l 840 572 l 1042 164 l 1135 164 l 1135 -196 l 950 -196 l 950 0 z "},"җ":{"ha":981,"x_min":-4,"x_max":988,"o":"m 814 0 l 775 0 l 639 301 l 575 207 l 575 0 l 392 0 l 392 207 l 328 301 l 192 0 l -4 0 l 211 444 l 13 747 l 207 747 l 392 444 l 392 747 l 575 747 l 575 444 l 760 747 l 954 747 l 756 444 l 901 144 l 988 144 l 988 -174 l 814 -174 l 814 0 z "},"Ҙ":{"ha":742,"x_min":31,"x_max":686,"o":"m 333 -307 q 249 -299 288 -307 q 194 -281 211 -290 l 221 -217 q 263 -231 236 -225 q 317 -237 290 -237 q 366 -224 346 -237 q 386 -190 386 -210 q 369 -156 386 -169 q 325 -143 353 -143 q 299 -145 310 -143 q 278 -151 289 -147 l 247 -124 l 314 -14 q 199 3 247 -11 q 101 59 139 21 q 47 156 64 97 q 31 293 31 214 l 31 306 l 231 306 l 231 296 q 235 233 231 263 q 253 179 239 203 q 290 142 267 156 q 354 128 314 128 q 448 165 417 128 q 479 282 479 201 q 446 402 479 367 q 338 438 413 438 l 308 438 q 274 436 288 438 l 274 592 q 292 590 281 590 l 311 590 q 428 626 393 590 q 463 746 463 663 q 435 838 463 810 q 358 865 407 865 q 281 845 313 865 q 242 779 249 825 q 238 753 239 764 q 238 722 238 742 l 42 722 l 42 731 q 124 941 42 871 q 361 1011 206 1011 q 583 944 506 1011 q 660 750 660 876 q 651 678 660 714 q 623 611 642 642 q 576 558 604 581 q 513 525 549 535 q 640 451 594 507 q 686 294 686 394 q 597 60 686 136 q 389 -14 521 -4 l 346 -81 q 369 -76 358 -78 q 392 -74 379 -74 q 433 -81 413 -74 q 471 -101 454 -87 q 498 -133 488 -114 q 508 -176 508 -151 q 463 -273 508 -239 q 333 -307 418 -307 z "},"ҙ":{"ha":638,"x_min":36,"x_max":590,"o":"m 292 -307 q 208 -299 246 -307 q 153 -281 169 -290 l 179 -217 q 222 -231 194 -225 q 275 -237 249 -237 q 324 -224 304 -237 q 344 -190 344 -210 q 328 -156 344 -169 q 283 -143 311 -143 q 258 -145 268 -143 q 236 -151 247 -147 l 206 -124 l 272 -14 q 106 42 167 -7 q 36 233 36 100 l 36 247 l 207 247 l 207 238 q 229 144 207 176 q 307 111 251 111 q 374 140 349 111 q 399 217 399 168 q 376 298 399 275 q 306 321 354 321 l 276 321 q 240 319 256 321 l 240 453 q 272 451 251 451 l 299 451 q 360 474 335 451 q 386 554 386 497 q 364 619 386 597 q 306 640 342 640 q 238 613 257 640 q 218 538 218 585 l 218 528 l 49 528 l 49 540 q 68 646 49 603 q 123 716 88 689 q 208 755 158 743 q 315 767 257 767 q 508 713 446 767 q 571 564 571 660 q 564 509 571 536 q 543 459 557 482 q 508 419 529 436 q 460 394 488 403 q 556 338 522 382 q 590 219 590 294 q 570 115 590 160 q 513 42 550 71 q 422 -1 475 13 q 347 -14 388 -10 l 304 -81 q 327 -76 317 -78 q 350 -74 338 -74 q 392 -81 371 -74 q 429 -101 413 -87 q 456 -133 446 -114 q 467 -176 467 -151 q 422 -273 467 -239 q 292 -307 376 -307 z "},"Қ":{"ha":765,"x_min":69,"x_max":779,"o":"m 594 0 l 547 0 l 343 407 l 269 294 l 269 0 l 69 0 l 69 992 l 269 992 l 269 594 l 272 594 l 525 992 l 742 992 l 472 567 l 686 164 l 779 164 l 779 -196 l 594 -196 l 594 0 z "},"қ":{"ha":697,"x_min":64,"x_max":697,"o":"m 524 0 l 479 0 l 329 289 l 256 186 l 256 0 l 64 0 l 64 747 l 256 747 l 256 439 l 453 747 l 661 747 l 447 438 l 611 144 l 697 144 l 697 -174 l 524 -174 l 524 0 z "},"Ҝ":{"ha":807,"x_min":69,"x_max":835,"o":"m 69 992 l 269 992 l 269 613 l 317 613 l 317 796 l 400 796 l 400 613 l 410 613 l 611 992 l 818 992 l 557 536 l 835 0 l 610 0 l 401 440 l 400 440 l 400 240 l 317 240 l 317 440 l 269 440 l 269 0 l 69 0 l 69 992 z "},"ҝ":{"ha":753,"x_min":64,"x_max":757,"o":"m 64 747 l 256 747 l 256 471 l 297 471 l 297 604 l 367 604 l 367 471 l 372 471 l 533 747 l 742 747 l 526 413 l 757 0 l 529 0 l 371 318 l 367 318 l 367 167 l 297 167 l 297 318 l 256 318 l 256 0 l 64 0 l 64 747 z "},"Ҡ":{"ha":872,"x_min":17,"x_max":899,"o":"m 196 828 l 17 828 l 17 992 l 396 992 l 396 594 l 399 594 l 651 992 l 868 992 l 599 567 l 899 0 l 674 0 l 469 407 l 396 294 l 396 0 l 196 0 l 196 828 z "},"ҡ":{"ha":779,"x_min":6,"x_max":783,"o":"m 156 603 l 6 603 l 6 747 l 347 747 l 347 439 l 544 747 l 753 747 l 539 438 l 783 0 l 571 0 l 421 289 l 347 186 l 347 0 l 156 0 l 156 603 z "},"Ң":{"ha":772,"x_min":69,"x_max":796,"o":"m 611 0 l 503 0 l 503 440 l 269 440 l 269 0 l 69 0 l 69 992 l 269 992 l 269 613 l 503 613 l 503 992 l 703 992 l 703 164 l 796 164 l 796 -196 l 611 -196 l 611 0 z "},"ң":{"ha":694,"x_min":64,"x_max":717,"o":"m 543 0 l 439 0 l 439 318 l 256 318 l 256 0 l 64 0 l 64 747 l 256 747 l 256 471 l 439 471 l 439 747 l 631 747 l 631 144 l 717 144 l 717 -174 l 543 -174 l 543 0 z "},"Ҥ":{"ha":1044,"x_min":69,"x_max":1032,"o":"m 69 992 l 269 992 l 269 613 l 503 613 l 503 992 l 1032 992 l 1032 828 l 703 828 l 703 0 l 503 0 l 503 440 l 269 440 l 269 0 l 69 0 l 69 992 z "},"ҥ":{"ha":901,"x_min":64,"x_max":896,"o":"m 64 747 l 256 747 l 256 471 l 439 471 l 439 747 l 896 747 l 896 603 l 631 603 l 631 0 l 439 0 l 439 318 l 256 318 l 256 0 l 64 0 l 64 747 z "},"Ҫ":{"ha":746,"x_min":49,"x_max":701,"o":"m 354 -307 q 270 -299 308 -307 q 215 -281 232 -290 l 242 -217 q 284 -231 257 -225 q 338 -237 311 -237 q 387 -224 367 -237 q 407 -190 407 -210 q 390 -156 407 -169 q 346 -143 374 -143 q 320 -145 331 -143 q 299 -151 310 -147 l 268 -124 l 336 -12 q 207 21 258 -7 q 105 126 140 58 q 59 287 69 193 q 49 496 49 381 q 59 703 49 608 q 105 867 69 799 q 207 973 140 935 q 386 1011 274 1011 q 555 976 493 1011 q 647 888 617 942 q 685 773 678 835 q 693 657 693 711 l 493 657 q 467 815 493 765 q 374 864 442 864 q 312 844 336 864 q 274 778 288 824 q 254 660 260 733 q 249 482 249 588 q 256 300 249 369 q 280 192 264 231 q 320 141 296 154 q 376 128 344 128 q 426 137 403 128 q 465 173 449 146 q 492 249 482 200 q 501 379 501 299 l 701 379 q 689 226 701 297 q 642 101 676 154 q 546 15 608 47 q 410 -15 492 -11 l 367 -81 q 390 -76 379 -78 q 413 -74 400 -74 q 454 -81 433 -74 q 492 -101 475 -87 q 519 -133 508 -114 q 529 -176 529 -151 q 484 -273 529 -239 q 354 -307 439 -307 z "},"ҫ":{"ha":643,"x_min":36,"x_max":607,"o":"m 300 -307 q 216 -299 254 -307 q 161 -281 178 -290 l 188 -217 q 230 -231 203 -225 q 283 -237 257 -237 q 333 -224 313 -237 q 353 -190 353 -210 q 336 -156 353 -169 q 292 -143 319 -143 q 266 -145 276 -143 q 244 -151 256 -147 l 214 -124 l 282 -14 q 196 3 235 -10 q 108 65 143 21 q 54 185 72 110 q 36 374 36 260 q 58 565 36 489 q 121 685 81 640 q 217 749 161 731 q 339 767 272 767 q 540 689 472 767 q 607 478 607 611 l 424 478 q 420 531 424 504 q 408 580 417 558 q 381 615 399 601 q 338 628 364 628 q 280 612 301 628 q 247 565 258 596 q 232 485 236 533 q 228 372 228 436 q 232 253 228 303 q 247 172 236 204 q 278 126 258 140 q 331 111 299 111 q 401 153 379 111 q 424 286 424 194 l 607 286 q 540 61 607 139 q 356 -14 482 -7 l 313 -81 q 335 -76 325 -78 q 358 -74 346 -74 q 400 -81 379 -74 q 438 -101 421 -87 q 465 -133 454 -114 q 475 -176 475 -151 q 430 -273 475 -239 q 300 -307 385 -307 z "},"Ү":{"ha":722,"x_min":4,"x_max":718,"o":"m 261 390 l 4 992 l 229 992 l 360 608 l 363 608 l 501 992 l 718 992 l 461 390 l 461 0 l 261 0 l 261 390 z "},"ү":{"ha":617,"x_min":7,"x_max":610,"o":"m 215 18 l 7 747 l 207 747 l 314 238 l 317 238 l 418 747 l 610 747 l 407 18 l 407 -240 l 215 -240 l 215 18 z "},"Ұ":{"ha":722,"x_min":4,"x_max":718,"o":"m 261 186 l 101 186 l 101 332 l 261 332 l 261 390 l 4 992 l 229 992 l 360 608 l 363 608 l 501 992 l 718 992 l 461 390 l 461 332 l 618 332 l 618 186 l 461 186 l 461 0 l 261 0 l 261 186 z "},"ұ":{"ha":617,"x_min":7,"x_max":610,"o":"m 215 -143 l 97 -143 l 97 -11 l 215 -11 l 215 18 l 7 747 l 207 747 l 314 238 l 317 238 l 418 747 l 610 747 l 407 18 l 407 -11 l 526 -11 l 526 -143 l 407 -143 l 407 -240 l 215 -240 l 215 -143 z "},"Ҳ":{"ha":746,"x_min":8,"x_max":750,"o":"m 565 0 l 513 0 l 369 336 l 228 0 l 8 0 l 256 501 l 28 992 l 249 992 l 376 671 l 503 992 l 721 992 l 490 501 l 657 164 l 750 164 l 750 -196 l 565 -196 l 565 0 z "},"ҳ":{"ha":642,"x_min":10,"x_max":642,"o":"m 468 0 l 432 0 l 321 244 l 210 0 l 10 0 l 213 385 l 18 747 l 218 747 l 321 522 l 424 747 l 624 747 l 429 385 l 556 144 l 642 144 l 642 -174 l 468 -174 l 468 0 z "},"Ҷ":{"ha":771,"x_min":42,"x_max":757,"o":"m 572 0 l 464 0 l 464 386 q 399 376 433 379 q 332 372 364 372 q 111 437 181 372 q 42 640 42 501 l 42 992 l 242 992 l 242 658 q 252 593 242 618 q 280 554 263 568 q 321 535 297 540 q 371 531 344 531 q 415 533 389 531 q 464 539 440 535 l 464 992 l 664 992 l 664 164 l 757 164 l 757 -196 l 572 -196 l 572 0 z "},"ҷ":{"ha":693,"x_min":46,"x_max":683,"o":"m 510 0 l 406 0 l 406 285 q 357 276 390 282 q 279 271 324 271 q 103 324 160 271 q 46 485 46 376 l 46 747 l 236 747 l 236 490 q 260 424 236 439 q 319 410 283 410 q 371 414 347 410 q 406 421 394 418 l 406 747 l 597 747 l 597 144 l 683 144 l 683 -174 l 510 -174 l 510 0 z "},"Ҹ":{"ha":747,"x_min":42,"x_max":678,"o":"m 478 386 q 445 381 463 383 q 408 376 428 378 l 408 171 l 325 171 l 325 372 q 109 438 176 374 q 42 640 42 501 l 42 992 l 242 992 l 242 658 q 265 569 242 596 q 325 535 289 542 l 325 726 l 408 726 l 408 531 q 444 534 425 532 q 478 539 463 536 l 478 992 l 678 992 l 678 0 l 478 0 l 478 386 z "},"ҹ":{"ha":689,"x_min":46,"x_max":625,"o":"m 433 285 q 410 281 426 282 q 372 276 393 279 l 372 125 l 303 125 l 303 271 l 279 271 q 103 324 160 271 q 46 485 46 376 l 46 747 l 236 747 l 236 490 q 254 429 236 446 q 303 410 272 413 l 303 563 l 372 563 l 372 413 q 409 417 392 415 q 433 421 426 419 l 433 747 l 625 747 l 625 0 l 433 0 l 433 285 z "},"Һ":{"ha":733,"x_min":69,"x_max":692,"o":"m 69 992 l 269 992 l 269 619 q 335 630 300 626 q 401 633 369 633 q 622 569 553 633 q 692 365 692 504 l 692 0 l 492 0 l 492 347 q 481 413 492 388 q 453 451 471 438 q 413 470 436 465 q 363 475 389 475 q 319 473 344 475 q 269 467 293 471 l 269 0 l 69 0 l 69 992 z "},"һ":{"ha":694,"x_min":64,"x_max":631,"o":"m 64 992 l 256 992 l 256 671 l 258 671 q 440 767 314 767 q 581 717 532 767 q 631 554 631 667 l 631 0 l 439 0 l 439 515 q 419 597 439 574 q 357 619 400 619 q 256 496 256 619 l 256 0 l 64 0 l 64 992 z "},"Ӏ":{"ha":358,"x_min":79,"x_max":279,"o":"m 79 992 l 279 992 l 279 0 l 79 0 l 79 992 z "},"Ӂ":{"ha":1101,"x_min":-21,"x_max":1122,"o":"m 261 572 l 13 992 l 219 992 l 454 585 l 454 992 l 647 992 l 647 585 l 882 992 l 1089 992 l 840 572 l 1122 0 l 906 0 l 722 399 l 647 275 l 647 0 l 454 0 l 454 275 l 379 399 l 196 0 l -21 0 l 261 572 m 550 1054 q 409 1106 460 1054 q 356 1249 358 1157 l 447 1249 q 481 1183 453 1207 q 550 1160 508 1160 q 619 1183 592 1160 q 653 1249 647 1207 l 744 1249 q 691 1106 742 1157 q 550 1054 640 1054 z "},"ӂ":{"ha":967,"x_min":-4,"x_max":971,"o":"m 211 444 l 13 747 l 207 747 l 392 444 l 392 747 l 575 747 l 575 444 l 760 747 l 954 747 l 756 444 l 971 0 l 775 0 l 639 301 l 575 207 l 575 0 l 392 0 l 392 207 l 328 301 l 192 0 l -4 0 l 211 444 m 481 839 q 340 890 390 839 q 286 1033 289 942 l 378 1033 q 411 968 383 992 q 481 944 439 944 q 550 968 522 944 q 583 1033 578 992 l 675 1033 q 622 890 672 942 q 481 839 571 839 z "},"Ӑ":{"ha":772,"x_min":0,"x_max":772,"o":"m 263 992 l 510 992 l 772 0 l 564 0 l 518 210 l 254 210 l 208 0 l 0 0 l 263 992 m 483 374 l 388 819 l 385 819 l 289 374 l 483 374 m 281 1250 q 314 1185 285 1210 q 383 1160 343 1160 q 453 1185 424 1160 q 486 1250 482 1210 l 576 1250 q 567 1188 576 1222 q 536 1124 558 1154 q 476 1074 514 1094 q 383 1054 439 1054 q 290 1074 328 1054 q 233 1124 253 1094 q 203 1188 213 1154 q 194 1250 194 1222 l 281 1250 l 281 1250 z "},"ӑ":{"ha":668,"x_min":39,"x_max":619,"o":"m 219 -15 q 135 3 169 -15 q 79 51 100 21 q 49 118 58 81 q 39 194 39 156 q 50 285 39 247 q 84 351 61 324 q 142 396 107 378 q 228 428 178 414 l 336 457 q 396 488 379 468 q 413 544 413 507 q 392 612 413 588 q 324 636 372 636 q 257 610 279 636 q 235 539 235 583 l 235 518 l 63 518 l 63 536 q 83 644 63 600 q 140 716 104 689 q 223 755 175 743 q 325 767 271 767 q 463 750 410 767 q 546 703 517 733 q 585 630 575 672 q 596 538 596 588 l 596 144 q 601 63 596 92 q 619 0 606 33 l 436 0 q 422 38 426 18 q 413 78 417 58 l 410 78 q 333 2 376 19 q 219 -15 289 -15 m 294 111 q 335 117 314 111 q 373 138 356 124 q 401 173 390 151 q 413 226 413 194 l 413 374 q 371 349 393 358 q 331 336 349 340 q 247 294 272 324 q 222 215 222 265 q 239 142 222 172 q 294 111 256 111 m 229 1035 q 263 969 233 994 q 332 944 292 944 q 401 969 372 944 q 435 1035 431 994 l 525 1035 q 516 973 525 1007 q 485 909 507 939 q 425 859 463 879 q 332 839 388 839 q 239 859 276 839 q 181 909 201 879 q 152 973 161 939 q 143 1035 143 1007 l 229 1035 l 229 1035 z "},"Ӓ":{"ha":772,"x_min":0,"x_max":772,"o":"m 263 992 l 510 992 l 772 0 l 564 0 l 518 210 l 254 210 l 208 0 l 0 0 l 263 992 m 483 374 l 388 819 l 385 819 l 289 374 l 483 374 m 581 1226 l 581 1063 l 425 1063 l 425 1226 l 581 1226 m 342 1226 l 342 1063 l 190 1063 l 190 1226 l 342 1226 z "},"ӓ":{"ha":668,"x_min":39,"x_max":619,"o":"m 219 -15 q 135 3 169 -15 q 79 51 100 21 q 49 118 58 81 q 39 194 39 156 q 50 285 39 247 q 84 351 61 324 q 142 396 107 378 q 228 428 178 414 l 336 457 q 396 488 379 468 q 413 544 413 507 q 392 612 413 588 q 324 636 372 636 q 257 610 279 636 q 235 539 235 583 l 235 518 l 63 518 l 63 536 q 83 644 63 600 q 140 716 104 689 q 223 755 175 743 q 325 767 271 767 q 463 750 410 767 q 546 703 517 733 q 585 630 575 672 q 596 538 596 588 l 596 144 q 601 63 596 92 q 619 0 606 33 l 436 0 q 422 38 426 18 q 413 78 417 58 l 410 78 q 333 2 376 19 q 219 -15 289 -15 m 294 111 q 335 117 314 111 q 373 138 356 124 q 401 173 390 151 q 413 226 413 194 l 413 374 q 371 349 393 358 q 331 336 349 340 q 247 294 272 324 q 222 215 222 265 q 239 142 222 172 q 294 111 256 111 m 529 1011 l 529 847 l 374 847 l 374 1011 l 529 1011 m 290 1011 l 290 847 l 139 847 l 139 1011 l 290 1011 z "},"Ӕ":{"ha":1054,"x_min":-3,"x_max":1024,"o":"m 367 992 l 1010 992 l 1010 828 l 683 828 l 683 594 l 989 594 l 989 431 l 683 431 l 683 164 l 1024 164 l 1024 0 l 492 0 l 492 210 l 271 210 l 201 0 l -3 0 l 367 992 m 492 374 l 492 836 l 479 836 l 325 374 l 492 374 z "},"ӕ":{"ha":1003,"x_min":38,"x_max":965,"o":"m 218 -15 q 133 3 168 -15 q 78 51 99 21 q 47 118 57 81 q 38 194 38 156 q 49 285 38 247 q 83 351 60 324 q 141 396 106 378 q 226 428 176 414 l 335 457 q 394 488 378 468 q 411 544 411 507 q 391 612 411 588 q 322 636 371 636 q 256 610 278 636 q 233 539 233 583 l 233 518 l 61 518 l 61 536 q 82 644 61 600 q 138 716 103 689 q 222 755 174 743 q 324 767 269 767 q 442 748 399 767 q 517 678 486 729 q 584 744 538 721 q 693 767 631 767 q 829 740 776 767 q 913 663 882 713 q 954 544 943 614 q 965 388 965 474 l 965 344 l 589 344 l 589 285 q 594 220 589 251 q 610 165 599 189 q 638 126 621 140 q 682 111 656 111 q 751 146 729 111 q 782 251 774 181 l 954 251 q 884 53 949 121 q 685 -15 819 -15 q 531 21 582 -15 q 460 110 479 57 q 413 43 438 68 q 360 6 389 18 q 297 -11 332 -7 q 218 -15 263 -15 m 293 111 q 333 117 313 111 q 372 138 354 124 q 400 173 389 151 q 411 226 411 194 l 411 374 q 369 349 392 358 q 329 336 347 340 q 246 294 271 324 q 221 215 221 265 q 238 142 221 172 q 293 111 254 111 m 782 458 q 762 591 779 546 q 686 636 744 636 q 640 623 658 636 q 610 588 621 610 q 594 540 599 567 q 589 488 589 514 l 589 458 l 782 458 z "},"Ӗ":{"ha":668,"x_min":69,"x_max":638,"o":"m 69 992 l 624 992 l 624 828 l 269 828 l 269 594 l 603 594 l 603 431 l 269 431 l 269 164 l 638 164 l 638 0 l 69 0 l 69 992 m 363 1054 q 222 1106 272 1054 q 168 1249 171 1157 l 260 1249 q 293 1183 265 1207 q 363 1160 321 1160 q 432 1183 404 1160 q 465 1249 460 1207 l 557 1249 q 503 1106 554 1157 q 363 1054 453 1054 z "},"ӗ":{"ha":643,"x_min":36,"x_max":607,"o":"m 325 -15 q 163 20 221 -15 q 76 112 104 56 q 42 239 49 168 q 36 381 36 310 q 47 525 36 456 q 88 649 57 594 q 178 735 119 703 q 333 767 236 767 q 470 740 417 767 q 554 663 524 713 q 596 544 585 614 q 607 388 607 474 l 607 344 l 228 344 l 228 285 q 233 220 228 251 q 249 165 238 189 q 278 126 260 140 q 322 111 296 111 q 393 146 371 111 q 424 251 415 181 l 596 251 q 527 53 590 121 q 325 -15 464 -15 m 424 458 q 418 534 422 501 q 403 590 414 567 q 374 624 393 613 q 326 636 356 636 q 278 623 297 636 q 249 588 260 610 q 233 540 238 567 q 228 488 228 514 l 228 458 l 424 458 m 217 1035 q 250 969 221 994 q 319 944 279 944 q 389 969 360 944 q 422 1035 418 994 l 513 1035 q 503 973 513 1007 q 472 909 494 939 q 413 859 450 879 q 319 839 375 839 q 226 859 264 839 q 169 909 189 879 q 140 973 149 939 q 131 1035 131 1007 l 217 1035 l 217 1035 z "},"Ә":{"ha":763,"x_min":49,"x_max":714,"o":"m 376 -15 q 208 21 272 -15 q 108 120 143 57 q 60 269 72 183 q 49 456 49 356 q 49 519 49 488 q 51 582 49 550 l 513 582 q 503 709 510 656 q 481 798 496 763 q 440 850 465 833 q 376 867 415 867 q 289 823 314 867 q 254 688 264 779 l 56 688 q 83 821 64 761 q 138 923 101 881 q 231 988 174 965 q 376 1011 289 1011 q 556 973 489 1011 q 658 867 622 935 q 703 703 693 799 q 714 496 714 608 q 703 287 714 381 q 658 126 693 193 q 556 22 622 58 q 376 -15 489 -15 m 376 125 q 442 142 417 125 q 483 195 468 158 q 505 289 499 232 q 513 428 511 346 l 249 428 q 255 289 250 346 q 274 195 260 232 q 312 142 288 158 q 376 125 336 125 z "},"ә":{"ha":649,"x_min":39,"x_max":610,"o":"m 313 -14 q 176 13 229 -14 q 92 90 122 40 q 50 209 61 139 q 39 365 39 279 l 39 408 l 418 408 l 418 468 q 413 533 418 501 q 397 588 408 564 q 368 627 386 613 q 324 642 350 642 q 253 607 275 642 q 222 501 231 572 l 50 501 q 119 700 56 632 q 321 768 182 768 q 483 733 425 768 q 569 641 542 697 q 603 514 597 585 q 610 372 610 443 q 599 228 610 297 q 558 104 589 158 q 468 18 526 50 q 313 -14 410 -14 m 319 117 q 367 130 349 117 q 397 165 386 143 q 413 213 408 186 q 418 265 418 239 l 418 294 l 222 294 q 228 219 224 251 q 242 163 232 186 q 272 128 253 140 q 319 117 290 117 z "},"Ӝ":{"ha":1101,"x_min":-21,"x_max":1122,"o":"m 261 572 l 13 992 l 219 992 l 454 585 l 454 992 l 647 992 l 647 585 l 882 992 l 1089 992 l 840 572 l 1122 0 l 906 0 l 722 399 l 647 275 l 647 0 l 454 0 l 454 275 l 379 399 l 196 0 l -21 0 l 261 572 m 746 1226 l 746 1063 l 590 1063 l 590 1226 l 746 1226 m 507 1226 l 507 1063 l 356 1063 l 356 1226 l 507 1226 z "},"ӝ":{"ha":967,"x_min":-4,"x_max":971,"o":"m 211 444 l 13 747 l 207 747 l 392 444 l 392 747 l 575 747 l 575 444 l 760 747 l 954 747 l 756 444 l 971 0 l 775 0 l 639 301 l 575 207 l 575 0 l 392 0 l 392 207 l 328 301 l 192 0 l -4 0 l 211 444 m 678 1011 l 678 847 l 522 847 l 522 1011 l 678 1011 m 439 1011 l 439 847 l 288 847 l 288 1011 l 439 1011 z "},"Ӟ":{"ha":742,"x_min":31,"x_max":686,"o":"m 347 -15 q 199 3 260 -15 q 101 59 139 21 q 47 156 64 97 q 31 293 31 214 l 31 306 l 231 306 l 231 296 q 235 233 231 263 q 253 179 239 203 q 290 142 267 156 q 354 128 314 128 q 448 165 417 128 q 479 282 479 201 q 446 402 479 367 q 338 438 413 438 q 308 438 329 438 q 274 436 288 438 l 274 592 q 292 590 281 590 q 311 590 304 590 q 428 626 393 590 q 463 746 463 663 q 435 838 463 810 q 358 865 407 865 q 281 845 313 865 q 242 779 249 825 q 238 753 239 764 q 238 722 238 742 l 42 722 l 42 731 q 124 941 42 871 q 361 1011 206 1011 q 583 944 506 1011 q 660 750 660 876 q 651 678 660 714 q 623 611 642 642 q 576 558 604 581 q 513 525 549 535 q 640 451 594 507 q 686 294 686 394 q 598 60 686 136 q 347 -15 510 -15 m 565 1226 l 565 1063 l 410 1063 l 410 1226 l 565 1226 m 326 1226 l 326 1063 l 175 1063 l 175 1226 l 326 1226 z "},"ӟ":{"ha":638,"x_min":36,"x_max":590,"o":"m 307 -15 q 106 42 176 -15 q 36 233 36 100 l 36 247 l 207 247 l 207 238 q 229 144 207 176 q 307 111 251 111 q 374 140 349 111 q 399 217 399 168 q 376 298 399 275 q 306 321 354 321 q 277 321 299 321 q 240 319 256 321 l 240 453 q 272 451 251 451 q 299 451 293 451 q 360 474 335 451 q 386 554 386 497 q 364 619 386 597 q 306 640 342 640 q 238 613 257 640 q 218 538 218 585 l 218 528 l 49 528 l 49 540 q 68 646 49 603 q 123 716 88 689 q 208 755 158 743 q 315 767 257 767 q 508 713 446 767 q 571 564 571 660 q 564 509 571 536 q 543 459 557 482 q 508 419 529 436 q 460 394 488 403 q 556 338 522 382 q 590 219 590 294 q 570 115 590 160 q 513 42 550 71 q 423 -1 475 13 q 307 -15 371 -15 m 514 1011 l 514 847 l 358 847 l 358 1011 l 514 1011 m 275 1011 l 275 847 l 124 847 l 124 1011 l 275 1011 z "},"Ӣ":{"ha":788,"x_min":69,"x_max":718,"o":"m 69 992 l 260 992 l 260 356 l 503 992 l 718 992 l 718 0 l 528 0 l 528 635 l 285 0 l 69 0 l 69 992 m 596 1101 l 192 1101 l 192 1207 l 596 1207 l 596 1101 z "},"ӣ":{"ha":714,"x_min":64,"x_max":650,"o":"m 64 747 l 244 747 l 244 276 l 447 747 l 650 747 l 650 0 l 468 0 l 468 468 l 265 0 l 64 0 l 64 747 m 558 886 l 154 886 l 154 992 l 558 992 l 558 886 z "},"Ӥ":{"ha":788,"x_min":69,"x_max":718,"o":"m 69 992 l 260 992 l 260 356 l 503 992 l 718 992 l 718 0 l 528 0 l 528 635 l 285 0 l 69 0 l 69 992 m 589 1226 l 589 1063 l 433 1063 l 433 1226 l 589 1226 m 350 1226 l 350 1063 l 199 1063 l 199 1226 l 350 1226 z "},"ӥ":{"ha":714,"x_min":64,"x_max":650,"o":"m 64 747 l 244 747 l 244 276 l 447 747 l 650 747 l 650 0 l 468 0 l 468 468 l 265 0 l 64 0 l 64 747 m 551 1011 l 551 847 l 396 847 l 396 1011 l 551 1011 m 313 1011 l 313 847 l 161 847 l 161 1011 l 313 1011 z "},"Ӧ":{"ha":772,"x_min":49,"x_max":724,"o":"m 386 -15 q 207 22 274 -15 q 105 126 140 58 q 59 287 69 193 q 49 496 49 381 q 59 703 49 608 q 105 867 69 799 q 207 973 140 935 q 386 1011 274 1011 q 565 973 499 1011 q 667 867 632 935 q 713 703 703 799 q 724 496 724 608 q 713 287 724 381 q 667 126 703 193 q 565 22 632 58 q 386 -15 499 -15 m 386 128 q 458 148 431 128 q 499 212 485 168 q 519 326 514 256 q 524 496 524 396 q 519 665 524 596 q 499 779 514 735 q 458 844 485 824 q 386 864 431 864 q 315 844 342 864 q 273 779 288 824 q 253 665 258 735 q 249 496 249 596 q 253 326 249 396 q 273 212 258 256 q 315 148 288 168 q 386 128 342 128 m 581 1226 l 581 1063 l 425 1063 l 425 1226 l 581 1226 m 342 1226 l 342 1063 l 190 1063 l 190 1226 l 342 1226 z "},"ӧ":{"ha":667,"x_min":39,"x_max":628,"o":"m 333 -15 q 190 8 247 -15 q 100 81 133 32 q 53 202 67 129 q 39 374 39 275 q 54 543 39 469 q 104 666 69 617 q 195 741 139 715 q 333 767 251 767 q 476 742 419 767 q 567 668 533 717 q 614 545 600 619 q 628 374 628 471 q 613 203 628 276 q 563 82 597 131 q 472 9 528 33 q 333 -15 415 -15 m 333 111 q 414 172 392 111 q 436 374 436 233 q 414 575 436 514 q 333 636 392 636 q 277 617 297 636 q 247 563 257 597 q 233 479 236 528 q 231 374 231 431 q 233 268 231 317 q 247 185 236 219 q 277 131 257 150 q 333 111 297 111 m 528 1011 l 528 847 l 372 847 l 372 1011 l 528 1011 m 289 1011 l 289 847 l 138 847 l 138 1011 l 289 1011 z "},"Ө":{"ha":772,"x_min":49,"x_max":724,"o":"m 386 -15 q 207 22 274 -15 q 105 126 140 58 q 59 287 69 193 q 49 496 49 381 q 59 703 49 608 q 105 867 69 799 q 207 973 140 935 q 386 1011 274 1011 q 565 973 499 1011 q 667 867 632 935 q 713 703 703 799 q 724 496 724 608 q 713 287 724 381 q 667 126 703 193 q 565 22 632 58 q 386 -15 499 -15 m 386 128 q 453 144 426 128 q 494 199 479 161 q 515 295 508 236 q 522 438 521 354 l 249 438 q 256 295 250 354 q 278 199 263 236 q 319 144 293 161 q 386 128 344 128 m 522 588 q 490 799 518 735 q 386 864 463 864 q 322 849 347 864 q 281 800 296 833 q 258 714 265 767 q 250 588 251 661 l 522 588 z "},"ө":{"ha":667,"x_min":39,"x_max":628,"o":"m 333 -15 q 190 8 247 -15 q 100 81 133 32 q 53 202 67 129 q 39 374 39 275 q 54 543 39 469 q 104 666 69 617 q 195 741 139 715 q 333 767 251 767 q 476 742 419 767 q 567 668 533 717 q 614 545 600 619 q 628 374 628 471 q 613 203 628 276 q 563 82 597 131 q 472 9 528 33 q 333 -15 415 -15 m 333 111 q 409 160 386 111 q 435 325 432 210 l 231 325 q 236 238 232 276 q 251 170 240 199 q 282 126 263 142 q 333 111 301 111 m 433 451 q 405 593 428 550 q 333 636 382 636 q 255 585 275 636 q 232 451 235 535 l 433 451 z "},"Ӯ":{"ha":722,"x_min":3,"x_max":719,"o":"m 185 -6 q 164 -6 172 -6 q 147 -5 156 -6 q 126 -3 138 -4 q 94 0 114 -3 l 94 151 q 153 147 124 147 q 224 172 201 147 q 265 243 246 197 l 275 265 l 3 992 l 225 992 l 371 504 l 511 992 l 719 992 l 482 278 q 433 147 457 200 q 376 59 408 93 q 299 10 344 25 q 185 -6 253 -6 m 563 1101 l 158 1101 l 158 1207 l 563 1207 l 563 1101 z "},"ӯ":{"ha":617,"x_min":7,"x_max":610,"o":"m 64 -240 l 64 -97 q 114 -101 89 -101 q 190 -74 167 -101 q 217 0 213 -46 l 7 747 l 207 747 l 318 231 l 321 231 l 418 747 l 610 747 l 429 50 q 381 -101 404 -44 q 327 -189 358 -158 q 252 -230 296 -219 q 142 -240 208 -240 l 64 -240 m 510 886 l 106 886 l 106 992 l 510 992 l 510 886 z "},"Ӱ":{"ha":722,"x_min":3,"x_max":719,"o":"m 185 -6 q 164 -6 172 -6 q 147 -5 156 -6 q 126 -3 138 -4 q 94 0 114 -3 l 94 151 q 153 147 124 147 q 224 172 201 147 q 265 243 246 197 l 275 265 l 3 992 l 225 992 l 371 504 l 511 992 l 719 992 l 482 278 q 433 147 457 200 q 376 59 408 93 q 299 10 344 25 q 185 -6 253 -6 m 556 1226 l 556 1063 l 400 1063 l 400 1226 l 556 1226 m 317 1226 l 317 1063 l 165 1063 l 165 1226 l 317 1226 z "},"ӱ":{"ha":617,"x_min":7,"x_max":610,"o":"m 64 -240 l 64 -97 q 114 -101 89 -101 q 190 -74 167 -101 q 217 0 213 -46 l 7 747 l 207 747 l 318 231 l 321 231 l 418 747 l 610 747 l 429 50 q 381 -101 404 -44 q 327 -189 358 -158 q 252 -230 296 -219 q 142 -240 208 -240 l 64 -240 m 503 1011 l 503 847 l 347 847 l 347 1011 l 503 1011 m 264 1011 l 264 847 l 113 847 l 113 1011 l 264 1011 z "},"Ӳ":{"ha":722,"x_min":3,"x_max":719,"o":"m 185 -6 q 164 -6 172 -6 q 147 -5 156 -6 q 126 -3 138 -4 q 94 0 114 -3 l 94 151 q 153 147 124 147 q 224 172 201 147 q 265 243 246 197 l 275 265 l 3 992 l 225 992 l 371 504 l 511 992 l 719 992 l 482 278 q 433 147 457 200 q 376 59 408 93 q 299 10 344 25 q 185 -6 253 -6 m 682 1250 l 546 1050 l 415 1050 l 490 1250 l 682 1250 m 451 1250 l 315 1050 l 189 1050 l 260 1250 l 451 1250 z "},"ӳ":{"ha":617,"x_min":7,"x_max":610,"o":"m 64 -240 l 64 -97 q 114 -101 89 -101 q 190 -74 167 -101 q 217 0 213 -46 l 7 747 l 207 747 l 318 231 l 321 231 l 418 747 l 610 747 l 429 50 q 381 -101 404 -44 q 327 -189 358 -158 q 252 -230 296 -219 q 142 -240 208 -240 l 64 -240 m 599 1035 l 463 835 l 332 835 l 407 1035 l 599 1035 m 368 1035 l 232 835 l 106 835 l 176 1035 l 368 1035 z "},"Ӵ":{"ha":733,"x_min":42,"x_max":664,"o":"m 464 386 q 399 376 433 379 q 332 372 364 372 q 111 437 181 372 q 42 640 42 501 l 42 992 l 242 992 l 242 658 q 252 593 242 618 q 280 554 263 568 q 321 535 297 540 q 371 531 344 531 q 415 533 389 531 q 464 539 440 535 l 464 992 l 664 992 l 664 0 l 464 0 l 464 386 m 561 1226 l 561 1063 l 406 1063 l 406 1226 l 561 1226 m 322 1226 l 322 1063 l 171 1063 l 171 1226 l 322 1226 z "},"ӵ":{"ha":664,"x_min":46,"x_max":597,"o":"m 406 285 q 357 276 390 282 q 279 271 324 271 q 103 324 160 271 q 46 485 46 376 l 46 747 l 236 747 l 236 490 q 260 424 236 439 q 319 410 283 410 q 371 414 347 410 q 406 421 394 418 l 406 747 l 597 747 l 597 0 l 406 0 l 406 285 m 526 1011 l 526 847 l 371 847 l 371 1011 l 526 1011 m 288 1011 l 288 847 l 136 847 l 136 1011 l 288 1011 z "},"Ӹ":{"ha":1044,"x_min":69,"x_max":975,"o":"m 69 992 l 269 992 l 269 617 l 375 617 q 510 601 451 617 q 610 549 569 585 q 672 454 650 513 q 693 313 693 396 q 672 168 693 228 q 609 71 650 108 q 509 17 568 33 q 375 0 450 0 l 69 0 l 69 992 m 325 151 q 452 185 415 151 q 489 311 489 219 q 478 387 489 357 q 449 434 468 417 q 399 458 429 451 q 331 465 369 465 l 269 465 l 269 151 l 325 151 m 775 992 l 975 992 l 975 0 l 775 0 l 775 992 m 717 1226 l 717 1063 l 561 1063 l 561 1226 l 717 1226 m 478 1226 l 478 1063 l 326 1063 l 326 1226 l 478 1226 z "},"ӹ":{"ha":931,"x_min":64,"x_max":867,"o":"m 64 747 l 256 747 l 256 493 l 356 493 q 461 481 414 493 q 542 439 508 468 q 593 364 575 410 q 611 251 611 318 q 545 59 611 118 q 361 0 479 0 l 64 0 l 64 747 m 319 143 q 401 165 378 143 q 425 246 425 188 q 401 328 425 306 q 324 350 376 350 l 256 350 l 256 143 l 319 143 m 675 747 l 867 747 l 867 0 l 675 0 l 675 747 m 660 1011 l 660 847 l 504 847 l 504 1011 l 660 1011 m 421 1011 l 421 847 l 269 847 l 269 1011 l 421 1011 z "},"№":{"ha":1206,"x_min":69,"x_max":1150,"o":"m 69 964 l 307 964 l 525 314 q 522 355 524 331 q 519 406 521 379 q 517 457 518 432 q 517 500 517 482 l 517 964 l 704 964 l 704 0 l 468 0 l 249 675 q 252 631 250 660 q 255 567 254 601 q 256 500 256 533 q 257 446 257 467 l 257 0 l 69 0 l 69 964 m 794 275 l 1138 275 l 1138 167 l 794 167 l 794 275 m 960 317 q 822 371 864 317 q 781 551 781 425 q 790 653 781 608 q 820 727 799 697 q 878 773 842 757 q 968 789 914 789 q 1108 735 1067 789 q 1150 554 1150 681 q 1106 372 1150 426 q 960 317 1061 317 m 965 394 q 1013 430 1000 394 q 1026 554 1026 465 q 1014 676 1026 643 q 965 708 1001 708 q 917 674 931 708 q 904 550 904 639 q 917 428 904 463 q 965 394 931 394 z "},"Ą":{"ha":772,"x_min":0,"x_max":793,"o":"m 642 -307 q 578 -297 604 -307 q 537 -269 553 -286 q 515 -231 521 -253 q 508 -187 508 -210 q 551 -76 508 -125 q 679 0 594 -28 l 564 0 l 518 210 l 254 210 l 208 0 l 0 0 l 263 992 l 510 992 l 772 0 q 700 -51 728 -28 q 657 -94 672 -75 q 636 -131 642 -114 q 631 -162 631 -147 q 644 -202 631 -186 q 685 -218 658 -218 q 728 -212 710 -218 q 767 -196 746 -207 l 793 -275 q 720 -299 764 -290 q 642 -307 676 -307 m 483 374 l 388 819 l 385 819 l 289 374 l 483 374 z "},"ą":{"ha":668,"x_min":39,"x_max":640,"o":"m 489 -307 q 426 -297 451 -307 q 384 -269 400 -286 q 362 -231 368 -253 q 356 -187 356 -210 q 399 -76 356 -125 q 526 0 442 -28 l 436 0 q 422 38 426 18 q 413 78 417 58 l 410 78 q 333 2 376 19 q 219 -15 289 -15 q 135 2 169 -15 q 79 50 100 19 q 49 119 58 81 q 39 194 39 157 q 50 285 39 247 q 84 351 61 324 q 142 396 107 378 q 228 428 178 414 l 336 457 q 396 488 379 468 q 413 544 413 507 q 392 612 413 588 q 324 636 372 636 q 257 610 279 636 q 235 539 235 583 l 235 518 l 63 518 l 63 536 q 83 645 63 601 q 140 716 104 689 q 223 755 175 743 q 325 767 271 767 q 464 750 411 767 q 546 703 517 733 q 585 630 575 672 q 596 538 596 588 l 596 144 q 601 63 596 92 q 619 0 606 33 q 547 -51 575 -28 q 504 -94 519 -75 q 483 -130 489 -114 q 478 -162 478 -146 q 492 -202 478 -186 q 532 -218 506 -218 q 575 -212 557 -218 q 614 -196 593 -207 l 640 -275 q 567 -299 611 -290 q 489 -307 524 -307 m 294 111 q 335 117 314 111 q 373 138 356 124 q 401 174 390 151 q 413 226 413 196 l 413 374 q 371 349 393 358 q 331 336 349 340 q 247 294 272 324 q 222 215 222 265 q 239 142 222 172 q 294 111 256 111 z "},"Ć":{"ha":746,"x_min":49,"x_max":701,"o":"m 493 657 q 467 815 493 765 q 374 864 442 864 q 312 844 336 864 q 274 778 288 824 q 254 660 260 733 q 249 482 249 588 q 256 300 249 369 q 280 192 264 231 q 320 141 296 154 q 376 128 344 128 q 426 137 403 128 q 465 173 449 146 q 492 249 482 200 q 501 379 501 299 l 701 379 q 689 226 701 299 q 642 100 676 154 q 547 15 608 46 q 386 -15 485 -15 q 207 21 274 -15 q 105 125 140 57 q 59 288 69 193 q 49 496 49 382 q 59 703 49 608 q 105 867 69 799 q 207 973 140 935 q 386 1011 274 1011 q 555 976 493 1011 q 647 888 617 942 q 685 773 678 835 q 693 657 693 711 l 493 657 l 493 657 m 575 1250 l 439 1050 l 308 1050 l 383 1250 l 575 1250 z "},"ć":{"ha":643,"x_min":36,"x_max":607,"o":"m 424 478 q 420 532 424 506 q 408 580 417 558 q 382 615 399 601 q 338 628 365 628 q 281 612 303 628 q 247 565 258 596 q 232 485 236 533 q 228 372 228 438 q 232 253 228 303 q 247 172 236 204 q 278 126 258 140 q 331 111 299 111 q 401 153 379 111 q 424 286 424 194 l 607 286 q 541 62 607 139 q 322 -15 475 -15 q 197 2 250 -15 q 108 65 143 19 q 54 185 72 110 q 36 374 36 261 q 58 565 36 489 q 121 685 81 640 q 217 749 161 731 q 339 767 272 767 q 540 689 472 767 q 607 478 607 611 l 424 478 l 424 478 m 510 1035 l 374 835 l 243 835 l 318 1035 l 510 1035 z "},"Ę":{"ha":668,"x_min":69,"x_max":638,"o":"m 486 -307 q 423 -297 449 -307 q 381 -269 397 -286 q 359 -231 365 -253 q 353 -187 353 -210 q 396 -76 353 -125 q 524 0 439 -28 l 69 0 l 69 992 l 624 992 l 624 828 l 269 828 l 269 594 l 603 594 l 603 431 l 269 431 l 269 164 l 638 164 l 638 0 l 617 0 q 544 -51 572 -28 q 501 -94 517 -75 q 481 -130 486 -114 q 475 -162 475 -146 q 489 -202 475 -186 q 529 -218 503 -218 q 572 -212 554 -218 q 611 -196 590 -207 l 638 -275 q 565 -299 608 -290 q 486 -307 521 -307 z "},"ę":{"ha":643,"x_min":36,"x_max":607,"o":"m 322 111 q 393 146 371 111 q 424 251 415 181 l 596 251 q 526 53 590 121 q 435 -1 492 15 q 365 -51 392 -28 q 322 -94 338 -75 q 301 -130 307 -114 q 296 -162 296 -146 q 310 -202 296 -186 q 350 -218 324 -218 q 393 -212 375 -218 q 432 -196 411 -207 l 458 -275 q 385 -299 429 -290 q 307 -307 342 -307 q 244 -297 269 -307 q 202 -269 218 -286 q 180 -231 186 -253 q 174 -187 174 -210 q 217 -76 174 -125 q 304 -15 249 -40 q 163 19 214 -11 q 76 111 104 54 q 42 239 49 168 q 36 381 36 310 q 47 525 36 456 q 88 649 57 594 q 178 735 119 703 q 333 767 236 767 q 470 740 417 767 q 554 663 524 713 q 596 544 585 614 q 607 388 607 474 l 607 344 l 228 344 l 228 285 q 233 220 228 251 q 249 165 238 189 q 278 126 260 140 q 322 111 296 111 m 424 458 q 418 534 422 501 q 403 590 414 567 q 374 624 393 613 q 326 636 356 636 q 278 623 297 636 q 249 588 260 610 q 233 540 238 567 q 228 488 228 514 l 228 458 l 424 458 l 424 458 z "},"Ń":{"ha":797,"x_min":69,"x_max":728,"o":"m 542 313 l 544 313 l 544 992 l 728 992 l 728 0 l 500 0 l 256 694 l 253 694 l 253 0 l 69 0 l 69 992 l 300 992 l 542 313 m 588 1250 l 451 1050 l 321 1050 l 396 1250 l 588 1250 z "},"ń":{"ha":694,"x_min":64,"x_max":631,"o":"m 247 747 l 247 660 l 250 660 q 329 741 281 715 q 440 767 378 767 q 581 717 532 767 q 631 554 631 667 l 631 0 l 439 0 l 439 515 q 419 597 439 574 q 357 619 400 619 q 256 496 256 619 l 256 0 l 64 0 l 64 747 l 247 747 m 536 1035 l 400 835 l 269 835 l 344 1035 l 536 1035 z "},"Ś":{"ha":721,"x_min":31,"x_max":690,"o":"m 231 281 q 236 217 231 246 q 257 169 242 189 q 298 139 272 150 q 363 128 324 128 q 445 158 408 128 q 482 250 482 188 q 473 308 482 283 q 443 351 464 332 q 388 387 422 371 q 304 419 354 403 q 189 468 238 442 q 108 530 140 494 q 60 612 75 565 q 44 719 44 658 q 126 939 44 867 q 351 1011 208 1011 q 474 997 418 1011 q 572 949 531 982 q 635 866 613 917 q 658 744 658 815 l 658 717 l 467 717 q 442 826 467 788 q 358 864 417 864 q 303 854 325 864 q 267 828 281 844 q 249 792 254 813 q 244 749 244 771 q 264 672 244 703 q 347 614 283 640 l 501 547 q 594 495 558 522 q 652 437 631 468 q 682 368 674 406 q 690 285 690 331 q 599 56 690 128 q 346 -15 508 -15 q 103 58 176 -15 q 31 269 31 132 l 31 310 l 231 310 l 231 281 m 549 1250 l 413 1050 l 282 1050 l 357 1250 l 549 1250 z "},"ś":{"ha":617,"x_min":32,"x_max":585,"o":"m 204 219 q 230 141 204 171 q 304 111 256 111 q 375 133 349 111 q 401 200 401 156 q 381 255 401 236 q 332 285 360 274 l 197 333 q 78 412 118 361 q 38 542 38 463 q 53 628 38 588 q 101 700 68 669 q 187 749 135 731 q 313 767 239 767 q 506 711 443 767 q 568 554 568 656 l 568 524 l 396 524 q 377 609 396 582 q 311 636 358 636 q 248 616 275 636 q 221 556 221 596 q 238 506 221 528 q 304 468 256 483 l 419 429 q 547 349 510 399 q 585 215 585 300 q 564 112 585 156 q 506 39 543 68 q 419 -3 469 10 q 307 -15 368 -15 q 173 0 226 -15 q 88 46 119 15 q 44 120 57 76 q 32 218 32 164 l 32 244 l 204 244 l 204 219 m 497 1035 l 361 835 l 231 835 l 306 1035 l 497 1035 z "},"Ź":{"ha":668,"x_min":33,"x_max":635,"o":"m 399 828 l 58 828 l 58 992 l 629 992 l 629 840 l 258 164 l 635 164 l 635 0 l 33 0 l 33 146 l 399 828 m 522 1250 l 386 1050 l 256 1050 l 331 1250 l 522 1250 z "},"ź":{"ha":592,"x_min":33,"x_max":558,"o":"m 332 592 l 47 592 l 47 747 l 558 747 l 558 600 l 260 156 l 558 156 l 558 0 l 33 0 l 33 147 l 332 592 m 485 1035 l 349 835 l 218 835 l 293 1035 l 485 1035 z "},"Ż":{"ha":668,"x_min":33,"x_max":635,"o":"m 399 828 l 58 828 l 58 992 l 629 992 l 629 840 l 258 164 l 635 164 l 635 0 l 33 0 l 33 146 l 399 828 m 411 1063 l 256 1063 l 256 1226 l 411 1226 l 411 1063 z "},"ż":{"ha":592,"x_min":33,"x_max":558,"o":"m 332 592 l 47 592 l 47 747 l 558 747 l 558 600 l 260 156 l 558 156 l 558 0 l 33 0 l 33 147 l 332 592 m 374 847 l 218 847 l 218 1011 l 374 1011 l 374 847 z "}}}
